%TF.GenerationSoftware,KiCad,Pcbnew,(5.1.9)-1*%
%TF.CreationDate,2021-03-28T13:23:05-04:00*%
%TF.ProjectId,wled,776c6564-2e6b-4696-9361-645f70636258,rev?*%
%TF.SameCoordinates,Original*%
%TF.FileFunction,Paste,Top*%
%TF.FilePolarity,Positive*%
%FSLAX46Y46*%
G04 Gerber Fmt 4.6, Leading zero omitted, Abs format (unit mm)*
G04 Created by KiCad (PCBNEW (5.1.9)-1) date 2021-03-28 13:23:05*
%MOMM*%
%LPD*%
G01*
G04 APERTURE LIST*
%ADD10R,0.450000X0.600000*%
%ADD11R,2.000000X3.800000*%
%ADD12R,2.000000X1.500000*%
%ADD13R,0.900000X0.800000*%
%ADD14R,2.500000X1.000000*%
%ADD15R,1.000000X1.800000*%
G04 APERTURE END LIST*
D10*
%TO.C,D1*%
X50292000Y-31462000D03*
X50292000Y-33562000D03*
%TD*%
D11*
%TO.C,U2*%
X56540000Y-39370000D03*
D12*
X62840000Y-39370000D03*
X62840000Y-37070000D03*
X62840000Y-41670000D03*
%TD*%
%TO.C,D2*%
G36*
G01*
X53844000Y-31649500D02*
X53844000Y-31850500D01*
G75*
G02*
X53764500Y-31930000I-79500J0D01*
G01*
X53605500Y-31930000D01*
G75*
G02*
X53526000Y-31850500I0J79500D01*
G01*
X53526000Y-31649500D01*
G75*
G02*
X53605500Y-31570000I79500J0D01*
G01*
X53764500Y-31570000D01*
G75*
G02*
X53844000Y-31649500I0J-79500D01*
G01*
G37*
G36*
G01*
X53154000Y-31649500D02*
X53154000Y-31850500D01*
G75*
G02*
X53074500Y-31930000I-79500J0D01*
G01*
X52915500Y-31930000D01*
G75*
G02*
X52836000Y-31850500I0J79500D01*
G01*
X52836000Y-31649500D01*
G75*
G02*
X52915500Y-31570000I79500J0D01*
G01*
X53074500Y-31570000D01*
G75*
G02*
X53154000Y-31649500I0J-79500D01*
G01*
G37*
%TD*%
%TO.C,J3*%
G36*
G01*
X79741001Y-32344000D02*
X78440999Y-32344000D01*
G75*
G02*
X78191000Y-32094001I0J249999D01*
G01*
X78191000Y-31393999D01*
G75*
G02*
X78440999Y-31144000I249999J0D01*
G01*
X79741001Y-31144000D01*
G75*
G02*
X79991000Y-31393999I0J-249999D01*
G01*
X79991000Y-32094001D01*
G75*
G02*
X79741001Y-32344000I-249999J0D01*
G01*
G37*
G36*
G01*
X79741001Y-37944000D02*
X78440999Y-37944000D01*
G75*
G02*
X78191000Y-37694001I0J249999D01*
G01*
X78191000Y-36993999D01*
G75*
G02*
X78440999Y-36744000I249999J0D01*
G01*
X79741001Y-36744000D01*
G75*
G02*
X79991000Y-36993999I0J-249999D01*
G01*
X79991000Y-37694001D01*
G75*
G02*
X79741001Y-37944000I-249999J0D01*
G01*
G37*
G36*
G01*
X75841000Y-33344000D02*
X74591000Y-33344000D01*
G75*
G02*
X74441000Y-33194000I0J150000D01*
G01*
X74441000Y-32894000D01*
G75*
G02*
X74591000Y-32744000I150000J0D01*
G01*
X75841000Y-32744000D01*
G75*
G02*
X75991000Y-32894000I0J-150000D01*
G01*
X75991000Y-33194000D01*
G75*
G02*
X75841000Y-33344000I-150000J0D01*
G01*
G37*
G36*
G01*
X75841000Y-34344000D02*
X74591000Y-34344000D01*
G75*
G02*
X74441000Y-34194000I0J150000D01*
G01*
X74441000Y-33894000D01*
G75*
G02*
X74591000Y-33744000I150000J0D01*
G01*
X75841000Y-33744000D01*
G75*
G02*
X75991000Y-33894000I0J-150000D01*
G01*
X75991000Y-34194000D01*
G75*
G02*
X75841000Y-34344000I-150000J0D01*
G01*
G37*
G36*
G01*
X75841000Y-35344000D02*
X74591000Y-35344000D01*
G75*
G02*
X74441000Y-35194000I0J150000D01*
G01*
X74441000Y-34894000D01*
G75*
G02*
X74591000Y-34744000I150000J0D01*
G01*
X75841000Y-34744000D01*
G75*
G02*
X75991000Y-34894000I0J-150000D01*
G01*
X75991000Y-35194000D01*
G75*
G02*
X75841000Y-35344000I-150000J0D01*
G01*
G37*
G36*
G01*
X75841000Y-36344000D02*
X74591000Y-36344000D01*
G75*
G02*
X74441000Y-36194000I0J150000D01*
G01*
X74441000Y-35894000D01*
G75*
G02*
X74591000Y-35744000I150000J0D01*
G01*
X75841000Y-35744000D01*
G75*
G02*
X75991000Y-35894000I0J-150000D01*
G01*
X75991000Y-36194000D01*
G75*
G02*
X75841000Y-36344000I-150000J0D01*
G01*
G37*
%TD*%
D13*
%TO.C,Q2*%
X65675000Y-33020000D03*
X63675000Y-33970000D03*
X63675000Y-32070000D03*
%TD*%
%TO.C,Q1*%
X58150000Y-33020000D03*
X56150000Y-33970000D03*
X56150000Y-32070000D03*
%TD*%
%TO.C,C1*%
G36*
G01*
X53844000Y-36729500D02*
X53844000Y-36930500D01*
G75*
G02*
X53764500Y-37010000I-79500J0D01*
G01*
X53605500Y-37010000D01*
G75*
G02*
X53526000Y-36930500I0J79500D01*
G01*
X53526000Y-36729500D01*
G75*
G02*
X53605500Y-36650000I79500J0D01*
G01*
X53764500Y-36650000D01*
G75*
G02*
X53844000Y-36729500I0J-79500D01*
G01*
G37*
G36*
G01*
X53154000Y-36729500D02*
X53154000Y-36930500D01*
G75*
G02*
X53074500Y-37010000I-79500J0D01*
G01*
X52915500Y-37010000D01*
G75*
G02*
X52836000Y-36930500I0J79500D01*
G01*
X52836000Y-36729500D01*
G75*
G02*
X52915500Y-36650000I79500J0D01*
G01*
X53074500Y-36650000D01*
G75*
G02*
X53154000Y-36729500I0J-79500D01*
G01*
G37*
%TD*%
%TO.C,C2*%
G36*
G01*
X53154000Y-34189500D02*
X53154000Y-34390500D01*
G75*
G02*
X53074500Y-34470000I-79500J0D01*
G01*
X52915500Y-34470000D01*
G75*
G02*
X52836000Y-34390500I0J79500D01*
G01*
X52836000Y-34189500D01*
G75*
G02*
X52915500Y-34110000I79500J0D01*
G01*
X53074500Y-34110000D01*
G75*
G02*
X53154000Y-34189500I0J-79500D01*
G01*
G37*
G36*
G01*
X53844000Y-34189500D02*
X53844000Y-34390500D01*
G75*
G02*
X53764500Y-34470000I-79500J0D01*
G01*
X53605500Y-34470000D01*
G75*
G02*
X53526000Y-34390500I0J79500D01*
G01*
X53526000Y-34189500D01*
G75*
G02*
X53605500Y-34110000I79500J0D01*
G01*
X53764500Y-34110000D01*
G75*
G02*
X53844000Y-34189500I0J-79500D01*
G01*
G37*
%TD*%
%TO.C,R1*%
G36*
G01*
X60456000Y-31850500D02*
X60456000Y-31649500D01*
G75*
G02*
X60535500Y-31570000I79500J0D01*
G01*
X60694500Y-31570000D01*
G75*
G02*
X60774000Y-31649500I0J-79500D01*
G01*
X60774000Y-31850500D01*
G75*
G02*
X60694500Y-31930000I-79500J0D01*
G01*
X60535500Y-31930000D01*
G75*
G02*
X60456000Y-31850500I0J79500D01*
G01*
G37*
G36*
G01*
X61146000Y-31850500D02*
X61146000Y-31649500D01*
G75*
G02*
X61225500Y-31570000I79500J0D01*
G01*
X61384500Y-31570000D01*
G75*
G02*
X61464000Y-31649500I0J-79500D01*
G01*
X61464000Y-31850500D01*
G75*
G02*
X61384500Y-31930000I-79500J0D01*
G01*
X61225500Y-31930000D01*
G75*
G02*
X61146000Y-31850500I0J79500D01*
G01*
G37*
%TD*%
%TO.C,R2*%
G36*
G01*
X61146000Y-34390500D02*
X61146000Y-34189500D01*
G75*
G02*
X61225500Y-34110000I79500J0D01*
G01*
X61384500Y-34110000D01*
G75*
G02*
X61464000Y-34189500I0J-79500D01*
G01*
X61464000Y-34390500D01*
G75*
G02*
X61384500Y-34470000I-79500J0D01*
G01*
X61225500Y-34470000D01*
G75*
G02*
X61146000Y-34390500I0J79500D01*
G01*
G37*
G36*
G01*
X60456000Y-34390500D02*
X60456000Y-34189500D01*
G75*
G02*
X60535500Y-34110000I79500J0D01*
G01*
X60694500Y-34110000D01*
G75*
G02*
X60774000Y-34189500I0J-79500D01*
G01*
X60774000Y-34390500D01*
G75*
G02*
X60694500Y-34470000I-79500J0D01*
G01*
X60535500Y-34470000D01*
G75*
G02*
X60456000Y-34390500I0J79500D01*
G01*
G37*
%TD*%
D14*
%TO.C,U1*%
X29738000Y-31806000D03*
X29738000Y-33806000D03*
X29738000Y-35806000D03*
X29738000Y-37806000D03*
X29738000Y-39806000D03*
X29738000Y-41806000D03*
X29738000Y-43806000D03*
X29738000Y-45806000D03*
D15*
X32338000Y-47306000D03*
X34338000Y-47306000D03*
X36338000Y-47306000D03*
X38338000Y-47306000D03*
X40338000Y-47306000D03*
X42338000Y-47306000D03*
D14*
X44938000Y-45806000D03*
X44938000Y-43806000D03*
X44938000Y-41806000D03*
X44938000Y-39806000D03*
X44938000Y-37806000D03*
X44938000Y-35806000D03*
X44938000Y-33806000D03*
X44938000Y-31806000D03*
%TD*%
M02*
