%TF.GenerationSoftware,KiCad,Pcbnew,(5.1.9)-1*%
%TF.CreationDate,2021-05-29T10:09:57-04:00*%
%TF.ProjectId,wled,776c6564-2e6b-4696-9361-645f70636258,rev?*%
%TF.SameCoordinates,Original*%
%TF.FileFunction,Copper,L1,Top*%
%TF.FilePolarity,Positive*%
%FSLAX46Y46*%
G04 Gerber Fmt 4.6, Leading zero omitted, Abs format (unit mm)*
G04 Created by KiCad (PCBNEW (5.1.9)-1) date 2021-05-29 10:09:57*
%MOMM*%
%LPD*%
G01*
G04 APERTURE LIST*
%TA.AperFunction,SMDPad,CuDef*%
%ADD10R,1.550000X1.300000*%
%TD*%
%TA.AperFunction,SMDPad,CuDef*%
%ADD11R,2.000000X3.800000*%
%TD*%
%TA.AperFunction,SMDPad,CuDef*%
%ADD12R,2.000000X1.500000*%
%TD*%
%TA.AperFunction,SMDPad,CuDef*%
%ADD13R,2.500000X1.000000*%
%TD*%
%TA.AperFunction,SMDPad,CuDef*%
%ADD14R,1.000000X1.800000*%
%TD*%
%TA.AperFunction,ComponentPad*%
%ADD15C,5.600000*%
%TD*%
%TA.AperFunction,ComponentPad*%
%ADD16R,1.700000X1.700000*%
%TD*%
%TA.AperFunction,ComponentPad*%
%ADD17O,1.700000X1.700000*%
%TD*%
%TA.AperFunction,SMDPad,CuDef*%
%ADD18R,0.600000X0.450000*%
%TD*%
%TA.AperFunction,ComponentPad*%
%ADD19O,1.700000X1.950000*%
%TD*%
%TA.AperFunction,ComponentPad*%
%ADD20O,1.700000X2.000000*%
%TD*%
%TA.AperFunction,ViaPad*%
%ADD21C,0.800000*%
%TD*%
%TA.AperFunction,Conductor*%
%ADD22C,0.254000*%
%TD*%
G04 APERTURE END LIST*
D10*
%TO.P,FLASH,2*%
%TO.N,GND*%
X173647000Y-120106000D03*
X165697000Y-120106000D03*
%TO.P,FLASH,1*%
%TO.N,Net-(SW2-Pad1)*%
X173647000Y-115606000D03*
X165697000Y-115606000D03*
%TD*%
%TO.P,J3,MP*%
%TO.N,N/C*%
%TA.AperFunction,SMDPad,CuDef*%
G36*
G01*
X188707001Y-106766000D02*
X187406999Y-106766000D01*
G75*
G02*
X187157000Y-106516001I0J249999D01*
G01*
X187157000Y-105815999D01*
G75*
G02*
X187406999Y-105566000I249999J0D01*
G01*
X188707001Y-105566000D01*
G75*
G02*
X188957000Y-105815999I0J-249999D01*
G01*
X188957000Y-106516001D01*
G75*
G02*
X188707001Y-106766000I-249999J0D01*
G01*
G37*
%TD.AperFunction*%
%TA.AperFunction,SMDPad,CuDef*%
G36*
G01*
X188707001Y-112366000D02*
X187406999Y-112366000D01*
G75*
G02*
X187157000Y-112116001I0J249999D01*
G01*
X187157000Y-111415999D01*
G75*
G02*
X187406999Y-111166000I249999J0D01*
G01*
X188707001Y-111166000D01*
G75*
G02*
X188957000Y-111415999I0J-249999D01*
G01*
X188957000Y-112116001D01*
G75*
G02*
X188707001Y-112366000I-249999J0D01*
G01*
G37*
%TD.AperFunction*%
%TO.P,J3,4*%
%TO.N,SCL*%
%TA.AperFunction,SMDPad,CuDef*%
G36*
G01*
X184807000Y-107766000D02*
X183557000Y-107766000D01*
G75*
G02*
X183407000Y-107616000I0J150000D01*
G01*
X183407000Y-107316000D01*
G75*
G02*
X183557000Y-107166000I150000J0D01*
G01*
X184807000Y-107166000D01*
G75*
G02*
X184957000Y-107316000I0J-150000D01*
G01*
X184957000Y-107616000D01*
G75*
G02*
X184807000Y-107766000I-150000J0D01*
G01*
G37*
%TD.AperFunction*%
%TO.P,J3,3*%
%TO.N,SDA*%
%TA.AperFunction,SMDPad,CuDef*%
G36*
G01*
X184807000Y-108766000D02*
X183557000Y-108766000D01*
G75*
G02*
X183407000Y-108616000I0J150000D01*
G01*
X183407000Y-108316000D01*
G75*
G02*
X183557000Y-108166000I150000J0D01*
G01*
X184807000Y-108166000D01*
G75*
G02*
X184957000Y-108316000I0J-150000D01*
G01*
X184957000Y-108616000D01*
G75*
G02*
X184807000Y-108766000I-150000J0D01*
G01*
G37*
%TD.AperFunction*%
%TO.P,J3,2*%
%TO.N,VDD3V3*%
%TA.AperFunction,SMDPad,CuDef*%
G36*
G01*
X184807000Y-109766000D02*
X183557000Y-109766000D01*
G75*
G02*
X183407000Y-109616000I0J150000D01*
G01*
X183407000Y-109316000D01*
G75*
G02*
X183557000Y-109166000I150000J0D01*
G01*
X184807000Y-109166000D01*
G75*
G02*
X184957000Y-109316000I0J-150000D01*
G01*
X184957000Y-109616000D01*
G75*
G02*
X184807000Y-109766000I-150000J0D01*
G01*
G37*
%TD.AperFunction*%
%TO.P,J3,1*%
%TO.N,GND*%
%TA.AperFunction,SMDPad,CuDef*%
G36*
G01*
X184807000Y-110766000D02*
X183557000Y-110766000D01*
G75*
G02*
X183407000Y-110616000I0J150000D01*
G01*
X183407000Y-110316000D01*
G75*
G02*
X183557000Y-110166000I150000J0D01*
G01*
X184807000Y-110166000D01*
G75*
G02*
X184957000Y-110316000I0J-150000D01*
G01*
X184957000Y-110616000D01*
G75*
G02*
X184807000Y-110766000I-150000J0D01*
G01*
G37*
%TD.AperFunction*%
%TD*%
D11*
%TO.P,U2,2*%
%TO.N,VDD3V3*%
X162560000Y-107950000D03*
D12*
X168860000Y-107950000D03*
%TO.P,U2,3*%
%TO.N,VDD5V*%
X168860000Y-105650000D03*
%TO.P,U2,1*%
%TO.N,GND*%
X168860000Y-110250000D03*
%TD*%
D13*
%TO.P,U1,1*%
%TO.N,Net-(R1-Pad1)*%
X138196000Y-106228000D03*
%TO.P,U1,2*%
%TO.N,N/C*%
X138196000Y-108228000D03*
%TO.P,U1,3*%
%TO.N,Net-(R2-Pad1)*%
X138196000Y-110228000D03*
%TO.P,U1,4*%
%TO.N,N/C*%
X138196000Y-112228000D03*
%TO.P,U1,5*%
X138196000Y-114228000D03*
%TO.P,U1,6*%
X138196000Y-116228000D03*
%TO.P,U1,7*%
X138196000Y-118228000D03*
%TO.P,U1,8*%
%TO.N,VDD3V3*%
X138196000Y-120228000D03*
D14*
%TO.P,U1,9*%
%TO.N,N/C*%
X140796000Y-121728000D03*
%TO.P,U1,10*%
X142796000Y-121728000D03*
%TO.P,U1,11*%
X144796000Y-121728000D03*
%TO.P,U1,12*%
X146796000Y-121728000D03*
%TO.P,U1,13*%
X148796000Y-121728000D03*
%TO.P,U1,14*%
X150796000Y-121728000D03*
D13*
%TO.P,U1,15*%
%TO.N,GND*%
X153396000Y-120228000D03*
%TO.P,U1,16*%
%TO.N,N/C*%
X153396000Y-118228000D03*
%TO.P,U1,17*%
%TO.N,DATA*%
X153396000Y-116228000D03*
%TO.P,U1,18*%
%TO.N,Net-(SW2-Pad1)*%
X153396000Y-114228000D03*
%TO.P,U1,19*%
%TO.N,SCL*%
X153396000Y-112228000D03*
%TO.P,U1,20*%
%TO.N,SDA*%
X153396000Y-110228000D03*
%TO.P,U1,21*%
%TO.N,Net-(D4-Pad1)*%
X153396000Y-108228000D03*
%TO.P,U1,22*%
%TO.N,Net-(D3-Pad2)*%
X153396000Y-106228000D03*
%TD*%
%TO.P,PWR,2*%
%TO.N,VDD5V*%
%TA.AperFunction,SMDPad,CuDef*%
G36*
G01*
X175889500Y-105920250D02*
X175889500Y-105407750D01*
G75*
G02*
X176108250Y-105189000I218750J0D01*
G01*
X176545750Y-105189000D01*
G75*
G02*
X176764500Y-105407750I0J-218750D01*
G01*
X176764500Y-105920250D01*
G75*
G02*
X176545750Y-106139000I-218750J0D01*
G01*
X176108250Y-106139000D01*
G75*
G02*
X175889500Y-105920250I0J218750D01*
G01*
G37*
%TD.AperFunction*%
%TO.P,PWR,1*%
%TO.N,GND*%
%TA.AperFunction,SMDPad,CuDef*%
G36*
G01*
X174314500Y-105920250D02*
X174314500Y-105407750D01*
G75*
G02*
X174533250Y-105189000I218750J0D01*
G01*
X174970750Y-105189000D01*
G75*
G02*
X175189500Y-105407750I0J-218750D01*
G01*
X175189500Y-105920250D01*
G75*
G02*
X174970750Y-106139000I-218750J0D01*
G01*
X174533250Y-106139000D01*
G75*
G02*
X174314500Y-105920250I0J218750D01*
G01*
G37*
%TD.AperFunction*%
%TD*%
%TO.P,C2,2*%
%TO.N,GND*%
%TA.AperFunction,SMDPad,CuDef*%
G36*
G01*
X157904000Y-111002000D02*
X157904000Y-111502000D01*
G75*
G02*
X157679000Y-111727000I-225000J0D01*
G01*
X157229000Y-111727000D01*
G75*
G02*
X157004000Y-111502000I0J225000D01*
G01*
X157004000Y-111002000D01*
G75*
G02*
X157229000Y-110777000I225000J0D01*
G01*
X157679000Y-110777000D01*
G75*
G02*
X157904000Y-111002000I0J-225000D01*
G01*
G37*
%TD.AperFunction*%
%TO.P,C2,1*%
%TO.N,VDD3V3*%
%TA.AperFunction,SMDPad,CuDef*%
G36*
G01*
X159454000Y-111002000D02*
X159454000Y-111502000D01*
G75*
G02*
X159229000Y-111727000I-225000J0D01*
G01*
X158779000Y-111727000D01*
G75*
G02*
X158554000Y-111502000I0J225000D01*
G01*
X158554000Y-111002000D01*
G75*
G02*
X158779000Y-110777000I225000J0D01*
G01*
X159229000Y-110777000D01*
G75*
G02*
X159454000Y-111002000I0J-225000D01*
G01*
G37*
%TD.AperFunction*%
%TD*%
%TO.P,C1,2*%
%TO.N,GND*%
%TA.AperFunction,SMDPad,CuDef*%
G36*
G01*
X157904000Y-106176000D02*
X157904000Y-106676000D01*
G75*
G02*
X157679000Y-106901000I-225000J0D01*
G01*
X157229000Y-106901000D01*
G75*
G02*
X157004000Y-106676000I0J225000D01*
G01*
X157004000Y-106176000D01*
G75*
G02*
X157229000Y-105951000I225000J0D01*
G01*
X157679000Y-105951000D01*
G75*
G02*
X157904000Y-106176000I0J-225000D01*
G01*
G37*
%TD.AperFunction*%
%TO.P,C1,1*%
%TO.N,VDD5V*%
%TA.AperFunction,SMDPad,CuDef*%
G36*
G01*
X159454000Y-106176000D02*
X159454000Y-106676000D01*
G75*
G02*
X159229000Y-106901000I-225000J0D01*
G01*
X158779000Y-106901000D01*
G75*
G02*
X158554000Y-106676000I0J225000D01*
G01*
X158554000Y-106176000D01*
G75*
G02*
X158779000Y-105951000I225000J0D01*
G01*
X159229000Y-105951000D01*
G75*
G02*
X159454000Y-106176000I0J-225000D01*
G01*
G37*
%TD.AperFunction*%
%TD*%
D15*
%TO.P,H4,1*%
%TO.N,N/C*%
X185166000Y-120650000D03*
%TD*%
%TO.P,H3,1*%
%TO.N,N/C*%
X185166000Y-101092000D03*
%TD*%
%TO.P,H2,1*%
%TO.N,N/C*%
X132842000Y-101092000D03*
%TD*%
%TO.P,H1,1*%
%TO.N,N/C*%
X132842000Y-120650000D03*
%TD*%
D16*
%TO.P,J2,1*%
%TO.N,VDD5V*%
X180086000Y-114427000D03*
D17*
%TO.P,J2,2*%
%TO.N,DATA*%
X180086000Y-116967000D03*
%TO.P,J2,3*%
%TO.N,GND*%
X180086000Y-119507000D03*
%TD*%
%TO.P,TXD,2*%
%TO.N,Net-(D3-Pad2)*%
%TA.AperFunction,SMDPad,CuDef*%
G36*
G01*
X175838500Y-108968250D02*
X175838500Y-108455750D01*
G75*
G02*
X176057250Y-108237000I218750J0D01*
G01*
X176494750Y-108237000D01*
G75*
G02*
X176713500Y-108455750I0J-218750D01*
G01*
X176713500Y-108968250D01*
G75*
G02*
X176494750Y-109187000I-218750J0D01*
G01*
X176057250Y-109187000D01*
G75*
G02*
X175838500Y-108968250I0J218750D01*
G01*
G37*
%TD.AperFunction*%
%TO.P,TXD,1*%
%TO.N,TXD*%
%TA.AperFunction,SMDPad,CuDef*%
G36*
G01*
X174263500Y-108968250D02*
X174263500Y-108455750D01*
G75*
G02*
X174482250Y-108237000I218750J0D01*
G01*
X174919750Y-108237000D01*
G75*
G02*
X175138500Y-108455750I0J-218750D01*
G01*
X175138500Y-108968250D01*
G75*
G02*
X174919750Y-109187000I-218750J0D01*
G01*
X174482250Y-109187000D01*
G75*
G02*
X174263500Y-108968250I0J218750D01*
G01*
G37*
%TD.AperFunction*%
%TD*%
%TO.P,RXD,1*%
%TO.N,Net-(D4-Pad1)*%
%TA.AperFunction,SMDPad,CuDef*%
G36*
G01*
X174263500Y-112016250D02*
X174263500Y-111503750D01*
G75*
G02*
X174482250Y-111285000I218750J0D01*
G01*
X174919750Y-111285000D01*
G75*
G02*
X175138500Y-111503750I0J-218750D01*
G01*
X175138500Y-112016250D01*
G75*
G02*
X174919750Y-112235000I-218750J0D01*
G01*
X174482250Y-112235000D01*
G75*
G02*
X174263500Y-112016250I0J218750D01*
G01*
G37*
%TD.AperFunction*%
%TO.P,RXD,2*%
%TO.N,RXD*%
%TA.AperFunction,SMDPad,CuDef*%
G36*
G01*
X175838500Y-112016250D02*
X175838500Y-111503750D01*
G75*
G02*
X176057250Y-111285000I218750J0D01*
G01*
X176494750Y-111285000D01*
G75*
G02*
X176713500Y-111503750I0J-218750D01*
G01*
X176713500Y-112016250D01*
G75*
G02*
X176494750Y-112235000I-218750J0D01*
G01*
X176057250Y-112235000D01*
G75*
G02*
X175838500Y-112016250I0J218750D01*
G01*
G37*
%TD.AperFunction*%
%TD*%
%TO.P,R1,2*%
%TO.N,VDD3V3*%
%TA.AperFunction,SMDPad,CuDef*%
G36*
G01*
X159937000Y-115045500D02*
X159937000Y-114570500D01*
G75*
G02*
X160174500Y-114333000I237500J0D01*
G01*
X160674500Y-114333000D01*
G75*
G02*
X160912000Y-114570500I0J-237500D01*
G01*
X160912000Y-115045500D01*
G75*
G02*
X160674500Y-115283000I-237500J0D01*
G01*
X160174500Y-115283000D01*
G75*
G02*
X159937000Y-115045500I0J237500D01*
G01*
G37*
%TD.AperFunction*%
%TO.P,R1,1*%
%TO.N,Net-(R1-Pad1)*%
%TA.AperFunction,SMDPad,CuDef*%
G36*
G01*
X158112000Y-115045500D02*
X158112000Y-114570500D01*
G75*
G02*
X158349500Y-114333000I237500J0D01*
G01*
X158849500Y-114333000D01*
G75*
G02*
X159087000Y-114570500I0J-237500D01*
G01*
X159087000Y-115045500D01*
G75*
G02*
X158849500Y-115283000I-237500J0D01*
G01*
X158349500Y-115283000D01*
G75*
G02*
X158112000Y-115045500I0J237500D01*
G01*
G37*
%TD.AperFunction*%
%TD*%
%TO.P,R2,1*%
%TO.N,Net-(R2-Pad1)*%
%TA.AperFunction,SMDPad,CuDef*%
G36*
G01*
X158008500Y-118347500D02*
X158008500Y-117872500D01*
G75*
G02*
X158246000Y-117635000I237500J0D01*
G01*
X158746000Y-117635000D01*
G75*
G02*
X158983500Y-117872500I0J-237500D01*
G01*
X158983500Y-118347500D01*
G75*
G02*
X158746000Y-118585000I-237500J0D01*
G01*
X158246000Y-118585000D01*
G75*
G02*
X158008500Y-118347500I0J237500D01*
G01*
G37*
%TD.AperFunction*%
%TO.P,R2,2*%
%TO.N,VDD3V3*%
%TA.AperFunction,SMDPad,CuDef*%
G36*
G01*
X159833500Y-118347500D02*
X159833500Y-117872500D01*
G75*
G02*
X160071000Y-117635000I237500J0D01*
G01*
X160571000Y-117635000D01*
G75*
G02*
X160808500Y-117872500I0J-237500D01*
G01*
X160808500Y-118347500D01*
G75*
G02*
X160571000Y-118585000I-237500J0D01*
G01*
X160071000Y-118585000D01*
G75*
G02*
X159833500Y-118347500I0J237500D01*
G01*
G37*
%TD.AperFunction*%
%TD*%
D18*
%TO.P,D1,1*%
%TO.N,VDD5V*%
X179036000Y-108712000D03*
%TO.P,D1,2*%
%TO.N,VIN*%
X181136000Y-108712000D03*
%TD*%
%TO.P,J1,1*%
%TO.N,VDD3V3*%
%TA.AperFunction,ComponentPad*%
G36*
G01*
X157646000Y-100547000D02*
X157646000Y-99097000D01*
G75*
G02*
X157896000Y-98847000I250000J0D01*
G01*
X159096000Y-98847000D01*
G75*
G02*
X159346000Y-99097000I0J-250000D01*
G01*
X159346000Y-100547000D01*
G75*
G02*
X159096000Y-100797000I-250000J0D01*
G01*
X157896000Y-100797000D01*
G75*
G02*
X157646000Y-100547000I0J250000D01*
G01*
G37*
%TD.AperFunction*%
D19*
%TO.P,J1,2*%
%TO.N,TXD*%
X160996000Y-99822000D03*
%TO.P,J1,3*%
%TO.N,RXD*%
X163496000Y-99822000D03*
%TO.P,J1,4*%
%TO.N,N/C*%
X165996000Y-99822000D03*
%TO.P,J1,5*%
X168496000Y-99822000D03*
%TO.P,J1,6*%
%TO.N,GND*%
X170996000Y-99822000D03*
%TD*%
%TO.P,J4,1*%
%TO.N,VIN*%
%TA.AperFunction,ComponentPad*%
G36*
G01*
X176101000Y-100572000D02*
X176101000Y-99072000D01*
G75*
G02*
X176351000Y-98822000I250000J0D01*
G01*
X177551000Y-98822000D01*
G75*
G02*
X177801000Y-99072000I0J-250000D01*
G01*
X177801000Y-100572000D01*
G75*
G02*
X177551000Y-100822000I-250000J0D01*
G01*
X176351000Y-100822000D01*
G75*
G02*
X176101000Y-100572000I0J250000D01*
G01*
G37*
%TD.AperFunction*%
D20*
%TO.P,J4,2*%
%TO.N,GND*%
X179451000Y-99822000D03*
%TD*%
D21*
%TO.N,VDD5V*%
X177800000Y-105664000D03*
X170942000Y-106426000D03*
X163576000Y-103632000D03*
X159004000Y-103632000D03*
%TO.N,GND*%
X171704000Y-120142000D03*
X171704000Y-110236000D03*
X156210000Y-108204000D03*
X156210000Y-106426000D03*
X156042000Y-120228000D03*
X156210000Y-111252000D03*
%TO.N,VDD3V3*%
X182372000Y-110236000D03*
X171196000Y-108204000D03*
X162052000Y-118110000D03*
X162052000Y-114554000D03*
X162052000Y-110744000D03*
X160528000Y-108204000D03*
%TO.N,SCL*%
X182118000Y-107442000D03*
X157226000Y-112522000D03*
%TO.N,SDA*%
X182372000Y-108712000D03*
X155956000Y-109728000D03*
%TO.N,Net-(D3-Pad2)*%
X155956000Y-105156000D03*
X168656000Y-104140000D03*
%TD*%
D22*
%TO.N,VDD5V*%
X180086000Y-114427000D02*
X180086000Y-110998000D01*
X179036000Y-109948000D02*
X179036000Y-108712000D01*
X180086000Y-110998000D02*
X179036000Y-109948000D01*
X179036000Y-108712000D02*
X179036000Y-106646000D01*
X178054000Y-105664000D02*
X177800000Y-105664000D01*
X179036000Y-106646000D02*
X178054000Y-105664000D01*
X177800000Y-105664000D02*
X176327000Y-105664000D01*
X169636000Y-106426000D02*
X168860000Y-105650000D01*
X170942000Y-106426000D02*
X169636000Y-106426000D01*
X168860000Y-105650000D02*
X166842000Y-103632000D01*
X166842000Y-103632000D02*
X163576000Y-103632000D01*
X159004000Y-103632000D02*
X159004000Y-106426000D01*
%TO.N,GND*%
X165575000Y-120228000D02*
X165697000Y-120106000D01*
X179487000Y-120106000D02*
X180086000Y-119507000D01*
X173647000Y-120106000D02*
X179487000Y-120106000D01*
X184182000Y-115411000D02*
X184182000Y-110466000D01*
X180086000Y-119507000D02*
X184182000Y-115411000D01*
X172250010Y-98567990D02*
X170996000Y-99822000D01*
X178196990Y-98567990D02*
X172250010Y-98567990D01*
X179451000Y-99822000D02*
X178196990Y-98567990D01*
X170996000Y-99822000D02*
X170996000Y-100384000D01*
X170996000Y-99822000D02*
X172466000Y-99822000D01*
X172466000Y-99822000D02*
X173990000Y-101346000D01*
X173990000Y-101346000D02*
X173990000Y-103632000D01*
X174752000Y-104394000D02*
X174752000Y-105664000D01*
X173990000Y-103632000D02*
X174752000Y-104394000D01*
X156042000Y-120228000D02*
X156042000Y-120228000D01*
X153396000Y-120228000D02*
X156042000Y-120228000D01*
X171668000Y-120106000D02*
X171704000Y-120142000D01*
X165697000Y-120106000D02*
X171668000Y-120106000D01*
X171668000Y-120106000D02*
X173647000Y-120106000D01*
X168874000Y-110236000D02*
X168860000Y-110250000D01*
X171704000Y-110236000D02*
X168874000Y-110236000D01*
X184957000Y-110466000D02*
X185928000Y-109495000D01*
X184182000Y-110466000D02*
X184957000Y-110466000D01*
X185928000Y-109495000D02*
X185928000Y-105918000D01*
X185928000Y-105918000D02*
X184658000Y-104648000D01*
X184658000Y-104648000D02*
X182118000Y-104648000D01*
X179451000Y-101981000D02*
X179451000Y-99822000D01*
X182118000Y-104648000D02*
X179451000Y-101981000D01*
X157454000Y-109448000D02*
X156210000Y-108204000D01*
X157454000Y-111252000D02*
X157454000Y-109448000D01*
X156210000Y-106426000D02*
X157454000Y-106426000D01*
X156042000Y-120228000D02*
X165575000Y-120228000D01*
X156210000Y-111252000D02*
X157454000Y-111252000D01*
%TO.N,VDD3V3*%
X163093500Y-107416500D02*
X162560000Y-107950000D01*
X163093500Y-106253300D02*
X163093500Y-107416500D01*
X163093500Y-106253300D02*
X163093500Y-106172000D01*
X162560000Y-107950000D02*
X162560000Y-105918000D01*
X158496000Y-101854000D02*
X158496000Y-99822000D01*
X162560000Y-105918000D02*
X158496000Y-101854000D01*
X183142000Y-109466000D02*
X182372000Y-110236000D01*
X184182000Y-109466000D02*
X183142000Y-109466000D01*
X169114000Y-108204000D02*
X168860000Y-107950000D01*
X171196000Y-108204000D02*
X169114000Y-108204000D01*
X138196000Y-120228000D02*
X150790000Y-120228000D01*
X151544001Y-119473999D02*
X159926001Y-119473999D01*
X150790000Y-120228000D02*
X151544001Y-119473999D01*
X160321000Y-119079000D02*
X160321000Y-118110000D01*
X159926001Y-119473999D02*
X160321000Y-119079000D01*
X160321000Y-118110000D02*
X162052000Y-118110000D01*
X160678500Y-114554000D02*
X160424500Y-114808000D01*
X162052000Y-114554000D02*
X160678500Y-114554000D01*
X162052000Y-108458000D02*
X162560000Y-107950000D01*
X162052000Y-110744000D02*
X162052000Y-108458000D01*
X162306000Y-108204000D02*
X162560000Y-107950000D01*
X160528000Y-108204000D02*
X162306000Y-108204000D01*
X160424500Y-112672500D02*
X159004000Y-111252000D01*
X160424500Y-114808000D02*
X160424500Y-112672500D01*
%TO.N,VIN*%
X181136000Y-108712000D02*
X181136000Y-105444000D01*
X176951000Y-101259000D02*
X176951000Y-99822000D01*
X181136000Y-105444000D02*
X176951000Y-101259000D01*
%TO.N,TXD*%
X160996000Y-102293202D02*
X160996000Y-99822000D01*
X167656799Y-108954001D02*
X160996000Y-102293202D01*
X174458999Y-108954001D02*
X167656799Y-108954001D01*
X174701000Y-108712000D02*
X174458999Y-108954001D01*
%TO.N,RXD*%
X163496000Y-101266000D02*
X163496000Y-99822000D01*
X164084000Y-101854000D02*
X163496000Y-101266000D01*
X167894000Y-101854000D02*
X164084000Y-101854000D01*
X172720000Y-106680000D02*
X167894000Y-101854000D01*
X177038000Y-106680000D02*
X172720000Y-106680000D01*
X177546000Y-109474000D02*
X177546000Y-107188000D01*
X177546000Y-107188000D02*
X177038000Y-106680000D01*
X176276000Y-110744000D02*
X177546000Y-109474000D01*
X176276000Y-111760000D02*
X176276000Y-110744000D01*
%TO.N,DATA*%
X180086000Y-116967000D02*
X156337000Y-116967000D01*
X155598000Y-116228000D02*
X153396000Y-116228000D01*
X156337000Y-116967000D02*
X155598000Y-116228000D01*
%TO.N,SCL*%
X182142000Y-107466000D02*
X182118000Y-107442000D01*
X184182000Y-107466000D02*
X182142000Y-107466000D01*
X153690000Y-112522000D02*
X153396000Y-112228000D01*
X157226000Y-112522000D02*
X153690000Y-112522000D01*
%TO.N,SDA*%
X182618000Y-108466000D02*
X182372000Y-108712000D01*
X184182000Y-108466000D02*
X182618000Y-108466000D01*
X155456000Y-110228000D02*
X153396000Y-110228000D01*
X155956000Y-109728000D02*
X155456000Y-110228000D01*
%TO.N,Net-(D3-Pad2)*%
X153904000Y-106228000D02*
X153396000Y-106228000D01*
X153904000Y-106228000D02*
X153904000Y-106192000D01*
X153904000Y-106192000D02*
X153924000Y-106172000D01*
X176276000Y-108712000D02*
X175113999Y-107549999D01*
X154884000Y-106228000D02*
X153396000Y-106228000D01*
X155956000Y-105156000D02*
X154884000Y-106228000D01*
X169623922Y-104140000D02*
X168656000Y-104140000D01*
X173033921Y-107549999D02*
X169623922Y-104140000D01*
X175113999Y-107549999D02*
X173033921Y-107549999D01*
%TO.N,Net-(D4-Pad1)*%
X158412010Y-107755586D02*
X158131414Y-107474990D01*
X158131414Y-107474990D02*
X154149010Y-107474990D01*
X158412010Y-109253586D02*
X158412010Y-107755586D01*
X160918424Y-111760000D02*
X158412010Y-109253586D01*
X154149010Y-107474990D02*
X153396000Y-108228000D01*
X174701000Y-111760000D02*
X160918424Y-111760000D01*
%TO.N,Net-(R1-Pad1)*%
X139700000Y-106228000D02*
X138196000Y-106228000D01*
X146454001Y-112982001D02*
X139700000Y-106228000D01*
X154638001Y-112982001D02*
X146454001Y-112982001D01*
X156464000Y-114808000D02*
X154638001Y-112982001D01*
X158599500Y-114808000D02*
X156464000Y-114808000D01*
%TO.N,Net-(R2-Pad1)*%
X150407171Y-117473999D02*
X156589999Y-117473999D01*
X143161172Y-110228000D02*
X150407171Y-117473999D01*
X138196000Y-110228000D02*
X143161172Y-110228000D01*
X157226000Y-118110000D02*
X158496000Y-118110000D01*
X156589999Y-117473999D02*
X157226000Y-118110000D01*
%TO.N,Net-(SW2-Pad1)*%
X153522001Y-114228000D02*
X153396000Y-114228000D01*
X154900001Y-115606000D02*
X153522001Y-114228000D01*
X165697000Y-115606000D02*
X154900001Y-115606000D01*
X165697000Y-115606000D02*
X173647000Y-115606000D01*
%TD*%
M02*
