M48
; DRILL file {KiCad (5.1.9)-1} date 05/29/21 10:09:31
; FORMAT={-:-/ absolute / inch / decimal}
; #@! TF.CreationDate,2021-05-29T10:09:31-04:00
; #@! TF.GenerationSoftware,Kicad,Pcbnew,(5.1.9)-1
FMAT,2
INCH
T1C0.0079
T2C0.0374
T3C0.0394
T4C0.1260
%
G90
G05
T1
X6.14Y-4.14
X6.14Y-4.32
X6.1434Y-4.7334
X6.15Y-4.19
X6.15Y-4.26
X6.15Y-4.38
X6.19Y-4.43
X6.26Y-4.08
X6.32Y-4.26
X6.38Y-4.36
X6.38Y-4.51
X6.38Y-4.65
X6.44Y-4.08
X6.64Y-4.1
X6.73Y-4.19
X6.74Y-4.26
X6.76Y-4.34
X6.76Y-4.73
X7.0Y-4.16
X7.17Y-4.23
X7.18Y-4.28
X7.18Y-4.34
T2
X6.24Y-3.93
X6.3384Y-3.93
X6.4369Y-3.93
X6.5353Y-3.93
X6.6337Y-3.93
X6.7321Y-3.93
T3
X6.9666Y-3.93
X7.065Y-3.93
X7.09Y-4.505
X7.09Y-4.605
X7.09Y-4.705
T4
X5.23Y-3.98
X5.23Y-4.75
X7.29Y-3.98
X7.29Y-4.75
T0
M30
