%TF.GenerationSoftware,KiCad,Pcbnew,(5.1.9)-1*%
%TF.CreationDate,2021-06-08T21:04:25-04:00*%
%TF.ProjectId,wled,776c6564-2e6b-4696-9361-645f70636258,rev?*%
%TF.SameCoordinates,Original*%
%TF.FileFunction,Legend,Top*%
%TF.FilePolarity,Positive*%
%FSLAX46Y46*%
G04 Gerber Fmt 4.6, Leading zero omitted, Abs format (unit mm)*
G04 Created by KiCad (PCBNEW (5.1.9)-1) date 2021-06-08 21:04:25*
%MOMM*%
%LPD*%
G01*
G04 APERTURE LIST*
%ADD10C,0.150000*%
%ADD11C,0.120000*%
G04 APERTURE END LIST*
D10*
X156797523Y-104100380D02*
X157416571Y-104100380D01*
X157083238Y-104481333D01*
X157226095Y-104481333D01*
X157321333Y-104528952D01*
X157368952Y-104576571D01*
X157416571Y-104671809D01*
X157416571Y-104909904D01*
X157368952Y-105005142D01*
X157321333Y-105052761D01*
X157226095Y-105100380D01*
X156940380Y-105100380D01*
X156845142Y-105052761D01*
X156797523Y-105005142D01*
X157749904Y-104433714D02*
X157988000Y-105100380D01*
X158226095Y-104433714D01*
X158511809Y-104100380D02*
X159130857Y-104100380D01*
X158797523Y-104481333D01*
X158940380Y-104481333D01*
X159035619Y-104528952D01*
X159083238Y-104576571D01*
X159130857Y-104671809D01*
X159130857Y-104909904D01*
X159083238Y-105005142D01*
X159035619Y-105052761D01*
X158940380Y-105100380D01*
X158654666Y-105100380D01*
X158559428Y-105052761D01*
X158511809Y-105005142D01*
X157544666Y-122578761D02*
X157449428Y-122626380D01*
X157258952Y-122626380D01*
X157163714Y-122578761D01*
X157116095Y-122483523D01*
X157116095Y-122102571D01*
X157163714Y-122007333D01*
X157258952Y-121959714D01*
X157449428Y-121959714D01*
X157544666Y-122007333D01*
X157592285Y-122102571D01*
X157592285Y-122197809D01*
X157116095Y-122293047D01*
X157973238Y-122578761D02*
X158068476Y-122626380D01*
X158258952Y-122626380D01*
X158354190Y-122578761D01*
X158401809Y-122483523D01*
X158401809Y-122435904D01*
X158354190Y-122340666D01*
X158258952Y-122293047D01*
X158116095Y-122293047D01*
X158020857Y-122245428D01*
X157973238Y-122150190D01*
X157973238Y-122102571D01*
X158020857Y-122007333D01*
X158116095Y-121959714D01*
X158258952Y-121959714D01*
X158354190Y-122007333D01*
X158830380Y-121959714D02*
X158830380Y-122959714D01*
X158830380Y-122007333D02*
X158925619Y-121959714D01*
X159116095Y-121959714D01*
X159211333Y-122007333D01*
X159258952Y-122054952D01*
X159306571Y-122150190D01*
X159306571Y-122435904D01*
X159258952Y-122531142D01*
X159211333Y-122578761D01*
X159116095Y-122626380D01*
X158925619Y-122626380D01*
X158830380Y-122578761D01*
X159878000Y-122054952D02*
X159782761Y-122007333D01*
X159735142Y-121959714D01*
X159687523Y-121864476D01*
X159687523Y-121816857D01*
X159735142Y-121721619D01*
X159782761Y-121674000D01*
X159878000Y-121626380D01*
X160068476Y-121626380D01*
X160163714Y-121674000D01*
X160211333Y-121721619D01*
X160258952Y-121816857D01*
X160258952Y-121864476D01*
X160211333Y-121959714D01*
X160163714Y-122007333D01*
X160068476Y-122054952D01*
X159878000Y-122054952D01*
X159782761Y-122102571D01*
X159735142Y-122150190D01*
X159687523Y-122245428D01*
X159687523Y-122435904D01*
X159735142Y-122531142D01*
X159782761Y-122578761D01*
X159878000Y-122626380D01*
X160068476Y-122626380D01*
X160163714Y-122578761D01*
X160211333Y-122531142D01*
X160258952Y-122435904D01*
X160258952Y-122245428D01*
X160211333Y-122150190D01*
X160163714Y-122102571D01*
X160068476Y-122054952D01*
X160639904Y-121721619D02*
X160687523Y-121674000D01*
X160782761Y-121626380D01*
X161020857Y-121626380D01*
X161116095Y-121674000D01*
X161163714Y-121721619D01*
X161211333Y-121816857D01*
X161211333Y-121912095D01*
X161163714Y-122054952D01*
X160592285Y-122626380D01*
X161211333Y-122626380D01*
X162068476Y-121626380D02*
X161878000Y-121626380D01*
X161782761Y-121674000D01*
X161735142Y-121721619D01*
X161639904Y-121864476D01*
X161592285Y-122054952D01*
X161592285Y-122435904D01*
X161639904Y-122531142D01*
X161687523Y-122578761D01*
X161782761Y-122626380D01*
X161973238Y-122626380D01*
X162068476Y-122578761D01*
X162116095Y-122531142D01*
X162163714Y-122435904D01*
X162163714Y-122197809D01*
X162116095Y-122102571D01*
X162068476Y-122054952D01*
X161973238Y-122007333D01*
X161782761Y-122007333D01*
X161687523Y-122054952D01*
X161639904Y-122102571D01*
X161592285Y-122197809D01*
X163020857Y-121626380D02*
X162830380Y-121626380D01*
X162735142Y-121674000D01*
X162687523Y-121721619D01*
X162592285Y-121864476D01*
X162544666Y-122054952D01*
X162544666Y-122435904D01*
X162592285Y-122531142D01*
X162639904Y-122578761D01*
X162735142Y-122626380D01*
X162925619Y-122626380D01*
X163020857Y-122578761D01*
X163068476Y-122531142D01*
X163116095Y-122435904D01*
X163116095Y-122197809D01*
X163068476Y-122102571D01*
X163020857Y-122054952D01*
X162925619Y-122007333D01*
X162735142Y-122007333D01*
X162639904Y-122054952D01*
X162592285Y-122102571D01*
X162544666Y-122197809D01*
X164211333Y-121959714D02*
X164401809Y-122626380D01*
X164592285Y-122150190D01*
X164782761Y-122626380D01*
X164973238Y-121959714D01*
X165830380Y-122626380D02*
X165354190Y-122626380D01*
X165354190Y-121626380D01*
X166163714Y-122102571D02*
X166497047Y-122102571D01*
X166639904Y-122626380D02*
X166163714Y-122626380D01*
X166163714Y-121626380D01*
X166639904Y-121626380D01*
X167068476Y-122626380D02*
X167068476Y-121626380D01*
X167306571Y-121626380D01*
X167449428Y-121674000D01*
X167544666Y-121769238D01*
X167592285Y-121864476D01*
X167639904Y-122054952D01*
X167639904Y-122197809D01*
X167592285Y-122388285D01*
X167544666Y-122483523D01*
X167449428Y-122578761D01*
X167306571Y-122626380D01*
X167068476Y-122626380D01*
X169163714Y-122102571D02*
X169306571Y-122150190D01*
X169354190Y-122197809D01*
X169401809Y-122293047D01*
X169401809Y-122435904D01*
X169354190Y-122531142D01*
X169306571Y-122578761D01*
X169211333Y-122626380D01*
X168830380Y-122626380D01*
X168830380Y-121626380D01*
X169163714Y-121626380D01*
X169258952Y-121674000D01*
X169306571Y-121721619D01*
X169354190Y-121816857D01*
X169354190Y-121912095D01*
X169306571Y-122007333D01*
X169258952Y-122054952D01*
X169163714Y-122102571D01*
X168830380Y-122102571D01*
X169973238Y-122626380D02*
X169878000Y-122578761D01*
X169830380Y-122531142D01*
X169782761Y-122435904D01*
X169782761Y-122150190D01*
X169830380Y-122054952D01*
X169878000Y-122007333D01*
X169973238Y-121959714D01*
X170116095Y-121959714D01*
X170211333Y-122007333D01*
X170258952Y-122054952D01*
X170306571Y-122150190D01*
X170306571Y-122435904D01*
X170258952Y-122531142D01*
X170211333Y-122578761D01*
X170116095Y-122626380D01*
X169973238Y-122626380D01*
X171163714Y-122626380D02*
X171163714Y-122102571D01*
X171116095Y-122007333D01*
X171020857Y-121959714D01*
X170830380Y-121959714D01*
X170735142Y-122007333D01*
X171163714Y-122578761D02*
X171068476Y-122626380D01*
X170830380Y-122626380D01*
X170735142Y-122578761D01*
X170687523Y-122483523D01*
X170687523Y-122388285D01*
X170735142Y-122293047D01*
X170830380Y-122245428D01*
X171068476Y-122245428D01*
X171163714Y-122197809D01*
X171639904Y-122626380D02*
X171639904Y-121959714D01*
X171639904Y-122150190D02*
X171687523Y-122054952D01*
X171735142Y-122007333D01*
X171830380Y-121959714D01*
X171925619Y-121959714D01*
X172687523Y-122626380D02*
X172687523Y-121626380D01*
X172687523Y-122578761D02*
X172592285Y-122626380D01*
X172401809Y-122626380D01*
X172306571Y-122578761D01*
X172258952Y-122531142D01*
X172211333Y-122435904D01*
X172211333Y-122150190D01*
X172258952Y-122054952D01*
X172306571Y-122007333D01*
X172401809Y-121959714D01*
X172592285Y-121959714D01*
X172687523Y-122007333D01*
X173830380Y-121959714D02*
X174068476Y-122626380D01*
X174306571Y-121959714D01*
X174878000Y-121626380D02*
X174973238Y-121626380D01*
X175068476Y-121674000D01*
X175116095Y-121721619D01*
X175163714Y-121816857D01*
X175211333Y-122007333D01*
X175211333Y-122245428D01*
X175163714Y-122435904D01*
X175116095Y-122531142D01*
X175068476Y-122578761D01*
X174973238Y-122626380D01*
X174878000Y-122626380D01*
X174782761Y-122578761D01*
X174735142Y-122531142D01*
X174687523Y-122435904D01*
X174639904Y-122245428D01*
X174639904Y-122007333D01*
X174687523Y-121816857D01*
X174735142Y-121721619D01*
X174782761Y-121674000D01*
X174878000Y-121626380D01*
X175639904Y-122531142D02*
X175687523Y-122578761D01*
X175639904Y-122626380D01*
X175592285Y-122578761D01*
X175639904Y-122531142D01*
X175639904Y-122626380D01*
X176020857Y-121626380D02*
X176639904Y-121626380D01*
X176306571Y-122007333D01*
X176449428Y-122007333D01*
X176544666Y-122054952D01*
X176592285Y-122102571D01*
X176639904Y-122197809D01*
X176639904Y-122435904D01*
X176592285Y-122531142D01*
X176544666Y-122578761D01*
X176449428Y-122626380D01*
X176163714Y-122626380D01*
X176068476Y-122578761D01*
X176020857Y-122531142D01*
X157449619Y-123737714D02*
X157449619Y-124547238D01*
X157402000Y-124642476D01*
X157354380Y-124690095D01*
X157259142Y-124737714D01*
X157116285Y-124737714D01*
X157021047Y-124690095D01*
X157449619Y-124356761D02*
X157354380Y-124404380D01*
X157163904Y-124404380D01*
X157068666Y-124356761D01*
X157021047Y-124309142D01*
X156973428Y-124213904D01*
X156973428Y-123928190D01*
X157021047Y-123832952D01*
X157068666Y-123785333D01*
X157163904Y-123737714D01*
X157354380Y-123737714D01*
X157449619Y-123785333D01*
X157925809Y-124404380D02*
X157925809Y-123737714D01*
X157925809Y-123404380D02*
X157878190Y-123452000D01*
X157925809Y-123499619D01*
X157973428Y-123452000D01*
X157925809Y-123404380D01*
X157925809Y-123499619D01*
X158259142Y-123737714D02*
X158640095Y-123737714D01*
X158402000Y-123404380D02*
X158402000Y-124261523D01*
X158449619Y-124356761D01*
X158544857Y-124404380D01*
X158640095Y-124404380D01*
X158973428Y-124404380D02*
X158973428Y-123404380D01*
X159402000Y-124404380D02*
X159402000Y-123880571D01*
X159354380Y-123785333D01*
X159259142Y-123737714D01*
X159116285Y-123737714D01*
X159021047Y-123785333D01*
X158973428Y-123832952D01*
X160306761Y-123737714D02*
X160306761Y-124404380D01*
X159878190Y-123737714D02*
X159878190Y-124261523D01*
X159925809Y-124356761D01*
X160021047Y-124404380D01*
X160163904Y-124404380D01*
X160259142Y-124356761D01*
X160306761Y-124309142D01*
X160782952Y-124404380D02*
X160782952Y-123404380D01*
X160782952Y-123785333D02*
X160878190Y-123737714D01*
X161068666Y-123737714D01*
X161163904Y-123785333D01*
X161211523Y-123832952D01*
X161259142Y-123928190D01*
X161259142Y-124213904D01*
X161211523Y-124309142D01*
X161163904Y-124356761D01*
X161068666Y-124404380D01*
X160878190Y-124404380D01*
X160782952Y-124356761D01*
X161687714Y-124309142D02*
X161735333Y-124356761D01*
X161687714Y-124404380D01*
X161640095Y-124356761D01*
X161687714Y-124309142D01*
X161687714Y-124404380D01*
X162592476Y-124356761D02*
X162497238Y-124404380D01*
X162306761Y-124404380D01*
X162211523Y-124356761D01*
X162163904Y-124309142D01*
X162116285Y-124213904D01*
X162116285Y-123928190D01*
X162163904Y-123832952D01*
X162211523Y-123785333D01*
X162306761Y-123737714D01*
X162497238Y-123737714D01*
X162592476Y-123785333D01*
X163163904Y-124404380D02*
X163068666Y-124356761D01*
X163021047Y-124309142D01*
X162973428Y-124213904D01*
X162973428Y-123928190D01*
X163021047Y-123832952D01*
X163068666Y-123785333D01*
X163163904Y-123737714D01*
X163306761Y-123737714D01*
X163402000Y-123785333D01*
X163449619Y-123832952D01*
X163497238Y-123928190D01*
X163497238Y-124213904D01*
X163449619Y-124309142D01*
X163402000Y-124356761D01*
X163306761Y-124404380D01*
X163163904Y-124404380D01*
X163925809Y-124404380D02*
X163925809Y-123737714D01*
X163925809Y-123832952D02*
X163973428Y-123785333D01*
X164068666Y-123737714D01*
X164211523Y-123737714D01*
X164306761Y-123785333D01*
X164354380Y-123880571D01*
X164354380Y-124404380D01*
X164354380Y-123880571D02*
X164402000Y-123785333D01*
X164497238Y-123737714D01*
X164640095Y-123737714D01*
X164735333Y-123785333D01*
X164782952Y-123880571D01*
X164782952Y-124404380D01*
X165973428Y-123356761D02*
X165116285Y-124642476D01*
X166735333Y-123737714D02*
X166735333Y-124547238D01*
X166687714Y-124642476D01*
X166640095Y-124690095D01*
X166544857Y-124737714D01*
X166402000Y-124737714D01*
X166306761Y-124690095D01*
X166735333Y-124356761D02*
X166640095Y-124404380D01*
X166449619Y-124404380D01*
X166354380Y-124356761D01*
X166306761Y-124309142D01*
X166259142Y-124213904D01*
X166259142Y-123928190D01*
X166306761Y-123832952D01*
X166354380Y-123785333D01*
X166449619Y-123737714D01*
X166640095Y-123737714D01*
X166735333Y-123785333D01*
X167211523Y-124404380D02*
X167211523Y-123737714D01*
X167211523Y-123832952D02*
X167259142Y-123785333D01*
X167354380Y-123737714D01*
X167497238Y-123737714D01*
X167592476Y-123785333D01*
X167640095Y-123880571D01*
X167640095Y-124404380D01*
X167640095Y-123880571D02*
X167687714Y-123785333D01*
X167782952Y-123737714D01*
X167925809Y-123737714D01*
X168021047Y-123785333D01*
X168068666Y-123880571D01*
X168068666Y-124404380D01*
X168973428Y-124404380D02*
X168973428Y-123880571D01*
X168925809Y-123785333D01*
X168830571Y-123737714D01*
X168640095Y-123737714D01*
X168544857Y-123785333D01*
X168973428Y-124356761D02*
X168878190Y-124404380D01*
X168640095Y-124404380D01*
X168544857Y-124356761D01*
X168497238Y-124261523D01*
X168497238Y-124166285D01*
X168544857Y-124071047D01*
X168640095Y-124023428D01*
X168878190Y-124023428D01*
X168973428Y-123975809D01*
X169878190Y-124356761D02*
X169782952Y-124404380D01*
X169592476Y-124404380D01*
X169497238Y-124356761D01*
X169449619Y-124309142D01*
X169402000Y-124213904D01*
X169402000Y-123928190D01*
X169449619Y-123832952D01*
X169497238Y-123785333D01*
X169592476Y-123737714D01*
X169782952Y-123737714D01*
X169878190Y-123785333D01*
X170306761Y-124404380D02*
X170306761Y-123404380D01*
X170402000Y-124023428D02*
X170687714Y-124404380D01*
X170687714Y-123737714D02*
X170306761Y-124118666D01*
X171116285Y-124404380D02*
X171116285Y-123737714D01*
X171116285Y-123404380D02*
X171068666Y-123452000D01*
X171116285Y-123499619D01*
X171163904Y-123452000D01*
X171116285Y-123404380D01*
X171116285Y-123499619D01*
X171973428Y-124356761D02*
X171878190Y-124404380D01*
X171687714Y-124404380D01*
X171592476Y-124356761D01*
X171544857Y-124261523D01*
X171544857Y-123880571D01*
X171592476Y-123785333D01*
X171687714Y-123737714D01*
X171878190Y-123737714D01*
X171973428Y-123785333D01*
X172021047Y-123880571D01*
X172021047Y-123975809D01*
X171544857Y-124071047D01*
X173163904Y-123356761D02*
X172306761Y-124642476D01*
X173402000Y-123737714D02*
X173592476Y-124404380D01*
X173782952Y-123928190D01*
X173973428Y-124404380D01*
X174163904Y-123737714D01*
X174687714Y-124404380D02*
X174592476Y-124356761D01*
X174544857Y-124261523D01*
X174544857Y-123404380D01*
X175449619Y-124356761D02*
X175354380Y-124404380D01*
X175163904Y-124404380D01*
X175068666Y-124356761D01*
X175021047Y-124261523D01*
X175021047Y-123880571D01*
X175068666Y-123785333D01*
X175163904Y-123737714D01*
X175354380Y-123737714D01*
X175449619Y-123785333D01*
X175497238Y-123880571D01*
X175497238Y-123975809D01*
X175021047Y-124071047D01*
X176354380Y-124404380D02*
X176354380Y-123404380D01*
X176354380Y-124356761D02*
X176259142Y-124404380D01*
X176068666Y-124404380D01*
X175973428Y-124356761D01*
X175925809Y-124309142D01*
X175878190Y-124213904D01*
X175878190Y-123928190D01*
X175925809Y-123832952D01*
X175973428Y-123785333D01*
X176068666Y-123737714D01*
X176259142Y-123737714D01*
X176354380Y-123785333D01*
X176592476Y-124499619D02*
X177354380Y-124499619D01*
X177592476Y-123737714D02*
X177592476Y-124737714D01*
X177592476Y-123785333D02*
X177687714Y-123737714D01*
X177878190Y-123737714D01*
X177973428Y-123785333D01*
X178021047Y-123832952D01*
X178068666Y-123928190D01*
X178068666Y-124213904D01*
X178021047Y-124309142D01*
X177973428Y-124356761D01*
X177878190Y-124404380D01*
X177687714Y-124404380D01*
X177592476Y-124356761D01*
X178925809Y-124356761D02*
X178830571Y-124404380D01*
X178640095Y-124404380D01*
X178544857Y-124356761D01*
X178497238Y-124309142D01*
X178449619Y-124213904D01*
X178449619Y-123928190D01*
X178497238Y-123832952D01*
X178544857Y-123785333D01*
X178640095Y-123737714D01*
X178830571Y-123737714D01*
X178925809Y-123785333D01*
X179354380Y-124404380D02*
X179354380Y-123404380D01*
X179354380Y-123785333D02*
X179449619Y-123737714D01*
X179640095Y-123737714D01*
X179735333Y-123785333D01*
X179782952Y-123832952D01*
X179830571Y-123928190D01*
X179830571Y-124213904D01*
X179782952Y-124309142D01*
X179735333Y-124356761D01*
X179640095Y-124404380D01*
X179449619Y-124404380D01*
X179354380Y-124356761D01*
X170807142Y-103894000D02*
X170711904Y-103846380D01*
X170569047Y-103846380D01*
X170426190Y-103894000D01*
X170330952Y-103989238D01*
X170283333Y-104084476D01*
X170235714Y-104274952D01*
X170235714Y-104417809D01*
X170283333Y-104608285D01*
X170330952Y-104703523D01*
X170426190Y-104798761D01*
X170569047Y-104846380D01*
X170664285Y-104846380D01*
X170807142Y-104798761D01*
X170854761Y-104751142D01*
X170854761Y-104417809D01*
X170664285Y-104417809D01*
X171283333Y-104179714D02*
X171283333Y-104846380D01*
X171283333Y-104274952D02*
X171330952Y-104227333D01*
X171426190Y-104179714D01*
X171569047Y-104179714D01*
X171664285Y-104227333D01*
X171711904Y-104322571D01*
X171711904Y-104846380D01*
X172616666Y-104846380D02*
X172616666Y-103846380D01*
X172616666Y-104798761D02*
X172521428Y-104846380D01*
X172330952Y-104846380D01*
X172235714Y-104798761D01*
X172188095Y-104751142D01*
X172140476Y-104655904D01*
X172140476Y-104370190D01*
X172188095Y-104274952D01*
X172235714Y-104227333D01*
X172330952Y-104179714D01*
X172521428Y-104179714D01*
X172616666Y-104227333D01*
X181165523Y-116292380D02*
X180689333Y-116292380D01*
X180641714Y-116768571D01*
X180689333Y-116720952D01*
X180784571Y-116673333D01*
X181022666Y-116673333D01*
X181117904Y-116720952D01*
X181165523Y-116768571D01*
X181213142Y-116863809D01*
X181213142Y-117101904D01*
X181165523Y-117197142D01*
X181117904Y-117244761D01*
X181022666Y-117292380D01*
X180784571Y-117292380D01*
X180689333Y-117244761D01*
X180641714Y-117197142D01*
X181498857Y-116292380D02*
X181832190Y-117292380D01*
X182165523Y-116292380D01*
X182951619Y-117292380D02*
X182951619Y-116292380D01*
X183189714Y-116292380D01*
X183332571Y-116340000D01*
X183427809Y-116435238D01*
X183475428Y-116530476D01*
X183523047Y-116720952D01*
X183523047Y-116863809D01*
X183475428Y-117054285D01*
X183427809Y-117149523D01*
X183332571Y-117244761D01*
X183189714Y-117292380D01*
X182951619Y-117292380D01*
X184380190Y-117292380D02*
X184380190Y-116768571D01*
X184332571Y-116673333D01*
X184237333Y-116625714D01*
X184046857Y-116625714D01*
X183951619Y-116673333D01*
X184380190Y-117244761D02*
X184284952Y-117292380D01*
X184046857Y-117292380D01*
X183951619Y-117244761D01*
X183904000Y-117149523D01*
X183904000Y-117054285D01*
X183951619Y-116959047D01*
X184046857Y-116911428D01*
X184284952Y-116911428D01*
X184380190Y-116863809D01*
X184713523Y-116625714D02*
X185094476Y-116625714D01*
X184856380Y-116292380D02*
X184856380Y-117149523D01*
X184904000Y-117244761D01*
X184999238Y-117292380D01*
X185094476Y-117292380D01*
X185856380Y-117292380D02*
X185856380Y-116768571D01*
X185808761Y-116673333D01*
X185713523Y-116625714D01*
X185523047Y-116625714D01*
X185427809Y-116673333D01*
X185856380Y-117244761D02*
X185761142Y-117292380D01*
X185523047Y-117292380D01*
X185427809Y-117244761D01*
X185380190Y-117149523D01*
X185380190Y-117054285D01*
X185427809Y-116959047D01*
X185523047Y-116911428D01*
X185761142Y-116911428D01*
X185856380Y-116863809D01*
X175895047Y-104211428D02*
X176656952Y-104211428D01*
X179451047Y-103957428D02*
X180212952Y-103957428D01*
X179832000Y-104338380D02*
X179832000Y-103576476D01*
D11*
%TO.C,J4*%
X182428000Y-103588000D02*
X182428000Y-102338000D01*
X181178000Y-103588000D02*
X182428000Y-103588000D01*
X175278000Y-98088000D02*
X178328000Y-98088000D01*
X175278000Y-101038000D02*
X175278000Y-98088000D01*
X174528000Y-101038000D02*
X175278000Y-101038000D01*
X181378000Y-98088000D02*
X178328000Y-98088000D01*
X181378000Y-101038000D02*
X181378000Y-98088000D01*
X182128000Y-101038000D02*
X181378000Y-101038000D01*
X174528000Y-103288000D02*
X176328000Y-103288000D01*
X174528000Y-102538000D02*
X174528000Y-103288000D01*
X176328000Y-102538000D02*
X174528000Y-102538000D01*
X176328000Y-103288000D02*
X176328000Y-102538000D01*
X180328000Y-103288000D02*
X182128000Y-103288000D01*
X180328000Y-102538000D02*
X180328000Y-103288000D01*
X182128000Y-102538000D02*
X180328000Y-102538000D01*
X182128000Y-103288000D02*
X182128000Y-102538000D01*
X177828000Y-103288000D02*
X178828000Y-103288000D01*
X177828000Y-102538000D02*
X177828000Y-103288000D01*
X178828000Y-102538000D02*
X177828000Y-102538000D01*
X178828000Y-103288000D02*
X178828000Y-102538000D01*
X174518000Y-103298000D02*
X182138000Y-103298000D01*
X174518000Y-97328000D02*
X174518000Y-103298000D01*
X182138000Y-97328000D02*
X174518000Y-97328000D01*
X182138000Y-103298000D02*
X182138000Y-97328000D01*
%TO.C,SW2*%
X170332000Y-114656000D02*
X170332000Y-114406000D01*
X170332000Y-114406000D02*
X176632000Y-114406000D01*
X176632000Y-114406000D02*
X176632000Y-114656000D01*
X170332000Y-119156000D02*
X170332000Y-116556000D01*
X176632000Y-121056000D02*
X176632000Y-121306000D01*
X176632000Y-121306000D02*
X170332000Y-121306000D01*
X170332000Y-121306000D02*
X170332000Y-121056000D01*
X176632000Y-116556000D02*
X176632000Y-119156000D01*
%TO.C,J3*%
X188867000Y-110906000D02*
X188867000Y-107026000D01*
X184397000Y-105856000D02*
X184397000Y-106906000D01*
X186897000Y-105856000D02*
X184397000Y-105856000D01*
X184397000Y-111026000D02*
X183407000Y-111026000D01*
X184397000Y-112076000D02*
X184397000Y-111026000D01*
X186897000Y-112076000D02*
X184397000Y-112076000D01*
%TO.C,U2*%
X169810000Y-111360000D02*
X163800000Y-111360000D01*
X167560000Y-104540000D02*
X163800000Y-104540000D01*
X163800000Y-111360000D02*
X163800000Y-110100000D01*
X163800000Y-104540000D02*
X163800000Y-105800000D01*
%TO.C,U1*%
X137676000Y-105228000D02*
X137066000Y-105228000D01*
X137676000Y-105228000D02*
X137676000Y-97608000D01*
X137676000Y-121848000D02*
X137676000Y-121228000D01*
X139796000Y-121848000D02*
X137676000Y-121848000D01*
X153916000Y-121848000D02*
X151796000Y-121848000D01*
X153916000Y-121228000D02*
X153916000Y-121848000D01*
X153916000Y-97608000D02*
X153916000Y-105228000D01*
X137676000Y-97608000D02*
X153916000Y-97608000D01*
%TO.C,D2*%
X177735500Y-104929000D02*
X175450500Y-104929000D01*
X177735500Y-106399000D02*
X177735500Y-104929000D01*
X175450500Y-106399000D02*
X177735500Y-106399000D01*
%TO.C,C2*%
X158623580Y-109472000D02*
X158342420Y-109472000D01*
X158623580Y-110492000D02*
X158342420Y-110492000D01*
%TO.C,C1*%
X158623580Y-112012000D02*
X158342420Y-112012000D01*
X158623580Y-113032000D02*
X158342420Y-113032000D01*
%TO.C,J2*%
X180280000Y-116138000D02*
X180280000Y-114808000D01*
X181610000Y-116138000D02*
X180280000Y-116138000D01*
X182880000Y-116138000D02*
X182880000Y-113478000D01*
X182880000Y-113478000D02*
X188020000Y-113478000D01*
X182880000Y-116138000D02*
X188020000Y-116138000D01*
X188020000Y-116138000D02*
X188020000Y-113478000D01*
%TO.C,D3*%
X175450500Y-109193000D02*
X177735500Y-109193000D01*
X177735500Y-109193000D02*
X177735500Y-107723000D01*
X177735500Y-107723000D02*
X175450500Y-107723000D01*
%TO.C,D4*%
X177989500Y-110517000D02*
X175704500Y-110517000D01*
X177989500Y-111987000D02*
X177989500Y-110517000D01*
X175704500Y-111987000D02*
X177989500Y-111987000D01*
%TO.C,R1*%
X158090776Y-105903500D02*
X158600224Y-105903500D01*
X158090776Y-106948500D02*
X158600224Y-106948500D01*
%TO.C,R2*%
X158090776Y-108726500D02*
X158600224Y-108726500D01*
X158090776Y-107681500D02*
X158600224Y-107681500D01*
%TO.C,D1*%
X179236000Y-110212000D02*
X179236000Y-107662000D01*
X180936000Y-110212000D02*
X180936000Y-107662000D01*
X179236000Y-110212000D02*
X180936000Y-110212000D01*
%TO.C,J1*%
X155512000Y-97072000D02*
X155512000Y-98322000D01*
X156762000Y-97072000D02*
X155512000Y-97072000D01*
X172662000Y-102572000D02*
X164612000Y-102572000D01*
X172662000Y-99622000D02*
X172662000Y-102572000D01*
X173412000Y-99622000D02*
X172662000Y-99622000D01*
X156562000Y-102572000D02*
X164612000Y-102572000D01*
X156562000Y-99622000D02*
X156562000Y-102572000D01*
X155812000Y-99622000D02*
X156562000Y-99622000D01*
X173412000Y-97372000D02*
X171612000Y-97372000D01*
X173412000Y-98122000D02*
X173412000Y-97372000D01*
X171612000Y-98122000D02*
X173412000Y-98122000D01*
X171612000Y-97372000D02*
X171612000Y-98122000D01*
X157612000Y-97372000D02*
X155812000Y-97372000D01*
X157612000Y-98122000D02*
X157612000Y-97372000D01*
X155812000Y-98122000D02*
X157612000Y-98122000D01*
X155812000Y-97372000D02*
X155812000Y-98122000D01*
X170112000Y-97372000D02*
X159112000Y-97372000D01*
X170112000Y-98122000D02*
X170112000Y-97372000D01*
X159112000Y-98122000D02*
X170112000Y-98122000D01*
X159112000Y-97372000D02*
X159112000Y-98122000D01*
X173422000Y-97362000D02*
X155802000Y-97362000D01*
X173422000Y-103332000D02*
X173422000Y-97362000D01*
X155802000Y-103332000D02*
X173422000Y-103332000D01*
X155802000Y-97362000D02*
X155802000Y-103332000D01*
%TO.C,R3*%
X172107776Y-105649500D02*
X172617224Y-105649500D01*
X172107776Y-106694500D02*
X172617224Y-106694500D01*
%TO.C,R4*%
X172107776Y-107935500D02*
X172617224Y-107935500D01*
X172107776Y-108980500D02*
X172617224Y-108980500D01*
%TO.C,R5*%
X172617224Y-110729500D02*
X172107776Y-110729500D01*
X172617224Y-111774500D02*
X172107776Y-111774500D01*
%TO.C,SW1*%
X165964000Y-116556000D02*
X165964000Y-119156000D01*
X159664000Y-121306000D02*
X159664000Y-121056000D01*
X165964000Y-121306000D02*
X159664000Y-121306000D01*
X165964000Y-121056000D02*
X165964000Y-121306000D01*
X159664000Y-119156000D02*
X159664000Y-116556000D01*
X165964000Y-114406000D02*
X165964000Y-114656000D01*
X159664000Y-114406000D02*
X165964000Y-114406000D01*
X159664000Y-114656000D02*
X159664000Y-114406000D01*
%TO.C,SW2*%
D10*
X172148666Y-113760761D02*
X172291523Y-113808380D01*
X172529619Y-113808380D01*
X172624857Y-113760761D01*
X172672476Y-113713142D01*
X172720095Y-113617904D01*
X172720095Y-113522666D01*
X172672476Y-113427428D01*
X172624857Y-113379809D01*
X172529619Y-113332190D01*
X172339142Y-113284571D01*
X172243904Y-113236952D01*
X172196285Y-113189333D01*
X172148666Y-113094095D01*
X172148666Y-112998857D01*
X172196285Y-112903619D01*
X172243904Y-112856000D01*
X172339142Y-112808380D01*
X172577238Y-112808380D01*
X172720095Y-112856000D01*
X173053428Y-112808380D02*
X173291523Y-113808380D01*
X173482000Y-113094095D01*
X173672476Y-113808380D01*
X173910571Y-112808380D01*
X174243904Y-112903619D02*
X174291523Y-112856000D01*
X174386761Y-112808380D01*
X174624857Y-112808380D01*
X174720095Y-112856000D01*
X174767714Y-112903619D01*
X174815333Y-112998857D01*
X174815333Y-113094095D01*
X174767714Y-113236952D01*
X174196285Y-113808380D01*
X174815333Y-113808380D01*
%TO.C,J3*%
X183054666Y-104862380D02*
X183054666Y-105576666D01*
X183007047Y-105719523D01*
X182911809Y-105814761D01*
X182768952Y-105862380D01*
X182673714Y-105862380D01*
X183435619Y-104862380D02*
X184054666Y-104862380D01*
X183721333Y-105243333D01*
X183864190Y-105243333D01*
X183959428Y-105290952D01*
X184007047Y-105338571D01*
X184054666Y-105433809D01*
X184054666Y-105671904D01*
X184007047Y-105767142D01*
X183959428Y-105814761D01*
X183864190Y-105862380D01*
X183578476Y-105862380D01*
X183483238Y-105814761D01*
X183435619Y-105767142D01*
%TO.C,U2*%
X164948095Y-111902380D02*
X164948095Y-112711904D01*
X164995714Y-112807142D01*
X165043333Y-112854761D01*
X165138571Y-112902380D01*
X165329047Y-112902380D01*
X165424285Y-112854761D01*
X165471904Y-112807142D01*
X165519523Y-112711904D01*
X165519523Y-111902380D01*
X165948095Y-111997619D02*
X165995714Y-111950000D01*
X166090952Y-111902380D01*
X166329047Y-111902380D01*
X166424285Y-111950000D01*
X166471904Y-111997619D01*
X166519523Y-112092857D01*
X166519523Y-112188095D01*
X166471904Y-112330952D01*
X165900476Y-112902380D01*
X166519523Y-112902380D01*
%TO.C,D2*%
X175512404Y-107546380D02*
X175512404Y-106546380D01*
X175750500Y-106546380D01*
X175893357Y-106594000D01*
X175988595Y-106689238D01*
X176036214Y-106784476D01*
X176083833Y-106974952D01*
X176083833Y-107117809D01*
X176036214Y-107308285D01*
X175988595Y-107403523D01*
X175893357Y-107498761D01*
X175750500Y-107546380D01*
X175512404Y-107546380D01*
X176464785Y-106641619D02*
X176512404Y-106594000D01*
X176607642Y-106546380D01*
X176845738Y-106546380D01*
X176940976Y-106594000D01*
X176988595Y-106641619D01*
X177036214Y-106736857D01*
X177036214Y-106832095D01*
X176988595Y-106974952D01*
X176417166Y-107546380D01*
X177036214Y-107546380D01*
%TO.C,C2*%
X155789333Y-110339142D02*
X155741714Y-110386761D01*
X155598857Y-110434380D01*
X155503619Y-110434380D01*
X155360761Y-110386761D01*
X155265523Y-110291523D01*
X155217904Y-110196285D01*
X155170285Y-110005809D01*
X155170285Y-109862952D01*
X155217904Y-109672476D01*
X155265523Y-109577238D01*
X155360761Y-109482000D01*
X155503619Y-109434380D01*
X155598857Y-109434380D01*
X155741714Y-109482000D01*
X155789333Y-109529619D01*
X156170285Y-109529619D02*
X156217904Y-109482000D01*
X156313142Y-109434380D01*
X156551238Y-109434380D01*
X156646476Y-109482000D01*
X156694095Y-109529619D01*
X156741714Y-109624857D01*
X156741714Y-109720095D01*
X156694095Y-109862952D01*
X156122666Y-110434380D01*
X156741714Y-110434380D01*
%TO.C,C1*%
X156043333Y-112879142D02*
X155995714Y-112926761D01*
X155852857Y-112974380D01*
X155757619Y-112974380D01*
X155614761Y-112926761D01*
X155519523Y-112831523D01*
X155471904Y-112736285D01*
X155424285Y-112545809D01*
X155424285Y-112402952D01*
X155471904Y-112212476D01*
X155519523Y-112117238D01*
X155614761Y-112022000D01*
X155757619Y-111974380D01*
X155852857Y-111974380D01*
X155995714Y-112022000D01*
X156043333Y-112069619D01*
X156995714Y-112974380D02*
X156424285Y-112974380D01*
X156710000Y-112974380D02*
X156710000Y-111974380D01*
X156614761Y-112117238D01*
X156519523Y-112212476D01*
X156424285Y-112260095D01*
%TO.C,J2*%
X178732380Y-115141333D02*
X179446666Y-115141333D01*
X179589523Y-115188952D01*
X179684761Y-115284190D01*
X179732380Y-115427047D01*
X179732380Y-115522285D01*
X178827619Y-114712761D02*
X178780000Y-114665142D01*
X178732380Y-114569904D01*
X178732380Y-114331809D01*
X178780000Y-114236571D01*
X178827619Y-114188952D01*
X178922857Y-114141333D01*
X179018095Y-114141333D01*
X179160952Y-114188952D01*
X179732380Y-114760380D01*
X179732380Y-114141333D01*
%TO.C,D3*%
X175512404Y-110340380D02*
X175512404Y-109340380D01*
X175750500Y-109340380D01*
X175893357Y-109388000D01*
X175988595Y-109483238D01*
X176036214Y-109578476D01*
X176083833Y-109768952D01*
X176083833Y-109911809D01*
X176036214Y-110102285D01*
X175988595Y-110197523D01*
X175893357Y-110292761D01*
X175750500Y-110340380D01*
X175512404Y-110340380D01*
X176417166Y-109340380D02*
X177036214Y-109340380D01*
X176702880Y-109721333D01*
X176845738Y-109721333D01*
X176940976Y-109768952D01*
X176988595Y-109816571D01*
X177036214Y-109911809D01*
X177036214Y-110149904D01*
X176988595Y-110245142D01*
X176940976Y-110292761D01*
X176845738Y-110340380D01*
X176560023Y-110340380D01*
X176464785Y-110292761D01*
X176417166Y-110245142D01*
%TO.C,D4*%
X175766404Y-113134380D02*
X175766404Y-112134380D01*
X176004500Y-112134380D01*
X176147357Y-112182000D01*
X176242595Y-112277238D01*
X176290214Y-112372476D01*
X176337833Y-112562952D01*
X176337833Y-112705809D01*
X176290214Y-112896285D01*
X176242595Y-112991523D01*
X176147357Y-113086761D01*
X176004500Y-113134380D01*
X175766404Y-113134380D01*
X177194976Y-112467714D02*
X177194976Y-113134380D01*
X176956880Y-112086761D02*
X176718785Y-112801047D01*
X177337833Y-112801047D01*
%TO.C,R1*%
X155535333Y-106878380D02*
X155202000Y-106402190D01*
X154963904Y-106878380D02*
X154963904Y-105878380D01*
X155344857Y-105878380D01*
X155440095Y-105926000D01*
X155487714Y-105973619D01*
X155535333Y-106068857D01*
X155535333Y-106211714D01*
X155487714Y-106306952D01*
X155440095Y-106354571D01*
X155344857Y-106402190D01*
X154963904Y-106402190D01*
X156487714Y-106878380D02*
X155916285Y-106878380D01*
X156202000Y-106878380D02*
X156202000Y-105878380D01*
X156106761Y-106021238D01*
X156011523Y-106116476D01*
X155916285Y-106164095D01*
%TO.C,R2*%
X155535333Y-108656380D02*
X155202000Y-108180190D01*
X154963904Y-108656380D02*
X154963904Y-107656380D01*
X155344857Y-107656380D01*
X155440095Y-107704000D01*
X155487714Y-107751619D01*
X155535333Y-107846857D01*
X155535333Y-107989714D01*
X155487714Y-108084952D01*
X155440095Y-108132571D01*
X155344857Y-108180190D01*
X154963904Y-108180190D01*
X155916285Y-107751619D02*
X155963904Y-107704000D01*
X156059142Y-107656380D01*
X156297238Y-107656380D01*
X156392476Y-107704000D01*
X156440095Y-107751619D01*
X156487714Y-107846857D01*
X156487714Y-107942095D01*
X156440095Y-108084952D01*
X155868666Y-108656380D01*
X156487714Y-108656380D01*
%TO.C,D1*%
X178760380Y-109416095D02*
X177760380Y-109416095D01*
X177760380Y-109178000D01*
X177808000Y-109035142D01*
X177903238Y-108939904D01*
X177998476Y-108892285D01*
X178188952Y-108844666D01*
X178331809Y-108844666D01*
X178522285Y-108892285D01*
X178617523Y-108939904D01*
X178712761Y-109035142D01*
X178760380Y-109178000D01*
X178760380Y-109416095D01*
X178760380Y-107892285D02*
X178760380Y-108463714D01*
X178760380Y-108178000D02*
X177760380Y-108178000D01*
X177903238Y-108273238D01*
X177998476Y-108368476D01*
X178046095Y-108463714D01*
%TO.C,R3*%
X173823333Y-105354380D02*
X173490000Y-104878190D01*
X173251904Y-105354380D02*
X173251904Y-104354380D01*
X173632857Y-104354380D01*
X173728095Y-104402000D01*
X173775714Y-104449619D01*
X173823333Y-104544857D01*
X173823333Y-104687714D01*
X173775714Y-104782952D01*
X173728095Y-104830571D01*
X173632857Y-104878190D01*
X173251904Y-104878190D01*
X174156666Y-104354380D02*
X174775714Y-104354380D01*
X174442380Y-104735333D01*
X174585238Y-104735333D01*
X174680476Y-104782952D01*
X174728095Y-104830571D01*
X174775714Y-104925809D01*
X174775714Y-105163904D01*
X174728095Y-105259142D01*
X174680476Y-105306761D01*
X174585238Y-105354380D01*
X174299523Y-105354380D01*
X174204285Y-105306761D01*
X174156666Y-105259142D01*
%TO.C,R4*%
X172957833Y-110434380D02*
X172624500Y-109958190D01*
X172386404Y-110434380D02*
X172386404Y-109434380D01*
X172767357Y-109434380D01*
X172862595Y-109482000D01*
X172910214Y-109529619D01*
X172957833Y-109624857D01*
X172957833Y-109767714D01*
X172910214Y-109862952D01*
X172862595Y-109910571D01*
X172767357Y-109958190D01*
X172386404Y-109958190D01*
X173814976Y-109767714D02*
X173814976Y-110434380D01*
X173576880Y-109386761D02*
X173338785Y-110101047D01*
X173957833Y-110101047D01*
%TO.C,R5*%
X170775333Y-113134380D02*
X170442000Y-112658190D01*
X170203904Y-113134380D02*
X170203904Y-112134380D01*
X170584857Y-112134380D01*
X170680095Y-112182000D01*
X170727714Y-112229619D01*
X170775333Y-112324857D01*
X170775333Y-112467714D01*
X170727714Y-112562952D01*
X170680095Y-112610571D01*
X170584857Y-112658190D01*
X170203904Y-112658190D01*
X171680095Y-112134380D02*
X171203904Y-112134380D01*
X171156285Y-112610571D01*
X171203904Y-112562952D01*
X171299142Y-112515333D01*
X171537238Y-112515333D01*
X171632476Y-112562952D01*
X171680095Y-112610571D01*
X171727714Y-112705809D01*
X171727714Y-112943904D01*
X171680095Y-113039142D01*
X171632476Y-113086761D01*
X171537238Y-113134380D01*
X171299142Y-113134380D01*
X171203904Y-113086761D01*
X171156285Y-113039142D01*
%TO.C,SW1*%
X161480666Y-113760761D02*
X161623523Y-113808380D01*
X161861619Y-113808380D01*
X161956857Y-113760761D01*
X162004476Y-113713142D01*
X162052095Y-113617904D01*
X162052095Y-113522666D01*
X162004476Y-113427428D01*
X161956857Y-113379809D01*
X161861619Y-113332190D01*
X161671142Y-113284571D01*
X161575904Y-113236952D01*
X161528285Y-113189333D01*
X161480666Y-113094095D01*
X161480666Y-112998857D01*
X161528285Y-112903619D01*
X161575904Y-112856000D01*
X161671142Y-112808380D01*
X161909238Y-112808380D01*
X162052095Y-112856000D01*
X162385428Y-112808380D02*
X162623523Y-113808380D01*
X162814000Y-113094095D01*
X163004476Y-113808380D01*
X163242571Y-112808380D01*
X164147333Y-113808380D02*
X163575904Y-113808380D01*
X163861619Y-113808380D02*
X163861619Y-112808380D01*
X163766380Y-112951238D01*
X163671142Y-113046476D01*
X163575904Y-113094095D01*
%TD*%
M02*
