%TF.GenerationSoftware,KiCad,Pcbnew,(5.1.9)-1*%
%TF.CreationDate,2021-06-08T21:04:25-04:00*%
%TF.ProjectId,wled,776c6564-2e6b-4696-9361-645f70636258,rev?*%
%TF.SameCoordinates,Original*%
%TF.FileFunction,Soldermask,Top*%
%TF.FilePolarity,Negative*%
%FSLAX46Y46*%
G04 Gerber Fmt 4.6, Leading zero omitted, Abs format (unit mm)*
G04 Created by KiCad (PCBNEW (5.1.9)-1) date 2021-06-08 21:04:25*
%MOMM*%
%LPD*%
G01*
G04 APERTURE LIST*
%ADD10O,1.700000X2.000000*%
%ADD11R,1.550000X1.300000*%
%ADD12R,2.000000X3.800000*%
%ADD13R,2.000000X1.500000*%
%ADD14R,2.500000X1.000000*%
%ADD15R,1.000000X1.800000*%
%ADD16C,5.600000*%
%ADD17R,1.700000X1.700000*%
%ADD18O,1.700000X1.700000*%
%ADD19R,0.450000X0.600000*%
%ADD20O,1.700000X1.950000*%
G04 APERTURE END LIST*
%TO.C,J4*%
G36*
G01*
X180428000Y-100088000D02*
X180428000Y-101588000D01*
G75*
G02*
X180178000Y-101838000I-250000J0D01*
G01*
X178978000Y-101838000D01*
G75*
G02*
X178728000Y-101588000I0J250000D01*
G01*
X178728000Y-100088000D01*
G75*
G02*
X178978000Y-99838000I250000J0D01*
G01*
X180178000Y-99838000D01*
G75*
G02*
X180428000Y-100088000I0J-250000D01*
G01*
G37*
D10*
X177078000Y-100838000D03*
%TD*%
D11*
%TO.C,SW2*%
X177457000Y-120106000D03*
X169507000Y-120106000D03*
X177457000Y-115606000D03*
X169507000Y-115606000D03*
%TD*%
%TO.C,J3*%
G36*
G01*
X188707001Y-106766000D02*
X187406999Y-106766000D01*
G75*
G02*
X187157000Y-106516001I0J249999D01*
G01*
X187157000Y-105815999D01*
G75*
G02*
X187406999Y-105566000I249999J0D01*
G01*
X188707001Y-105566000D01*
G75*
G02*
X188957000Y-105815999I0J-249999D01*
G01*
X188957000Y-106516001D01*
G75*
G02*
X188707001Y-106766000I-249999J0D01*
G01*
G37*
G36*
G01*
X188707001Y-112366000D02*
X187406999Y-112366000D01*
G75*
G02*
X187157000Y-112116001I0J249999D01*
G01*
X187157000Y-111415999D01*
G75*
G02*
X187406999Y-111166000I249999J0D01*
G01*
X188707001Y-111166000D01*
G75*
G02*
X188957000Y-111415999I0J-249999D01*
G01*
X188957000Y-112116001D01*
G75*
G02*
X188707001Y-112366000I-249999J0D01*
G01*
G37*
G36*
G01*
X184807000Y-107766000D02*
X183557000Y-107766000D01*
G75*
G02*
X183407000Y-107616000I0J150000D01*
G01*
X183407000Y-107316000D01*
G75*
G02*
X183557000Y-107166000I150000J0D01*
G01*
X184807000Y-107166000D01*
G75*
G02*
X184957000Y-107316000I0J-150000D01*
G01*
X184957000Y-107616000D01*
G75*
G02*
X184807000Y-107766000I-150000J0D01*
G01*
G37*
G36*
G01*
X184807000Y-108766000D02*
X183557000Y-108766000D01*
G75*
G02*
X183407000Y-108616000I0J150000D01*
G01*
X183407000Y-108316000D01*
G75*
G02*
X183557000Y-108166000I150000J0D01*
G01*
X184807000Y-108166000D01*
G75*
G02*
X184957000Y-108316000I0J-150000D01*
G01*
X184957000Y-108616000D01*
G75*
G02*
X184807000Y-108766000I-150000J0D01*
G01*
G37*
G36*
G01*
X184807000Y-109766000D02*
X183557000Y-109766000D01*
G75*
G02*
X183407000Y-109616000I0J150000D01*
G01*
X183407000Y-109316000D01*
G75*
G02*
X183557000Y-109166000I150000J0D01*
G01*
X184807000Y-109166000D01*
G75*
G02*
X184957000Y-109316000I0J-150000D01*
G01*
X184957000Y-109616000D01*
G75*
G02*
X184807000Y-109766000I-150000J0D01*
G01*
G37*
G36*
G01*
X184807000Y-110766000D02*
X183557000Y-110766000D01*
G75*
G02*
X183407000Y-110616000I0J150000D01*
G01*
X183407000Y-110316000D01*
G75*
G02*
X183557000Y-110166000I150000J0D01*
G01*
X184807000Y-110166000D01*
G75*
G02*
X184957000Y-110316000I0J-150000D01*
G01*
X184957000Y-110616000D01*
G75*
G02*
X184807000Y-110766000I-150000J0D01*
G01*
G37*
%TD*%
D12*
%TO.C,U2*%
X162560000Y-107950000D03*
D13*
X168860000Y-107950000D03*
X168860000Y-105650000D03*
X168860000Y-110250000D03*
%TD*%
D14*
%TO.C,U1*%
X138196000Y-106228000D03*
X138196000Y-108228000D03*
X138196000Y-110228000D03*
X138196000Y-112228000D03*
X138196000Y-114228000D03*
X138196000Y-116228000D03*
X138196000Y-118228000D03*
X138196000Y-120228000D03*
D15*
X140796000Y-121728000D03*
X142796000Y-121728000D03*
X144796000Y-121728000D03*
X146796000Y-121728000D03*
X148796000Y-121728000D03*
X150796000Y-121728000D03*
D14*
X153396000Y-120228000D03*
X153396000Y-118228000D03*
X153396000Y-116228000D03*
X153396000Y-114228000D03*
X153396000Y-112228000D03*
X153396000Y-110228000D03*
X153396000Y-108228000D03*
X153396000Y-106228000D03*
%TD*%
%TO.C,D2*%
G36*
G01*
X175900500Y-105407750D02*
X175900500Y-105920250D01*
G75*
G02*
X175681750Y-106139000I-218750J0D01*
G01*
X175244250Y-106139000D01*
G75*
G02*
X175025500Y-105920250I0J218750D01*
G01*
X175025500Y-105407750D01*
G75*
G02*
X175244250Y-105189000I218750J0D01*
G01*
X175681750Y-105189000D01*
G75*
G02*
X175900500Y-105407750I0J-218750D01*
G01*
G37*
G36*
G01*
X177475500Y-105407750D02*
X177475500Y-105920250D01*
G75*
G02*
X177256750Y-106139000I-218750J0D01*
G01*
X176819250Y-106139000D01*
G75*
G02*
X176600500Y-105920250I0J218750D01*
G01*
X176600500Y-105407750D01*
G75*
G02*
X176819250Y-105189000I218750J0D01*
G01*
X177256750Y-105189000D01*
G75*
G02*
X177475500Y-105407750I0J-218750D01*
G01*
G37*
%TD*%
%TO.C,C2*%
G36*
G01*
X158158000Y-109732000D02*
X158158000Y-110232000D01*
G75*
G02*
X157933000Y-110457000I-225000J0D01*
G01*
X157483000Y-110457000D01*
G75*
G02*
X157258000Y-110232000I0J225000D01*
G01*
X157258000Y-109732000D01*
G75*
G02*
X157483000Y-109507000I225000J0D01*
G01*
X157933000Y-109507000D01*
G75*
G02*
X158158000Y-109732000I0J-225000D01*
G01*
G37*
G36*
G01*
X159708000Y-109732000D02*
X159708000Y-110232000D01*
G75*
G02*
X159483000Y-110457000I-225000J0D01*
G01*
X159033000Y-110457000D01*
G75*
G02*
X158808000Y-110232000I0J225000D01*
G01*
X158808000Y-109732000D01*
G75*
G02*
X159033000Y-109507000I225000J0D01*
G01*
X159483000Y-109507000D01*
G75*
G02*
X159708000Y-109732000I0J-225000D01*
G01*
G37*
%TD*%
%TO.C,C1*%
G36*
G01*
X158158000Y-112272000D02*
X158158000Y-112772000D01*
G75*
G02*
X157933000Y-112997000I-225000J0D01*
G01*
X157483000Y-112997000D01*
G75*
G02*
X157258000Y-112772000I0J225000D01*
G01*
X157258000Y-112272000D01*
G75*
G02*
X157483000Y-112047000I225000J0D01*
G01*
X157933000Y-112047000D01*
G75*
G02*
X158158000Y-112272000I0J-225000D01*
G01*
G37*
G36*
G01*
X159708000Y-112272000D02*
X159708000Y-112772000D01*
G75*
G02*
X159483000Y-112997000I-225000J0D01*
G01*
X159033000Y-112997000D01*
G75*
G02*
X158808000Y-112772000I0J225000D01*
G01*
X158808000Y-112272000D01*
G75*
G02*
X159033000Y-112047000I225000J0D01*
G01*
X159483000Y-112047000D01*
G75*
G02*
X159708000Y-112272000I0J-225000D01*
G01*
G37*
%TD*%
D16*
%TO.C,H4*%
X185928000Y-120650000D03*
%TD*%
%TO.C,H3*%
X185928000Y-101092000D03*
%TD*%
%TO.C,H2*%
X132842000Y-101092000D03*
%TD*%
%TO.C,H1*%
X132842000Y-120650000D03*
%TD*%
D17*
%TO.C,J2*%
X181610000Y-114808000D03*
D18*
X184150000Y-114808000D03*
X186690000Y-114808000D03*
%TD*%
%TO.C,D3*%
G36*
G01*
X175900500Y-108201750D02*
X175900500Y-108714250D01*
G75*
G02*
X175681750Y-108933000I-218750J0D01*
G01*
X175244250Y-108933000D01*
G75*
G02*
X175025500Y-108714250I0J218750D01*
G01*
X175025500Y-108201750D01*
G75*
G02*
X175244250Y-107983000I218750J0D01*
G01*
X175681750Y-107983000D01*
G75*
G02*
X175900500Y-108201750I0J-218750D01*
G01*
G37*
G36*
G01*
X177475500Y-108201750D02*
X177475500Y-108714250D01*
G75*
G02*
X177256750Y-108933000I-218750J0D01*
G01*
X176819250Y-108933000D01*
G75*
G02*
X176600500Y-108714250I0J218750D01*
G01*
X176600500Y-108201750D01*
G75*
G02*
X176819250Y-107983000I218750J0D01*
G01*
X177256750Y-107983000D01*
G75*
G02*
X177475500Y-108201750I0J-218750D01*
G01*
G37*
%TD*%
%TO.C,D4*%
G36*
G01*
X177729500Y-110995750D02*
X177729500Y-111508250D01*
G75*
G02*
X177510750Y-111727000I-218750J0D01*
G01*
X177073250Y-111727000D01*
G75*
G02*
X176854500Y-111508250I0J218750D01*
G01*
X176854500Y-110995750D01*
G75*
G02*
X177073250Y-110777000I218750J0D01*
G01*
X177510750Y-110777000D01*
G75*
G02*
X177729500Y-110995750I0J-218750D01*
G01*
G37*
G36*
G01*
X176154500Y-110995750D02*
X176154500Y-111508250D01*
G75*
G02*
X175935750Y-111727000I-218750J0D01*
G01*
X175498250Y-111727000D01*
G75*
G02*
X175279500Y-111508250I0J218750D01*
G01*
X175279500Y-110995750D01*
G75*
G02*
X175498250Y-110777000I218750J0D01*
G01*
X175935750Y-110777000D01*
G75*
G02*
X176154500Y-110995750I0J-218750D01*
G01*
G37*
%TD*%
%TO.C,R1*%
G36*
G01*
X158770500Y-106663500D02*
X158770500Y-106188500D01*
G75*
G02*
X159008000Y-105951000I237500J0D01*
G01*
X159508000Y-105951000D01*
G75*
G02*
X159745500Y-106188500I0J-237500D01*
G01*
X159745500Y-106663500D01*
G75*
G02*
X159508000Y-106901000I-237500J0D01*
G01*
X159008000Y-106901000D01*
G75*
G02*
X158770500Y-106663500I0J237500D01*
G01*
G37*
G36*
G01*
X156945500Y-106663500D02*
X156945500Y-106188500D01*
G75*
G02*
X157183000Y-105951000I237500J0D01*
G01*
X157683000Y-105951000D01*
G75*
G02*
X157920500Y-106188500I0J-237500D01*
G01*
X157920500Y-106663500D01*
G75*
G02*
X157683000Y-106901000I-237500J0D01*
G01*
X157183000Y-106901000D01*
G75*
G02*
X156945500Y-106663500I0J237500D01*
G01*
G37*
%TD*%
%TO.C,R2*%
G36*
G01*
X156945500Y-108441500D02*
X156945500Y-107966500D01*
G75*
G02*
X157183000Y-107729000I237500J0D01*
G01*
X157683000Y-107729000D01*
G75*
G02*
X157920500Y-107966500I0J-237500D01*
G01*
X157920500Y-108441500D01*
G75*
G02*
X157683000Y-108679000I-237500J0D01*
G01*
X157183000Y-108679000D01*
G75*
G02*
X156945500Y-108441500I0J237500D01*
G01*
G37*
G36*
G01*
X158770500Y-108441500D02*
X158770500Y-107966500D01*
G75*
G02*
X159008000Y-107729000I237500J0D01*
G01*
X159508000Y-107729000D01*
G75*
G02*
X159745500Y-107966500I0J-237500D01*
G01*
X159745500Y-108441500D01*
G75*
G02*
X159508000Y-108679000I-237500J0D01*
G01*
X159008000Y-108679000D01*
G75*
G02*
X158770500Y-108441500I0J237500D01*
G01*
G37*
%TD*%
D19*
%TO.C,D1*%
X180086000Y-109762000D03*
X180086000Y-107662000D03*
%TD*%
%TO.C,J1*%
G36*
G01*
X157512000Y-100547000D02*
X157512000Y-99097000D01*
G75*
G02*
X157762000Y-98847000I250000J0D01*
G01*
X158962000Y-98847000D01*
G75*
G02*
X159212000Y-99097000I0J-250000D01*
G01*
X159212000Y-100547000D01*
G75*
G02*
X158962000Y-100797000I-250000J0D01*
G01*
X157762000Y-100797000D01*
G75*
G02*
X157512000Y-100547000I0J250000D01*
G01*
G37*
D20*
X160862000Y-99822000D03*
X163362000Y-99822000D03*
X165862000Y-99822000D03*
X168362000Y-99822000D03*
X170862000Y-99822000D03*
%TD*%
%TO.C,R3*%
G36*
G01*
X172787500Y-106409500D02*
X172787500Y-105934500D01*
G75*
G02*
X173025000Y-105697000I237500J0D01*
G01*
X173525000Y-105697000D01*
G75*
G02*
X173762500Y-105934500I0J-237500D01*
G01*
X173762500Y-106409500D01*
G75*
G02*
X173525000Y-106647000I-237500J0D01*
G01*
X173025000Y-106647000D01*
G75*
G02*
X172787500Y-106409500I0J237500D01*
G01*
G37*
G36*
G01*
X170962500Y-106409500D02*
X170962500Y-105934500D01*
G75*
G02*
X171200000Y-105697000I237500J0D01*
G01*
X171700000Y-105697000D01*
G75*
G02*
X171937500Y-105934500I0J-237500D01*
G01*
X171937500Y-106409500D01*
G75*
G02*
X171700000Y-106647000I-237500J0D01*
G01*
X171200000Y-106647000D01*
G75*
G02*
X170962500Y-106409500I0J237500D01*
G01*
G37*
%TD*%
%TO.C,R4*%
G36*
G01*
X172787500Y-108695500D02*
X172787500Y-108220500D01*
G75*
G02*
X173025000Y-107983000I237500J0D01*
G01*
X173525000Y-107983000D01*
G75*
G02*
X173762500Y-108220500I0J-237500D01*
G01*
X173762500Y-108695500D01*
G75*
G02*
X173525000Y-108933000I-237500J0D01*
G01*
X173025000Y-108933000D01*
G75*
G02*
X172787500Y-108695500I0J237500D01*
G01*
G37*
G36*
G01*
X170962500Y-108695500D02*
X170962500Y-108220500D01*
G75*
G02*
X171200000Y-107983000I237500J0D01*
G01*
X171700000Y-107983000D01*
G75*
G02*
X171937500Y-108220500I0J-237500D01*
G01*
X171937500Y-108695500D01*
G75*
G02*
X171700000Y-108933000I-237500J0D01*
G01*
X171200000Y-108933000D01*
G75*
G02*
X170962500Y-108695500I0J237500D01*
G01*
G37*
%TD*%
%TO.C,R5*%
G36*
G01*
X173762500Y-111014500D02*
X173762500Y-111489500D01*
G75*
G02*
X173525000Y-111727000I-237500J0D01*
G01*
X173025000Y-111727000D01*
G75*
G02*
X172787500Y-111489500I0J237500D01*
G01*
X172787500Y-111014500D01*
G75*
G02*
X173025000Y-110777000I237500J0D01*
G01*
X173525000Y-110777000D01*
G75*
G02*
X173762500Y-111014500I0J-237500D01*
G01*
G37*
G36*
G01*
X171937500Y-111014500D02*
X171937500Y-111489500D01*
G75*
G02*
X171700000Y-111727000I-237500J0D01*
G01*
X171200000Y-111727000D01*
G75*
G02*
X170962500Y-111489500I0J237500D01*
G01*
X170962500Y-111014500D01*
G75*
G02*
X171200000Y-110777000I237500J0D01*
G01*
X171700000Y-110777000D01*
G75*
G02*
X171937500Y-111014500I0J-237500D01*
G01*
G37*
%TD*%
D11*
%TO.C,SW1*%
X158839000Y-115606000D03*
X166789000Y-115606000D03*
X158839000Y-120106000D03*
X166789000Y-120106000D03*
%TD*%
M02*
