%TF.GenerationSoftware,KiCad,Pcbnew,(5.1.9)-1*%
%TF.CreationDate,2021-03-27T08:13:36-04:00*%
%TF.ProjectId,wled,776c6564-2e6b-4696-9361-645f70636258,rev?*%
%TF.SameCoordinates,Original*%
%TF.FileFunction,Soldermask,Top*%
%TF.FilePolarity,Negative*%
%FSLAX46Y46*%
G04 Gerber Fmt 4.6, Leading zero omitted, Abs format (unit mm)*
G04 Created by KiCad (PCBNEW (5.1.9)-1) date 2021-03-27 08:13:36*
%MOMM*%
%LPD*%
G01*
G04 APERTURE LIST*
%ADD10R,0.450000X0.600000*%
%ADD11C,5.600000*%
%ADD12R,2.000000X3.800000*%
%ADD13R,2.000000X1.500000*%
%ADD14R,0.900000X0.800000*%
%ADD15R,1.700000X1.700000*%
%ADD16O,1.700000X1.700000*%
%ADD17O,1.200000X1.750000*%
%ADD18R,2.500000X1.000000*%
%ADD19R,1.000000X1.800000*%
G04 APERTURE END LIST*
D10*
%TO.C,D1*%
X50292000Y-31462000D03*
X50292000Y-33562000D03*
%TD*%
D11*
%TO.C,H4*%
X76200000Y-46228000D03*
%TD*%
%TO.C,H3*%
X76200000Y-26670000D03*
%TD*%
%TO.C,H2*%
X23876000Y-26670000D03*
%TD*%
%TO.C,H1*%
X23876000Y-46228000D03*
%TD*%
D12*
%TO.C,U2*%
X56540000Y-39370000D03*
D13*
X62840000Y-39370000D03*
X62840000Y-37070000D03*
X62840000Y-41670000D03*
%TD*%
%TO.C,D2*%
G36*
G01*
X53890000Y-31650000D02*
X53890000Y-31850000D01*
G75*
G02*
X53790000Y-31950000I-100000J0D01*
G01*
X53530000Y-31950000D01*
G75*
G02*
X53430000Y-31850000I0J100000D01*
G01*
X53430000Y-31650000D01*
G75*
G02*
X53530000Y-31550000I100000J0D01*
G01*
X53790000Y-31550000D01*
G75*
G02*
X53890000Y-31650000I0J-100000D01*
G01*
G37*
G36*
G01*
X53250000Y-31650000D02*
X53250000Y-31850000D01*
G75*
G02*
X53150000Y-31950000I-100000J0D01*
G01*
X52890000Y-31950000D01*
G75*
G02*
X52790000Y-31850000I0J100000D01*
G01*
X52790000Y-31650000D01*
G75*
G02*
X52890000Y-31550000I100000J0D01*
G01*
X53150000Y-31550000D01*
G75*
G02*
X53250000Y-31650000I0J-100000D01*
G01*
G37*
%TD*%
%TO.C,J3*%
G36*
G01*
X79741001Y-32344000D02*
X78440999Y-32344000D01*
G75*
G02*
X78191000Y-32094001I0J249999D01*
G01*
X78191000Y-31393999D01*
G75*
G02*
X78440999Y-31144000I249999J0D01*
G01*
X79741001Y-31144000D01*
G75*
G02*
X79991000Y-31393999I0J-249999D01*
G01*
X79991000Y-32094001D01*
G75*
G02*
X79741001Y-32344000I-249999J0D01*
G01*
G37*
G36*
G01*
X79741001Y-37944000D02*
X78440999Y-37944000D01*
G75*
G02*
X78191000Y-37694001I0J249999D01*
G01*
X78191000Y-36993999D01*
G75*
G02*
X78440999Y-36744000I249999J0D01*
G01*
X79741001Y-36744000D01*
G75*
G02*
X79991000Y-36993999I0J-249999D01*
G01*
X79991000Y-37694001D01*
G75*
G02*
X79741001Y-37944000I-249999J0D01*
G01*
G37*
G36*
G01*
X75841000Y-33344000D02*
X74591000Y-33344000D01*
G75*
G02*
X74441000Y-33194000I0J150000D01*
G01*
X74441000Y-32894000D01*
G75*
G02*
X74591000Y-32744000I150000J0D01*
G01*
X75841000Y-32744000D01*
G75*
G02*
X75991000Y-32894000I0J-150000D01*
G01*
X75991000Y-33194000D01*
G75*
G02*
X75841000Y-33344000I-150000J0D01*
G01*
G37*
G36*
G01*
X75841000Y-34344000D02*
X74591000Y-34344000D01*
G75*
G02*
X74441000Y-34194000I0J150000D01*
G01*
X74441000Y-33894000D01*
G75*
G02*
X74591000Y-33744000I150000J0D01*
G01*
X75841000Y-33744000D01*
G75*
G02*
X75991000Y-33894000I0J-150000D01*
G01*
X75991000Y-34194000D01*
G75*
G02*
X75841000Y-34344000I-150000J0D01*
G01*
G37*
G36*
G01*
X75841000Y-35344000D02*
X74591000Y-35344000D01*
G75*
G02*
X74441000Y-35194000I0J150000D01*
G01*
X74441000Y-34894000D01*
G75*
G02*
X74591000Y-34744000I150000J0D01*
G01*
X75841000Y-34744000D01*
G75*
G02*
X75991000Y-34894000I0J-150000D01*
G01*
X75991000Y-35194000D01*
G75*
G02*
X75841000Y-35344000I-150000J0D01*
G01*
G37*
G36*
G01*
X75841000Y-36344000D02*
X74591000Y-36344000D01*
G75*
G02*
X74441000Y-36194000I0J150000D01*
G01*
X74441000Y-35894000D01*
G75*
G02*
X74591000Y-35744000I150000J0D01*
G01*
X75841000Y-35744000D01*
G75*
G02*
X75991000Y-35894000I0J-150000D01*
G01*
X75991000Y-36194000D01*
G75*
G02*
X75841000Y-36344000I-150000J0D01*
G01*
G37*
%TD*%
D14*
%TO.C,Q2*%
X65675000Y-33020000D03*
X63675000Y-33970000D03*
X63675000Y-32070000D03*
%TD*%
%TO.C,Q1*%
X58150000Y-33020000D03*
X56150000Y-33970000D03*
X56150000Y-32070000D03*
%TD*%
%TO.C,C1*%
G36*
G01*
X53890000Y-36730000D02*
X53890000Y-36930000D01*
G75*
G02*
X53790000Y-37030000I-100000J0D01*
G01*
X53530000Y-37030000D01*
G75*
G02*
X53430000Y-36930000I0J100000D01*
G01*
X53430000Y-36730000D01*
G75*
G02*
X53530000Y-36630000I100000J0D01*
G01*
X53790000Y-36630000D01*
G75*
G02*
X53890000Y-36730000I0J-100000D01*
G01*
G37*
G36*
G01*
X53250000Y-36730000D02*
X53250000Y-36930000D01*
G75*
G02*
X53150000Y-37030000I-100000J0D01*
G01*
X52890000Y-37030000D01*
G75*
G02*
X52790000Y-36930000I0J100000D01*
G01*
X52790000Y-36730000D01*
G75*
G02*
X52890000Y-36630000I100000J0D01*
G01*
X53150000Y-36630000D01*
G75*
G02*
X53250000Y-36730000I0J-100000D01*
G01*
G37*
%TD*%
%TO.C,C2*%
G36*
G01*
X53250000Y-34190000D02*
X53250000Y-34390000D01*
G75*
G02*
X53150000Y-34490000I-100000J0D01*
G01*
X52890000Y-34490000D01*
G75*
G02*
X52790000Y-34390000I0J100000D01*
G01*
X52790000Y-34190000D01*
G75*
G02*
X52890000Y-34090000I100000J0D01*
G01*
X53150000Y-34090000D01*
G75*
G02*
X53250000Y-34190000I0J-100000D01*
G01*
G37*
G36*
G01*
X53890000Y-34190000D02*
X53890000Y-34390000D01*
G75*
G02*
X53790000Y-34490000I-100000J0D01*
G01*
X53530000Y-34490000D01*
G75*
G02*
X53430000Y-34390000I0J100000D01*
G01*
X53430000Y-34190000D01*
G75*
G02*
X53530000Y-34090000I100000J0D01*
G01*
X53790000Y-34090000D01*
G75*
G02*
X53890000Y-34190000I0J-100000D01*
G01*
G37*
%TD*%
D15*
%TO.C,J1*%
X49530000Y-26670000D03*
D16*
X52070000Y-26670000D03*
X54610000Y-26670000D03*
X57150000Y-26670000D03*
X59690000Y-26670000D03*
X62230000Y-26670000D03*
%TD*%
D15*
%TO.C,J2*%
X72390000Y-40640000D03*
D16*
X69850000Y-40640000D03*
X67310000Y-40640000D03*
%TD*%
%TO.C,J4*%
G36*
G01*
X67475000Y-26980001D02*
X67475000Y-25729999D01*
G75*
G02*
X67724999Y-25480000I249999J0D01*
G01*
X68425001Y-25480000D01*
G75*
G02*
X68675000Y-25729999I0J-249999D01*
G01*
X68675000Y-26980001D01*
G75*
G02*
X68425001Y-27230000I-249999J0D01*
G01*
X67724999Y-27230000D01*
G75*
G02*
X67475000Y-26980001I0J249999D01*
G01*
G37*
D17*
X70075000Y-26355000D03*
%TD*%
%TO.C,R1*%
G36*
G01*
X60410000Y-31850000D02*
X60410000Y-31650000D01*
G75*
G02*
X60510000Y-31550000I100000J0D01*
G01*
X60770000Y-31550000D01*
G75*
G02*
X60870000Y-31650000I0J-100000D01*
G01*
X60870000Y-31850000D01*
G75*
G02*
X60770000Y-31950000I-100000J0D01*
G01*
X60510000Y-31950000D01*
G75*
G02*
X60410000Y-31850000I0J100000D01*
G01*
G37*
G36*
G01*
X61050000Y-31850000D02*
X61050000Y-31650000D01*
G75*
G02*
X61150000Y-31550000I100000J0D01*
G01*
X61410000Y-31550000D01*
G75*
G02*
X61510000Y-31650000I0J-100000D01*
G01*
X61510000Y-31850000D01*
G75*
G02*
X61410000Y-31950000I-100000J0D01*
G01*
X61150000Y-31950000D01*
G75*
G02*
X61050000Y-31850000I0J100000D01*
G01*
G37*
%TD*%
%TO.C,R2*%
G36*
G01*
X61050000Y-34390000D02*
X61050000Y-34190000D01*
G75*
G02*
X61150000Y-34090000I100000J0D01*
G01*
X61410000Y-34090000D01*
G75*
G02*
X61510000Y-34190000I0J-100000D01*
G01*
X61510000Y-34390000D01*
G75*
G02*
X61410000Y-34490000I-100000J0D01*
G01*
X61150000Y-34490000D01*
G75*
G02*
X61050000Y-34390000I0J100000D01*
G01*
G37*
G36*
G01*
X60410000Y-34390000D02*
X60410000Y-34190000D01*
G75*
G02*
X60510000Y-34090000I100000J0D01*
G01*
X60770000Y-34090000D01*
G75*
G02*
X60870000Y-34190000I0J-100000D01*
G01*
X60870000Y-34390000D01*
G75*
G02*
X60770000Y-34490000I-100000J0D01*
G01*
X60510000Y-34490000D01*
G75*
G02*
X60410000Y-34390000I0J100000D01*
G01*
G37*
%TD*%
D18*
%TO.C,U1*%
X29738000Y-31806000D03*
X29738000Y-33806000D03*
X29738000Y-35806000D03*
X29738000Y-37806000D03*
X29738000Y-39806000D03*
X29738000Y-41806000D03*
X29738000Y-43806000D03*
X29738000Y-45806000D03*
D19*
X32338000Y-47306000D03*
X34338000Y-47306000D03*
X36338000Y-47306000D03*
X38338000Y-47306000D03*
X40338000Y-47306000D03*
X42338000Y-47306000D03*
D18*
X44938000Y-45806000D03*
X44938000Y-43806000D03*
X44938000Y-41806000D03*
X44938000Y-39806000D03*
X44938000Y-37806000D03*
X44938000Y-35806000D03*
X44938000Y-33806000D03*
X44938000Y-31806000D03*
%TD*%
M02*
