%TF.GenerationSoftware,KiCad,Pcbnew,(5.1.9)-1*%
%TF.CreationDate,2021-06-08T21:04:25-04:00*%
%TF.ProjectId,wled,776c6564-2e6b-4696-9361-645f70636258,rev?*%
%TF.SameCoordinates,Original*%
%TF.FileFunction,Copper,L1,Top*%
%TF.FilePolarity,Positive*%
%FSLAX46Y46*%
G04 Gerber Fmt 4.6, Leading zero omitted, Abs format (unit mm)*
G04 Created by KiCad (PCBNEW (5.1.9)-1) date 2021-06-08 21:04:25*
%MOMM*%
%LPD*%
G01*
G04 APERTURE LIST*
%TA.AperFunction,ComponentPad*%
%ADD10O,1.700000X2.000000*%
%TD*%
%TA.AperFunction,SMDPad,CuDef*%
%ADD11R,1.550000X1.300000*%
%TD*%
%TA.AperFunction,SMDPad,CuDef*%
%ADD12R,2.000000X3.800000*%
%TD*%
%TA.AperFunction,SMDPad,CuDef*%
%ADD13R,2.000000X1.500000*%
%TD*%
%TA.AperFunction,SMDPad,CuDef*%
%ADD14R,2.500000X1.000000*%
%TD*%
%TA.AperFunction,SMDPad,CuDef*%
%ADD15R,1.000000X1.800000*%
%TD*%
%TA.AperFunction,ComponentPad*%
%ADD16C,5.600000*%
%TD*%
%TA.AperFunction,ComponentPad*%
%ADD17R,1.700000X1.700000*%
%TD*%
%TA.AperFunction,ComponentPad*%
%ADD18O,1.700000X1.700000*%
%TD*%
%TA.AperFunction,SMDPad,CuDef*%
%ADD19R,0.450000X0.600000*%
%TD*%
%TA.AperFunction,ComponentPad*%
%ADD20O,1.700000X1.950000*%
%TD*%
%TA.AperFunction,ViaPad*%
%ADD21C,0.800000*%
%TD*%
%TA.AperFunction,Conductor*%
%ADD22C,0.254000*%
%TD*%
%TA.AperFunction,Conductor*%
%ADD23C,0.127000*%
%TD*%
G04 APERTURE END LIST*
%TO.P,J4,1*%
%TO.N,VIN*%
%TA.AperFunction,ComponentPad*%
G36*
G01*
X180428000Y-100088000D02*
X180428000Y-101588000D01*
G75*
G02*
X180178000Y-101838000I-250000J0D01*
G01*
X178978000Y-101838000D01*
G75*
G02*
X178728000Y-101588000I0J250000D01*
G01*
X178728000Y-100088000D01*
G75*
G02*
X178978000Y-99838000I250000J0D01*
G01*
X180178000Y-99838000D01*
G75*
G02*
X180428000Y-100088000I0J-250000D01*
G01*
G37*
%TD.AperFunction*%
D10*
%TO.P,J4,2*%
%TO.N,GND*%
X177078000Y-100838000D03*
%TD*%
D11*
%TO.P,SW2,2*%
%TO.N,GND*%
X177457000Y-120106000D03*
X169507000Y-120106000D03*
%TO.P,SW2,1*%
%TO.N,Net-(SW2-Pad1)*%
X177457000Y-115606000D03*
X169507000Y-115606000D03*
%TD*%
%TO.P,J3,MP*%
%TO.N,N/C*%
%TA.AperFunction,SMDPad,CuDef*%
G36*
G01*
X188707001Y-106766000D02*
X187406999Y-106766000D01*
G75*
G02*
X187157000Y-106516001I0J249999D01*
G01*
X187157000Y-105815999D01*
G75*
G02*
X187406999Y-105566000I249999J0D01*
G01*
X188707001Y-105566000D01*
G75*
G02*
X188957000Y-105815999I0J-249999D01*
G01*
X188957000Y-106516001D01*
G75*
G02*
X188707001Y-106766000I-249999J0D01*
G01*
G37*
%TD.AperFunction*%
%TA.AperFunction,SMDPad,CuDef*%
G36*
G01*
X188707001Y-112366000D02*
X187406999Y-112366000D01*
G75*
G02*
X187157000Y-112116001I0J249999D01*
G01*
X187157000Y-111415999D01*
G75*
G02*
X187406999Y-111166000I249999J0D01*
G01*
X188707001Y-111166000D01*
G75*
G02*
X188957000Y-111415999I0J-249999D01*
G01*
X188957000Y-112116001D01*
G75*
G02*
X188707001Y-112366000I-249999J0D01*
G01*
G37*
%TD.AperFunction*%
%TO.P,J3,4*%
%TO.N,SCL*%
%TA.AperFunction,SMDPad,CuDef*%
G36*
G01*
X184807000Y-107766000D02*
X183557000Y-107766000D01*
G75*
G02*
X183407000Y-107616000I0J150000D01*
G01*
X183407000Y-107316000D01*
G75*
G02*
X183557000Y-107166000I150000J0D01*
G01*
X184807000Y-107166000D01*
G75*
G02*
X184957000Y-107316000I0J-150000D01*
G01*
X184957000Y-107616000D01*
G75*
G02*
X184807000Y-107766000I-150000J0D01*
G01*
G37*
%TD.AperFunction*%
%TO.P,J3,3*%
%TO.N,SDA*%
%TA.AperFunction,SMDPad,CuDef*%
G36*
G01*
X184807000Y-108766000D02*
X183557000Y-108766000D01*
G75*
G02*
X183407000Y-108616000I0J150000D01*
G01*
X183407000Y-108316000D01*
G75*
G02*
X183557000Y-108166000I150000J0D01*
G01*
X184807000Y-108166000D01*
G75*
G02*
X184957000Y-108316000I0J-150000D01*
G01*
X184957000Y-108616000D01*
G75*
G02*
X184807000Y-108766000I-150000J0D01*
G01*
G37*
%TD.AperFunction*%
%TO.P,J3,2*%
%TO.N,VDD3V3*%
%TA.AperFunction,SMDPad,CuDef*%
G36*
G01*
X184807000Y-109766000D02*
X183557000Y-109766000D01*
G75*
G02*
X183407000Y-109616000I0J150000D01*
G01*
X183407000Y-109316000D01*
G75*
G02*
X183557000Y-109166000I150000J0D01*
G01*
X184807000Y-109166000D01*
G75*
G02*
X184957000Y-109316000I0J-150000D01*
G01*
X184957000Y-109616000D01*
G75*
G02*
X184807000Y-109766000I-150000J0D01*
G01*
G37*
%TD.AperFunction*%
%TO.P,J3,1*%
%TO.N,GND*%
%TA.AperFunction,SMDPad,CuDef*%
G36*
G01*
X184807000Y-110766000D02*
X183557000Y-110766000D01*
G75*
G02*
X183407000Y-110616000I0J150000D01*
G01*
X183407000Y-110316000D01*
G75*
G02*
X183557000Y-110166000I150000J0D01*
G01*
X184807000Y-110166000D01*
G75*
G02*
X184957000Y-110316000I0J-150000D01*
G01*
X184957000Y-110616000D01*
G75*
G02*
X184807000Y-110766000I-150000J0D01*
G01*
G37*
%TD.AperFunction*%
%TD*%
D12*
%TO.P,U2,2*%
%TO.N,VDD3V3*%
X162560000Y-107950000D03*
D13*
X168860000Y-107950000D03*
%TO.P,U2,3*%
%TO.N,VDD5V*%
X168860000Y-105650000D03*
%TO.P,U2,1*%
%TO.N,GND*%
X168860000Y-110250000D03*
%TD*%
D14*
%TO.P,U1,1*%
%TO.N,Net-(R1-Pad1)*%
X138196000Y-106228000D03*
%TO.P,U1,2*%
%TO.N,N/C*%
X138196000Y-108228000D03*
%TO.P,U1,3*%
%TO.N,Net-(R2-Pad1)*%
X138196000Y-110228000D03*
%TO.P,U1,4*%
%TO.N,N/C*%
X138196000Y-112228000D03*
%TO.P,U1,5*%
X138196000Y-114228000D03*
%TO.P,U1,6*%
X138196000Y-116228000D03*
%TO.P,U1,7*%
X138196000Y-118228000D03*
%TO.P,U1,8*%
%TO.N,VDD3V3*%
X138196000Y-120228000D03*
D15*
%TO.P,U1,9*%
%TO.N,N/C*%
X140796000Y-121728000D03*
%TO.P,U1,10*%
X142796000Y-121728000D03*
%TO.P,U1,11*%
X144796000Y-121728000D03*
%TO.P,U1,12*%
X146796000Y-121728000D03*
%TO.P,U1,13*%
X148796000Y-121728000D03*
%TO.P,U1,14*%
X150796000Y-121728000D03*
D14*
%TO.P,U1,15*%
%TO.N,GND*%
X153396000Y-120228000D03*
%TO.P,U1,16*%
%TO.N,N/C*%
X153396000Y-118228000D03*
%TO.P,U1,17*%
%TO.N,DATA*%
X153396000Y-116228000D03*
%TO.P,U1,18*%
%TO.N,Net-(SW2-Pad1)*%
X153396000Y-114228000D03*
%TO.P,U1,19*%
%TO.N,SCL*%
X153396000Y-112228000D03*
%TO.P,U1,20*%
%TO.N,SDA*%
X153396000Y-110228000D03*
%TO.P,U1,21*%
%TO.N,RXD*%
X153396000Y-108228000D03*
%TO.P,U1,22*%
%TO.N,TXD*%
X153396000Y-106228000D03*
%TD*%
%TO.P,D2,2*%
%TO.N,Net-(D2-Pad2)*%
%TA.AperFunction,SMDPad,CuDef*%
G36*
G01*
X175900500Y-105407750D02*
X175900500Y-105920250D01*
G75*
G02*
X175681750Y-106139000I-218750J0D01*
G01*
X175244250Y-106139000D01*
G75*
G02*
X175025500Y-105920250I0J218750D01*
G01*
X175025500Y-105407750D01*
G75*
G02*
X175244250Y-105189000I218750J0D01*
G01*
X175681750Y-105189000D01*
G75*
G02*
X175900500Y-105407750I0J-218750D01*
G01*
G37*
%TD.AperFunction*%
%TO.P,D2,1*%
%TO.N,GND*%
%TA.AperFunction,SMDPad,CuDef*%
G36*
G01*
X177475500Y-105407750D02*
X177475500Y-105920250D01*
G75*
G02*
X177256750Y-106139000I-218750J0D01*
G01*
X176819250Y-106139000D01*
G75*
G02*
X176600500Y-105920250I0J218750D01*
G01*
X176600500Y-105407750D01*
G75*
G02*
X176819250Y-105189000I218750J0D01*
G01*
X177256750Y-105189000D01*
G75*
G02*
X177475500Y-105407750I0J-218750D01*
G01*
G37*
%TD.AperFunction*%
%TD*%
%TO.P,C2,2*%
%TO.N,GND*%
%TA.AperFunction,SMDPad,CuDef*%
G36*
G01*
X158158000Y-109732000D02*
X158158000Y-110232000D01*
G75*
G02*
X157933000Y-110457000I-225000J0D01*
G01*
X157483000Y-110457000D01*
G75*
G02*
X157258000Y-110232000I0J225000D01*
G01*
X157258000Y-109732000D01*
G75*
G02*
X157483000Y-109507000I225000J0D01*
G01*
X157933000Y-109507000D01*
G75*
G02*
X158158000Y-109732000I0J-225000D01*
G01*
G37*
%TD.AperFunction*%
%TO.P,C2,1*%
%TO.N,VDD3V3*%
%TA.AperFunction,SMDPad,CuDef*%
G36*
G01*
X159708000Y-109732000D02*
X159708000Y-110232000D01*
G75*
G02*
X159483000Y-110457000I-225000J0D01*
G01*
X159033000Y-110457000D01*
G75*
G02*
X158808000Y-110232000I0J225000D01*
G01*
X158808000Y-109732000D01*
G75*
G02*
X159033000Y-109507000I225000J0D01*
G01*
X159483000Y-109507000D01*
G75*
G02*
X159708000Y-109732000I0J-225000D01*
G01*
G37*
%TD.AperFunction*%
%TD*%
%TO.P,C1,2*%
%TO.N,GND*%
%TA.AperFunction,SMDPad,CuDef*%
G36*
G01*
X158158000Y-112272000D02*
X158158000Y-112772000D01*
G75*
G02*
X157933000Y-112997000I-225000J0D01*
G01*
X157483000Y-112997000D01*
G75*
G02*
X157258000Y-112772000I0J225000D01*
G01*
X157258000Y-112272000D01*
G75*
G02*
X157483000Y-112047000I225000J0D01*
G01*
X157933000Y-112047000D01*
G75*
G02*
X158158000Y-112272000I0J-225000D01*
G01*
G37*
%TD.AperFunction*%
%TO.P,C1,1*%
%TO.N,VDD5V*%
%TA.AperFunction,SMDPad,CuDef*%
G36*
G01*
X159708000Y-112272000D02*
X159708000Y-112772000D01*
G75*
G02*
X159483000Y-112997000I-225000J0D01*
G01*
X159033000Y-112997000D01*
G75*
G02*
X158808000Y-112772000I0J225000D01*
G01*
X158808000Y-112272000D01*
G75*
G02*
X159033000Y-112047000I225000J0D01*
G01*
X159483000Y-112047000D01*
G75*
G02*
X159708000Y-112272000I0J-225000D01*
G01*
G37*
%TD.AperFunction*%
%TD*%
D16*
%TO.P,H4,1*%
%TO.N,N/C*%
X185928000Y-120650000D03*
%TD*%
%TO.P,H3,1*%
%TO.N,N/C*%
X185928000Y-101092000D03*
%TD*%
%TO.P,H2,1*%
%TO.N,N/C*%
X132842000Y-101092000D03*
%TD*%
%TO.P,H1,1*%
%TO.N,N/C*%
X132842000Y-120650000D03*
%TD*%
D17*
%TO.P,J2,1*%
%TO.N,VDD5V*%
X181610000Y-114808000D03*
D18*
%TO.P,J2,2*%
%TO.N,DATA*%
X184150000Y-114808000D03*
%TO.P,J2,3*%
%TO.N,GND*%
X186690000Y-114808000D03*
%TD*%
%TO.P,D3,2*%
%TO.N,Net-(D3-Pad2)*%
%TA.AperFunction,SMDPad,CuDef*%
G36*
G01*
X175900500Y-108201750D02*
X175900500Y-108714250D01*
G75*
G02*
X175681750Y-108933000I-218750J0D01*
G01*
X175244250Y-108933000D01*
G75*
G02*
X175025500Y-108714250I0J218750D01*
G01*
X175025500Y-108201750D01*
G75*
G02*
X175244250Y-107983000I218750J0D01*
G01*
X175681750Y-107983000D01*
G75*
G02*
X175900500Y-108201750I0J-218750D01*
G01*
G37*
%TD.AperFunction*%
%TO.P,D3,1*%
%TO.N,GND*%
%TA.AperFunction,SMDPad,CuDef*%
G36*
G01*
X177475500Y-108201750D02*
X177475500Y-108714250D01*
G75*
G02*
X177256750Y-108933000I-218750J0D01*
G01*
X176819250Y-108933000D01*
G75*
G02*
X176600500Y-108714250I0J218750D01*
G01*
X176600500Y-108201750D01*
G75*
G02*
X176819250Y-107983000I218750J0D01*
G01*
X177256750Y-107983000D01*
G75*
G02*
X177475500Y-108201750I0J-218750D01*
G01*
G37*
%TD.AperFunction*%
%TD*%
%TO.P,D4,1*%
%TO.N,GND*%
%TA.AperFunction,SMDPad,CuDef*%
G36*
G01*
X177729500Y-110995750D02*
X177729500Y-111508250D01*
G75*
G02*
X177510750Y-111727000I-218750J0D01*
G01*
X177073250Y-111727000D01*
G75*
G02*
X176854500Y-111508250I0J218750D01*
G01*
X176854500Y-110995750D01*
G75*
G02*
X177073250Y-110777000I218750J0D01*
G01*
X177510750Y-110777000D01*
G75*
G02*
X177729500Y-110995750I0J-218750D01*
G01*
G37*
%TD.AperFunction*%
%TO.P,D4,2*%
%TO.N,Net-(D4-Pad2)*%
%TA.AperFunction,SMDPad,CuDef*%
G36*
G01*
X176154500Y-110995750D02*
X176154500Y-111508250D01*
G75*
G02*
X175935750Y-111727000I-218750J0D01*
G01*
X175498250Y-111727000D01*
G75*
G02*
X175279500Y-111508250I0J218750D01*
G01*
X175279500Y-110995750D01*
G75*
G02*
X175498250Y-110777000I218750J0D01*
G01*
X175935750Y-110777000D01*
G75*
G02*
X176154500Y-110995750I0J-218750D01*
G01*
G37*
%TD.AperFunction*%
%TD*%
%TO.P,R1,2*%
%TO.N,VDD3V3*%
%TA.AperFunction,SMDPad,CuDef*%
G36*
G01*
X158770500Y-106663500D02*
X158770500Y-106188500D01*
G75*
G02*
X159008000Y-105951000I237500J0D01*
G01*
X159508000Y-105951000D01*
G75*
G02*
X159745500Y-106188500I0J-237500D01*
G01*
X159745500Y-106663500D01*
G75*
G02*
X159508000Y-106901000I-237500J0D01*
G01*
X159008000Y-106901000D01*
G75*
G02*
X158770500Y-106663500I0J237500D01*
G01*
G37*
%TD.AperFunction*%
%TO.P,R1,1*%
%TO.N,Net-(R1-Pad1)*%
%TA.AperFunction,SMDPad,CuDef*%
G36*
G01*
X156945500Y-106663500D02*
X156945500Y-106188500D01*
G75*
G02*
X157183000Y-105951000I237500J0D01*
G01*
X157683000Y-105951000D01*
G75*
G02*
X157920500Y-106188500I0J-237500D01*
G01*
X157920500Y-106663500D01*
G75*
G02*
X157683000Y-106901000I-237500J0D01*
G01*
X157183000Y-106901000D01*
G75*
G02*
X156945500Y-106663500I0J237500D01*
G01*
G37*
%TD.AperFunction*%
%TD*%
%TO.P,R2,1*%
%TO.N,Net-(R2-Pad1)*%
%TA.AperFunction,SMDPad,CuDef*%
G36*
G01*
X156945500Y-108441500D02*
X156945500Y-107966500D01*
G75*
G02*
X157183000Y-107729000I237500J0D01*
G01*
X157683000Y-107729000D01*
G75*
G02*
X157920500Y-107966500I0J-237500D01*
G01*
X157920500Y-108441500D01*
G75*
G02*
X157683000Y-108679000I-237500J0D01*
G01*
X157183000Y-108679000D01*
G75*
G02*
X156945500Y-108441500I0J237500D01*
G01*
G37*
%TD.AperFunction*%
%TO.P,R2,2*%
%TO.N,VDD3V3*%
%TA.AperFunction,SMDPad,CuDef*%
G36*
G01*
X158770500Y-108441500D02*
X158770500Y-107966500D01*
G75*
G02*
X159008000Y-107729000I237500J0D01*
G01*
X159508000Y-107729000D01*
G75*
G02*
X159745500Y-107966500I0J-237500D01*
G01*
X159745500Y-108441500D01*
G75*
G02*
X159508000Y-108679000I-237500J0D01*
G01*
X159008000Y-108679000D01*
G75*
G02*
X158770500Y-108441500I0J237500D01*
G01*
G37*
%TD.AperFunction*%
%TD*%
D19*
%TO.P,D1,1*%
%TO.N,VDD5V*%
X180086000Y-109762000D03*
%TO.P,D1,2*%
%TO.N,VIN*%
X180086000Y-107662000D03*
%TD*%
%TO.P,J1,1*%
%TO.N,VDD3V3*%
%TA.AperFunction,ComponentPad*%
G36*
G01*
X157512000Y-100547000D02*
X157512000Y-99097000D01*
G75*
G02*
X157762000Y-98847000I250000J0D01*
G01*
X158962000Y-98847000D01*
G75*
G02*
X159212000Y-99097000I0J-250000D01*
G01*
X159212000Y-100547000D01*
G75*
G02*
X158962000Y-100797000I-250000J0D01*
G01*
X157762000Y-100797000D01*
G75*
G02*
X157512000Y-100547000I0J250000D01*
G01*
G37*
%TD.AperFunction*%
D20*
%TO.P,J1,2*%
%TO.N,TXD*%
X160862000Y-99822000D03*
%TO.P,J1,3*%
%TO.N,RXD*%
X163362000Y-99822000D03*
%TO.P,J1,4*%
%TO.N,N/C*%
X165862000Y-99822000D03*
%TO.P,J1,5*%
X168362000Y-99822000D03*
%TO.P,J1,6*%
%TO.N,GND*%
X170862000Y-99822000D03*
%TD*%
%TO.P,R3,2*%
%TO.N,Net-(D2-Pad2)*%
%TA.AperFunction,SMDPad,CuDef*%
G36*
G01*
X172787500Y-106409500D02*
X172787500Y-105934500D01*
G75*
G02*
X173025000Y-105697000I237500J0D01*
G01*
X173525000Y-105697000D01*
G75*
G02*
X173762500Y-105934500I0J-237500D01*
G01*
X173762500Y-106409500D01*
G75*
G02*
X173525000Y-106647000I-237500J0D01*
G01*
X173025000Y-106647000D01*
G75*
G02*
X172787500Y-106409500I0J237500D01*
G01*
G37*
%TD.AperFunction*%
%TO.P,R3,1*%
%TO.N,VDD3V3*%
%TA.AperFunction,SMDPad,CuDef*%
G36*
G01*
X170962500Y-106409500D02*
X170962500Y-105934500D01*
G75*
G02*
X171200000Y-105697000I237500J0D01*
G01*
X171700000Y-105697000D01*
G75*
G02*
X171937500Y-105934500I0J-237500D01*
G01*
X171937500Y-106409500D01*
G75*
G02*
X171700000Y-106647000I-237500J0D01*
G01*
X171200000Y-106647000D01*
G75*
G02*
X170962500Y-106409500I0J237500D01*
G01*
G37*
%TD.AperFunction*%
%TD*%
%TO.P,R4,2*%
%TO.N,Net-(D3-Pad2)*%
%TA.AperFunction,SMDPad,CuDef*%
G36*
G01*
X172787500Y-108695500D02*
X172787500Y-108220500D01*
G75*
G02*
X173025000Y-107983000I237500J0D01*
G01*
X173525000Y-107983000D01*
G75*
G02*
X173762500Y-108220500I0J-237500D01*
G01*
X173762500Y-108695500D01*
G75*
G02*
X173525000Y-108933000I-237500J0D01*
G01*
X173025000Y-108933000D01*
G75*
G02*
X172787500Y-108695500I0J237500D01*
G01*
G37*
%TD.AperFunction*%
%TO.P,R4,1*%
%TO.N,TXD*%
%TA.AperFunction,SMDPad,CuDef*%
G36*
G01*
X170962500Y-108695500D02*
X170962500Y-108220500D01*
G75*
G02*
X171200000Y-107983000I237500J0D01*
G01*
X171700000Y-107983000D01*
G75*
G02*
X171937500Y-108220500I0J-237500D01*
G01*
X171937500Y-108695500D01*
G75*
G02*
X171700000Y-108933000I-237500J0D01*
G01*
X171200000Y-108933000D01*
G75*
G02*
X170962500Y-108695500I0J237500D01*
G01*
G37*
%TD.AperFunction*%
%TD*%
%TO.P,R5,1*%
%TO.N,Net-(D4-Pad2)*%
%TA.AperFunction,SMDPad,CuDef*%
G36*
G01*
X173762500Y-111014500D02*
X173762500Y-111489500D01*
G75*
G02*
X173525000Y-111727000I-237500J0D01*
G01*
X173025000Y-111727000D01*
G75*
G02*
X172787500Y-111489500I0J237500D01*
G01*
X172787500Y-111014500D01*
G75*
G02*
X173025000Y-110777000I237500J0D01*
G01*
X173525000Y-110777000D01*
G75*
G02*
X173762500Y-111014500I0J-237500D01*
G01*
G37*
%TD.AperFunction*%
%TO.P,R5,2*%
%TO.N,RXD*%
%TA.AperFunction,SMDPad,CuDef*%
G36*
G01*
X171937500Y-111014500D02*
X171937500Y-111489500D01*
G75*
G02*
X171700000Y-111727000I-237500J0D01*
G01*
X171200000Y-111727000D01*
G75*
G02*
X170962500Y-111489500I0J237500D01*
G01*
X170962500Y-111014500D01*
G75*
G02*
X171200000Y-110777000I237500J0D01*
G01*
X171700000Y-110777000D01*
G75*
G02*
X171937500Y-111014500I0J-237500D01*
G01*
G37*
%TD.AperFunction*%
%TD*%
D11*
%TO.P,SW1,1*%
%TO.N,Net-(R1-Pad1)*%
X158839000Y-115606000D03*
X166789000Y-115606000D03*
%TO.P,SW1,2*%
%TO.N,GND*%
X158839000Y-120106000D03*
X166789000Y-120106000D03*
%TD*%
D21*
%TO.N,VDD5V*%
X177800000Y-104394000D03*
X170688000Y-104902000D03*
%TO.N,GND*%
X179324000Y-111252000D03*
X181610000Y-111252000D03*
X157480000Y-118364000D03*
X157480000Y-113792000D03*
%TO.N,VDD3V3*%
X151130000Y-115570000D03*
X159258000Y-111252000D03*
X181610000Y-108966000D03*
X171196000Y-107442000D03*
%TO.N,TXD*%
X170434000Y-109220000D03*
X164084000Y-104140000D03*
X160862000Y-101680000D03*
X155448000Y-105410000D03*
%TO.N,RXD*%
X170180000Y-111760000D03*
X163322000Y-101600000D03*
X155448000Y-107442000D03*
%TO.N,SCL*%
X155956000Y-112268000D03*
X182880000Y-106426000D03*
%TO.N,SDA*%
X181610000Y-104648000D03*
X165608000Y-103632000D03*
X160528000Y-108966000D03*
X155956000Y-109982000D03*
%TO.N,Net-(R1-Pad1)*%
X156210000Y-106426000D03*
X135382000Y-106426000D03*
%TO.N,Net-(R2-Pad1)*%
X156210000Y-108204000D03*
X135382000Y-110236000D03*
%TD*%
D22*
%TO.N,VDD5V*%
X181610000Y-113284000D02*
X180086000Y-111760000D01*
X181610000Y-114808000D02*
X181610000Y-113284000D01*
X180086000Y-111760000D02*
X180086000Y-109762000D01*
X168860000Y-105650000D02*
X164338000Y-110172000D01*
X164338000Y-110172000D02*
X164338000Y-110744000D01*
X162560000Y-112522000D02*
X159258000Y-112522000D01*
X164338000Y-110744000D02*
X162560000Y-112522000D01*
X180086000Y-109762000D02*
X178850000Y-109762000D01*
X178850000Y-109762000D02*
X178308000Y-109220000D01*
X178308000Y-109220000D02*
X178308000Y-105156000D01*
X177800000Y-104648000D02*
X177800000Y-104394000D01*
X178308000Y-105156000D02*
X177800000Y-104648000D01*
X169608000Y-104902000D02*
X168860000Y-105650000D01*
X170688000Y-104902000D02*
X169608000Y-104902000D01*
%TO.N,GND*%
X170996000Y-99822000D02*
X170996000Y-100384000D01*
X168874000Y-110236000D02*
X168860000Y-110250000D01*
X157708000Y-112522000D02*
X157708000Y-109982000D01*
X158717000Y-120228000D02*
X158839000Y-120106000D01*
X153396000Y-120228000D02*
X158717000Y-120228000D01*
X158839000Y-120106000D02*
X166789000Y-120106000D01*
X166789000Y-120106000D02*
X169507000Y-120106000D01*
X169507000Y-120106000D02*
X177457000Y-120106000D01*
X179868000Y-120106000D02*
X182626000Y-117348000D01*
X177457000Y-120106000D02*
X179868000Y-120106000D01*
X182626000Y-117348000D02*
X185928000Y-117348000D01*
X185928000Y-117348000D02*
X186690000Y-116586000D01*
X186690000Y-116586000D02*
X186690000Y-114808000D01*
X177038000Y-100878000D02*
X177078000Y-100838000D01*
X177038000Y-105664000D02*
X177038000Y-100878000D01*
X177038000Y-105664000D02*
X177038000Y-108458000D01*
X177038000Y-110998000D02*
X177292000Y-111252000D01*
X177292000Y-111252000D02*
X179324000Y-111252000D01*
X182372000Y-111252000D02*
X183134000Y-110490000D01*
X181610000Y-111252000D02*
X182372000Y-111252000D01*
X184158000Y-110490000D02*
X184182000Y-110466000D01*
X183134000Y-110490000D02*
X184158000Y-110490000D01*
X184182000Y-110466000D02*
X184182000Y-111792000D01*
X184182000Y-111792000D02*
X185166000Y-112776000D01*
X185166000Y-112776000D02*
X185928000Y-112776000D01*
X185928000Y-112776000D02*
X186690000Y-113538000D01*
X186690000Y-113538000D02*
X186690000Y-114808000D01*
X158839000Y-120106000D02*
X158839000Y-118707000D01*
X158496000Y-118364000D02*
X157480000Y-118364000D01*
X158839000Y-118707000D02*
X158496000Y-118364000D01*
X157480000Y-112750000D02*
X157708000Y-112522000D01*
X157480000Y-113792000D02*
X157480000Y-112750000D01*
X176262000Y-110250000D02*
X177038000Y-109474000D01*
X168860000Y-110250000D02*
X176262000Y-110250000D01*
X177038000Y-109474000D02*
X177038000Y-110998000D01*
X177038000Y-108458000D02*
X177038000Y-109474000D01*
X171878000Y-100838000D02*
X170862000Y-99822000D01*
X177078000Y-100838000D02*
X171878000Y-100838000D01*
%TO.N,VDD3V3*%
X163093500Y-107416500D02*
X162560000Y-107950000D01*
X163093500Y-106253300D02*
X163093500Y-107416500D01*
X163093500Y-106253300D02*
X163093500Y-106172000D01*
X169114000Y-108204000D02*
X168860000Y-107950000D01*
D23*
X162306000Y-108204000D02*
X162560000Y-107950000D01*
X159258000Y-111252000D02*
X159258000Y-109982000D01*
D22*
X159258000Y-109982000D02*
X159258000Y-108204000D01*
X159258000Y-108204000D02*
X159258000Y-106426000D01*
X146472000Y-120228000D02*
X151130000Y-115570000D01*
X138196000Y-120228000D02*
X146472000Y-120228000D01*
X159258000Y-106426000D02*
X159258000Y-102616000D01*
X158362000Y-101720000D02*
X158362000Y-99822000D01*
X159258000Y-102616000D02*
X158362000Y-101720000D01*
X168860000Y-107950000D02*
X169926000Y-107950000D01*
X169926000Y-107950000D02*
X170434000Y-107442000D01*
X170434000Y-107442000D02*
X171196000Y-107442000D01*
X171450000Y-107188000D02*
X171450000Y-106172000D01*
X171196000Y-107442000D02*
X171450000Y-107188000D01*
X182110000Y-109466000D02*
X181610000Y-108966000D01*
X184182000Y-109466000D02*
X182110000Y-109466000D01*
X169757990Y-103004068D02*
X171450000Y-104696078D01*
X169757990Y-99531685D02*
X169757990Y-103004068D01*
X168819295Y-98592990D02*
X169757990Y-99531685D01*
X171450000Y-104696078D02*
X171450000Y-106172000D01*
X159591010Y-98592990D02*
X168819295Y-98592990D01*
X158362000Y-99822000D02*
X159591010Y-98592990D01*
%TO.N,VIN*%
X180086000Y-101346000D02*
X179578000Y-100838000D01*
X180086000Y-107662000D02*
X180086000Y-101346000D01*
%TO.N,TXD*%
X171196000Y-108458000D02*
X170434000Y-109220000D01*
X171450000Y-108458000D02*
X171196000Y-108458000D01*
X164084000Y-104140000D02*
X163322000Y-104140000D01*
X160862000Y-101680000D02*
X160862000Y-99822000D01*
X163322000Y-104140000D02*
X160862000Y-101680000D01*
X160862000Y-101680000D02*
X160862000Y-101680000D01*
X155448000Y-105410000D02*
X155448000Y-106172000D01*
X155448000Y-106172000D02*
X155194000Y-106426000D01*
X153594000Y-106426000D02*
X153396000Y-106228000D01*
X155194000Y-106426000D02*
X153594000Y-106426000D01*
%TO.N,RXD*%
X170688000Y-111252000D02*
X170180000Y-111760000D01*
X171450000Y-111252000D02*
X170688000Y-111252000D01*
X163322000Y-99862000D02*
X163362000Y-99822000D01*
X163322000Y-101600000D02*
X163322000Y-99862000D01*
X155448000Y-107442000D02*
X155448000Y-107950000D01*
X155448000Y-107950000D02*
X155194000Y-108204000D01*
X153420000Y-108204000D02*
X153396000Y-108228000D01*
X155194000Y-108204000D02*
X153420000Y-108204000D01*
%TO.N,DATA*%
X184150000Y-114808000D02*
X181356000Y-117602000D01*
X154900000Y-116228000D02*
X153396000Y-116228000D01*
X156274000Y-117602000D02*
X154900000Y-116228000D01*
X181356000Y-117602000D02*
X156274000Y-117602000D01*
%TO.N,SCL*%
X155916000Y-112228000D02*
X155956000Y-112268000D01*
X153396000Y-112228000D02*
X155916000Y-112228000D01*
X182880000Y-106426000D02*
X183642000Y-106426000D01*
X184182000Y-106966000D02*
X184182000Y-107466000D01*
X183642000Y-106426000D02*
X184182000Y-106966000D01*
%TO.N,SDA*%
X181610000Y-106669000D02*
X181610000Y-104648000D01*
X183407000Y-108466000D02*
X181610000Y-106669000D01*
X184182000Y-108466000D02*
X183407000Y-108466000D01*
X160528000Y-106624798D02*
X160528000Y-108966000D01*
X162358797Y-104794001D02*
X160528000Y-106624798D01*
X164445999Y-104794001D02*
X162358797Y-104794001D01*
X165608000Y-103632000D02*
X164445999Y-104794001D01*
X153642000Y-109982000D02*
X153396000Y-110228000D01*
X155956000Y-109982000D02*
X153642000Y-109982000D01*
%TO.N,Net-(D3-Pad2)*%
X175463000Y-108458000D02*
X173275000Y-108458000D01*
%TO.N,Net-(R1-Pad1)*%
X158839000Y-115606000D02*
X166789000Y-115606000D01*
X157433000Y-106426000D02*
X156210000Y-106426000D01*
X137998000Y-106426000D02*
X138196000Y-106228000D01*
X135382000Y-106426000D02*
X137998000Y-106426000D01*
X158412010Y-115179010D02*
X158839000Y-115606000D01*
X158412010Y-107405010D02*
X158412010Y-115179010D01*
X157433000Y-106426000D02*
X158412010Y-107405010D01*
%TO.N,Net-(R2-Pad1)*%
X157433000Y-108204000D02*
X156210000Y-108204000D01*
X138188000Y-110236000D02*
X138196000Y-110228000D01*
X135382000Y-110236000D02*
X138188000Y-110236000D01*
%TO.N,Net-(SW2-Pad1)*%
X169507000Y-115606000D02*
X177457000Y-115606000D01*
X169507000Y-115606000D02*
X169507000Y-115735000D01*
X169507000Y-115735000D02*
X168402000Y-116840000D01*
X168402000Y-116840000D02*
X157988000Y-116840000D01*
X155376000Y-114228000D02*
X153396000Y-114228000D01*
X157988000Y-116840000D02*
X155376000Y-114228000D01*
%TO.N,Net-(D2-Pad2)*%
X174955000Y-106172000D02*
X175463000Y-105664000D01*
X173275000Y-106172000D02*
X174955000Y-106172000D01*
%TO.N,Net-(D4-Pad2)*%
X175717000Y-111252000D02*
X173275000Y-111252000D01*
%TD*%
M02*
