M48
; DRILL file {KiCad (5.1.9)-1} date 03/26/21 20:29:05
; FORMAT={-:-/ absolute / inch / decimal}
; #@! TF.CreationDate,2021-03-26T20:29:05-04:00
; #@! TF.GenerationSoftware,Kicad,Pcbnew,(5.1.9)-1
; #@! TF.FileFunction,Plated,1,2,PTH
FMAT,2
INCH
T1C0.0157
T2C0.0295
T3C0.0394
T4C0.0433
T5C0.1260
%
G90
G05
T1
X1.35Y-1.75
X1.6343Y-1.7857
X2.0384Y-1.3234
X2.1071Y-1.3147
X2.1603Y-1.5166
X2.6289Y-1.7889
T2
X2.6801Y-1.0376
X2.7589Y-1.0376
T3
X1.95Y-1.05
X2.05Y-1.05
X2.15Y-1.05
X2.25Y-1.05
X2.35Y-1.05
X2.45Y-1.05
X2.65Y-1.6
X2.75Y-1.6
X2.85Y-1.6
T4
X1.95Y-1.2
X1.95Y-1.6
T5
X0.94Y-1.05
X0.94Y-1.82
X3.0Y-1.05
X3.0Y-1.82
T0
M30
