%TF.GenerationSoftware,KiCad,Pcbnew,(5.1.9)-1*%
%TF.CreationDate,2021-05-29T10:09:57-04:00*%
%TF.ProjectId,wled,776c6564-2e6b-4696-9361-645f70636258,rev?*%
%TF.SameCoordinates,Original*%
%TF.FileFunction,Soldermask,Top*%
%TF.FilePolarity,Negative*%
%FSLAX46Y46*%
G04 Gerber Fmt 4.6, Leading zero omitted, Abs format (unit mm)*
G04 Created by KiCad (PCBNEW (5.1.9)-1) date 2021-05-29 10:09:57*
%MOMM*%
%LPD*%
G01*
G04 APERTURE LIST*
%ADD10R,1.550000X1.300000*%
%ADD11R,2.000000X3.800000*%
%ADD12R,2.000000X1.500000*%
%ADD13R,2.500000X1.000000*%
%ADD14R,1.000000X1.800000*%
%ADD15C,5.600000*%
%ADD16R,1.700000X1.700000*%
%ADD17O,1.700000X1.700000*%
%ADD18R,0.600000X0.450000*%
%ADD19O,1.700000X1.950000*%
%ADD20O,1.700000X2.000000*%
G04 APERTURE END LIST*
D10*
%TO.C,FLASH*%
X173647000Y-120106000D03*
X165697000Y-120106000D03*
X173647000Y-115606000D03*
X165697000Y-115606000D03*
%TD*%
%TO.C,J3*%
G36*
G01*
X188707001Y-106766000D02*
X187406999Y-106766000D01*
G75*
G02*
X187157000Y-106516001I0J249999D01*
G01*
X187157000Y-105815999D01*
G75*
G02*
X187406999Y-105566000I249999J0D01*
G01*
X188707001Y-105566000D01*
G75*
G02*
X188957000Y-105815999I0J-249999D01*
G01*
X188957000Y-106516001D01*
G75*
G02*
X188707001Y-106766000I-249999J0D01*
G01*
G37*
G36*
G01*
X188707001Y-112366000D02*
X187406999Y-112366000D01*
G75*
G02*
X187157000Y-112116001I0J249999D01*
G01*
X187157000Y-111415999D01*
G75*
G02*
X187406999Y-111166000I249999J0D01*
G01*
X188707001Y-111166000D01*
G75*
G02*
X188957000Y-111415999I0J-249999D01*
G01*
X188957000Y-112116001D01*
G75*
G02*
X188707001Y-112366000I-249999J0D01*
G01*
G37*
G36*
G01*
X184807000Y-107766000D02*
X183557000Y-107766000D01*
G75*
G02*
X183407000Y-107616000I0J150000D01*
G01*
X183407000Y-107316000D01*
G75*
G02*
X183557000Y-107166000I150000J0D01*
G01*
X184807000Y-107166000D01*
G75*
G02*
X184957000Y-107316000I0J-150000D01*
G01*
X184957000Y-107616000D01*
G75*
G02*
X184807000Y-107766000I-150000J0D01*
G01*
G37*
G36*
G01*
X184807000Y-108766000D02*
X183557000Y-108766000D01*
G75*
G02*
X183407000Y-108616000I0J150000D01*
G01*
X183407000Y-108316000D01*
G75*
G02*
X183557000Y-108166000I150000J0D01*
G01*
X184807000Y-108166000D01*
G75*
G02*
X184957000Y-108316000I0J-150000D01*
G01*
X184957000Y-108616000D01*
G75*
G02*
X184807000Y-108766000I-150000J0D01*
G01*
G37*
G36*
G01*
X184807000Y-109766000D02*
X183557000Y-109766000D01*
G75*
G02*
X183407000Y-109616000I0J150000D01*
G01*
X183407000Y-109316000D01*
G75*
G02*
X183557000Y-109166000I150000J0D01*
G01*
X184807000Y-109166000D01*
G75*
G02*
X184957000Y-109316000I0J-150000D01*
G01*
X184957000Y-109616000D01*
G75*
G02*
X184807000Y-109766000I-150000J0D01*
G01*
G37*
G36*
G01*
X184807000Y-110766000D02*
X183557000Y-110766000D01*
G75*
G02*
X183407000Y-110616000I0J150000D01*
G01*
X183407000Y-110316000D01*
G75*
G02*
X183557000Y-110166000I150000J0D01*
G01*
X184807000Y-110166000D01*
G75*
G02*
X184957000Y-110316000I0J-150000D01*
G01*
X184957000Y-110616000D01*
G75*
G02*
X184807000Y-110766000I-150000J0D01*
G01*
G37*
%TD*%
D11*
%TO.C,U2*%
X162560000Y-107950000D03*
D12*
X168860000Y-107950000D03*
X168860000Y-105650000D03*
X168860000Y-110250000D03*
%TD*%
D13*
%TO.C,U1*%
X138196000Y-106228000D03*
X138196000Y-108228000D03*
X138196000Y-110228000D03*
X138196000Y-112228000D03*
X138196000Y-114228000D03*
X138196000Y-116228000D03*
X138196000Y-118228000D03*
X138196000Y-120228000D03*
D14*
X140796000Y-121728000D03*
X142796000Y-121728000D03*
X144796000Y-121728000D03*
X146796000Y-121728000D03*
X148796000Y-121728000D03*
X150796000Y-121728000D03*
D13*
X153396000Y-120228000D03*
X153396000Y-118228000D03*
X153396000Y-116228000D03*
X153396000Y-114228000D03*
X153396000Y-112228000D03*
X153396000Y-110228000D03*
X153396000Y-108228000D03*
X153396000Y-106228000D03*
%TD*%
%TO.C,PWR*%
G36*
G01*
X175889500Y-105920250D02*
X175889500Y-105407750D01*
G75*
G02*
X176108250Y-105189000I218750J0D01*
G01*
X176545750Y-105189000D01*
G75*
G02*
X176764500Y-105407750I0J-218750D01*
G01*
X176764500Y-105920250D01*
G75*
G02*
X176545750Y-106139000I-218750J0D01*
G01*
X176108250Y-106139000D01*
G75*
G02*
X175889500Y-105920250I0J218750D01*
G01*
G37*
G36*
G01*
X174314500Y-105920250D02*
X174314500Y-105407750D01*
G75*
G02*
X174533250Y-105189000I218750J0D01*
G01*
X174970750Y-105189000D01*
G75*
G02*
X175189500Y-105407750I0J-218750D01*
G01*
X175189500Y-105920250D01*
G75*
G02*
X174970750Y-106139000I-218750J0D01*
G01*
X174533250Y-106139000D01*
G75*
G02*
X174314500Y-105920250I0J218750D01*
G01*
G37*
%TD*%
%TO.C,C2*%
G36*
G01*
X157904000Y-111002000D02*
X157904000Y-111502000D01*
G75*
G02*
X157679000Y-111727000I-225000J0D01*
G01*
X157229000Y-111727000D01*
G75*
G02*
X157004000Y-111502000I0J225000D01*
G01*
X157004000Y-111002000D01*
G75*
G02*
X157229000Y-110777000I225000J0D01*
G01*
X157679000Y-110777000D01*
G75*
G02*
X157904000Y-111002000I0J-225000D01*
G01*
G37*
G36*
G01*
X159454000Y-111002000D02*
X159454000Y-111502000D01*
G75*
G02*
X159229000Y-111727000I-225000J0D01*
G01*
X158779000Y-111727000D01*
G75*
G02*
X158554000Y-111502000I0J225000D01*
G01*
X158554000Y-111002000D01*
G75*
G02*
X158779000Y-110777000I225000J0D01*
G01*
X159229000Y-110777000D01*
G75*
G02*
X159454000Y-111002000I0J-225000D01*
G01*
G37*
%TD*%
%TO.C,C1*%
G36*
G01*
X157904000Y-106176000D02*
X157904000Y-106676000D01*
G75*
G02*
X157679000Y-106901000I-225000J0D01*
G01*
X157229000Y-106901000D01*
G75*
G02*
X157004000Y-106676000I0J225000D01*
G01*
X157004000Y-106176000D01*
G75*
G02*
X157229000Y-105951000I225000J0D01*
G01*
X157679000Y-105951000D01*
G75*
G02*
X157904000Y-106176000I0J-225000D01*
G01*
G37*
G36*
G01*
X159454000Y-106176000D02*
X159454000Y-106676000D01*
G75*
G02*
X159229000Y-106901000I-225000J0D01*
G01*
X158779000Y-106901000D01*
G75*
G02*
X158554000Y-106676000I0J225000D01*
G01*
X158554000Y-106176000D01*
G75*
G02*
X158779000Y-105951000I225000J0D01*
G01*
X159229000Y-105951000D01*
G75*
G02*
X159454000Y-106176000I0J-225000D01*
G01*
G37*
%TD*%
D15*
%TO.C,H4*%
X185166000Y-120650000D03*
%TD*%
%TO.C,H3*%
X185166000Y-101092000D03*
%TD*%
%TO.C,H2*%
X132842000Y-101092000D03*
%TD*%
%TO.C,H1*%
X132842000Y-120650000D03*
%TD*%
D16*
%TO.C,J2*%
X180086000Y-114427000D03*
D17*
X180086000Y-116967000D03*
X180086000Y-119507000D03*
%TD*%
%TO.C,TXD*%
G36*
G01*
X175838500Y-108968250D02*
X175838500Y-108455750D01*
G75*
G02*
X176057250Y-108237000I218750J0D01*
G01*
X176494750Y-108237000D01*
G75*
G02*
X176713500Y-108455750I0J-218750D01*
G01*
X176713500Y-108968250D01*
G75*
G02*
X176494750Y-109187000I-218750J0D01*
G01*
X176057250Y-109187000D01*
G75*
G02*
X175838500Y-108968250I0J218750D01*
G01*
G37*
G36*
G01*
X174263500Y-108968250D02*
X174263500Y-108455750D01*
G75*
G02*
X174482250Y-108237000I218750J0D01*
G01*
X174919750Y-108237000D01*
G75*
G02*
X175138500Y-108455750I0J-218750D01*
G01*
X175138500Y-108968250D01*
G75*
G02*
X174919750Y-109187000I-218750J0D01*
G01*
X174482250Y-109187000D01*
G75*
G02*
X174263500Y-108968250I0J218750D01*
G01*
G37*
%TD*%
%TO.C,RXD*%
G36*
G01*
X174263500Y-112016250D02*
X174263500Y-111503750D01*
G75*
G02*
X174482250Y-111285000I218750J0D01*
G01*
X174919750Y-111285000D01*
G75*
G02*
X175138500Y-111503750I0J-218750D01*
G01*
X175138500Y-112016250D01*
G75*
G02*
X174919750Y-112235000I-218750J0D01*
G01*
X174482250Y-112235000D01*
G75*
G02*
X174263500Y-112016250I0J218750D01*
G01*
G37*
G36*
G01*
X175838500Y-112016250D02*
X175838500Y-111503750D01*
G75*
G02*
X176057250Y-111285000I218750J0D01*
G01*
X176494750Y-111285000D01*
G75*
G02*
X176713500Y-111503750I0J-218750D01*
G01*
X176713500Y-112016250D01*
G75*
G02*
X176494750Y-112235000I-218750J0D01*
G01*
X176057250Y-112235000D01*
G75*
G02*
X175838500Y-112016250I0J218750D01*
G01*
G37*
%TD*%
%TO.C,R1*%
G36*
G01*
X159937000Y-115045500D02*
X159937000Y-114570500D01*
G75*
G02*
X160174500Y-114333000I237500J0D01*
G01*
X160674500Y-114333000D01*
G75*
G02*
X160912000Y-114570500I0J-237500D01*
G01*
X160912000Y-115045500D01*
G75*
G02*
X160674500Y-115283000I-237500J0D01*
G01*
X160174500Y-115283000D01*
G75*
G02*
X159937000Y-115045500I0J237500D01*
G01*
G37*
G36*
G01*
X158112000Y-115045500D02*
X158112000Y-114570500D01*
G75*
G02*
X158349500Y-114333000I237500J0D01*
G01*
X158849500Y-114333000D01*
G75*
G02*
X159087000Y-114570500I0J-237500D01*
G01*
X159087000Y-115045500D01*
G75*
G02*
X158849500Y-115283000I-237500J0D01*
G01*
X158349500Y-115283000D01*
G75*
G02*
X158112000Y-115045500I0J237500D01*
G01*
G37*
%TD*%
%TO.C,R2*%
G36*
G01*
X158008500Y-118347500D02*
X158008500Y-117872500D01*
G75*
G02*
X158246000Y-117635000I237500J0D01*
G01*
X158746000Y-117635000D01*
G75*
G02*
X158983500Y-117872500I0J-237500D01*
G01*
X158983500Y-118347500D01*
G75*
G02*
X158746000Y-118585000I-237500J0D01*
G01*
X158246000Y-118585000D01*
G75*
G02*
X158008500Y-118347500I0J237500D01*
G01*
G37*
G36*
G01*
X159833500Y-118347500D02*
X159833500Y-117872500D01*
G75*
G02*
X160071000Y-117635000I237500J0D01*
G01*
X160571000Y-117635000D01*
G75*
G02*
X160808500Y-117872500I0J-237500D01*
G01*
X160808500Y-118347500D01*
G75*
G02*
X160571000Y-118585000I-237500J0D01*
G01*
X160071000Y-118585000D01*
G75*
G02*
X159833500Y-118347500I0J237500D01*
G01*
G37*
%TD*%
D18*
%TO.C,D1*%
X179036000Y-108712000D03*
X181136000Y-108712000D03*
%TD*%
%TO.C,J1*%
G36*
G01*
X157646000Y-100547000D02*
X157646000Y-99097000D01*
G75*
G02*
X157896000Y-98847000I250000J0D01*
G01*
X159096000Y-98847000D01*
G75*
G02*
X159346000Y-99097000I0J-250000D01*
G01*
X159346000Y-100547000D01*
G75*
G02*
X159096000Y-100797000I-250000J0D01*
G01*
X157896000Y-100797000D01*
G75*
G02*
X157646000Y-100547000I0J250000D01*
G01*
G37*
D19*
X160996000Y-99822000D03*
X163496000Y-99822000D03*
X165996000Y-99822000D03*
X168496000Y-99822000D03*
X170996000Y-99822000D03*
%TD*%
%TO.C,J4*%
G36*
G01*
X176101000Y-100572000D02*
X176101000Y-99072000D01*
G75*
G02*
X176351000Y-98822000I250000J0D01*
G01*
X177551000Y-98822000D01*
G75*
G02*
X177801000Y-99072000I0J-250000D01*
G01*
X177801000Y-100572000D01*
G75*
G02*
X177551000Y-100822000I-250000J0D01*
G01*
X176351000Y-100822000D01*
G75*
G02*
X176101000Y-100572000I0J250000D01*
G01*
G37*
D20*
X179451000Y-99822000D03*
%TD*%
M02*
