%TF.GenerationSoftware,KiCad,Pcbnew,(5.1.9)-1*%
%TF.CreationDate,2021-05-29T10:09:57-04:00*%
%TF.ProjectId,wled,776c6564-2e6b-4696-9361-645f70636258,rev?*%
%TF.SameCoordinates,Original*%
%TF.FileFunction,Legend,Top*%
%TF.FilePolarity,Positive*%
%FSLAX46Y46*%
G04 Gerber Fmt 4.6, Leading zero omitted, Abs format (unit mm)*
G04 Created by KiCad (PCBNEW (5.1.9)-1) date 2021-05-29 10:09:57*
%MOMM*%
%LPD*%
G01*
G04 APERTURE LIST*
%ADD10C,0.150000*%
%ADD11C,0.010000*%
%ADD12C,0.120000*%
G04 APERTURE END LIST*
D10*
X157544666Y-122578761D02*
X157449428Y-122626380D01*
X157258952Y-122626380D01*
X157163714Y-122578761D01*
X157116095Y-122483523D01*
X157116095Y-122102571D01*
X157163714Y-122007333D01*
X157258952Y-121959714D01*
X157449428Y-121959714D01*
X157544666Y-122007333D01*
X157592285Y-122102571D01*
X157592285Y-122197809D01*
X157116095Y-122293047D01*
X157973238Y-122578761D02*
X158068476Y-122626380D01*
X158258952Y-122626380D01*
X158354190Y-122578761D01*
X158401809Y-122483523D01*
X158401809Y-122435904D01*
X158354190Y-122340666D01*
X158258952Y-122293047D01*
X158116095Y-122293047D01*
X158020857Y-122245428D01*
X157973238Y-122150190D01*
X157973238Y-122102571D01*
X158020857Y-122007333D01*
X158116095Y-121959714D01*
X158258952Y-121959714D01*
X158354190Y-122007333D01*
X158830380Y-121959714D02*
X158830380Y-122959714D01*
X158830380Y-122007333D02*
X158925619Y-121959714D01*
X159116095Y-121959714D01*
X159211333Y-122007333D01*
X159258952Y-122054952D01*
X159306571Y-122150190D01*
X159306571Y-122435904D01*
X159258952Y-122531142D01*
X159211333Y-122578761D01*
X159116095Y-122626380D01*
X158925619Y-122626380D01*
X158830380Y-122578761D01*
X159878000Y-122054952D02*
X159782761Y-122007333D01*
X159735142Y-121959714D01*
X159687523Y-121864476D01*
X159687523Y-121816857D01*
X159735142Y-121721619D01*
X159782761Y-121674000D01*
X159878000Y-121626380D01*
X160068476Y-121626380D01*
X160163714Y-121674000D01*
X160211333Y-121721619D01*
X160258952Y-121816857D01*
X160258952Y-121864476D01*
X160211333Y-121959714D01*
X160163714Y-122007333D01*
X160068476Y-122054952D01*
X159878000Y-122054952D01*
X159782761Y-122102571D01*
X159735142Y-122150190D01*
X159687523Y-122245428D01*
X159687523Y-122435904D01*
X159735142Y-122531142D01*
X159782761Y-122578761D01*
X159878000Y-122626380D01*
X160068476Y-122626380D01*
X160163714Y-122578761D01*
X160211333Y-122531142D01*
X160258952Y-122435904D01*
X160258952Y-122245428D01*
X160211333Y-122150190D01*
X160163714Y-122102571D01*
X160068476Y-122054952D01*
X160639904Y-121721619D02*
X160687523Y-121674000D01*
X160782761Y-121626380D01*
X161020857Y-121626380D01*
X161116095Y-121674000D01*
X161163714Y-121721619D01*
X161211333Y-121816857D01*
X161211333Y-121912095D01*
X161163714Y-122054952D01*
X160592285Y-122626380D01*
X161211333Y-122626380D01*
X162068476Y-121626380D02*
X161878000Y-121626380D01*
X161782761Y-121674000D01*
X161735142Y-121721619D01*
X161639904Y-121864476D01*
X161592285Y-122054952D01*
X161592285Y-122435904D01*
X161639904Y-122531142D01*
X161687523Y-122578761D01*
X161782761Y-122626380D01*
X161973238Y-122626380D01*
X162068476Y-122578761D01*
X162116095Y-122531142D01*
X162163714Y-122435904D01*
X162163714Y-122197809D01*
X162116095Y-122102571D01*
X162068476Y-122054952D01*
X161973238Y-122007333D01*
X161782761Y-122007333D01*
X161687523Y-122054952D01*
X161639904Y-122102571D01*
X161592285Y-122197809D01*
X163020857Y-121626380D02*
X162830380Y-121626380D01*
X162735142Y-121674000D01*
X162687523Y-121721619D01*
X162592285Y-121864476D01*
X162544666Y-122054952D01*
X162544666Y-122435904D01*
X162592285Y-122531142D01*
X162639904Y-122578761D01*
X162735142Y-122626380D01*
X162925619Y-122626380D01*
X163020857Y-122578761D01*
X163068476Y-122531142D01*
X163116095Y-122435904D01*
X163116095Y-122197809D01*
X163068476Y-122102571D01*
X163020857Y-122054952D01*
X162925619Y-122007333D01*
X162735142Y-122007333D01*
X162639904Y-122054952D01*
X162592285Y-122102571D01*
X162544666Y-122197809D01*
X164211333Y-121959714D02*
X164401809Y-122626380D01*
X164592285Y-122150190D01*
X164782761Y-122626380D01*
X164973238Y-121959714D01*
X165830380Y-122626380D02*
X165354190Y-122626380D01*
X165354190Y-121626380D01*
X166163714Y-122102571D02*
X166497047Y-122102571D01*
X166639904Y-122626380D02*
X166163714Y-122626380D01*
X166163714Y-121626380D01*
X166639904Y-121626380D01*
X167068476Y-122626380D02*
X167068476Y-121626380D01*
X167306571Y-121626380D01*
X167449428Y-121674000D01*
X167544666Y-121769238D01*
X167592285Y-121864476D01*
X167639904Y-122054952D01*
X167639904Y-122197809D01*
X167592285Y-122388285D01*
X167544666Y-122483523D01*
X167449428Y-122578761D01*
X167306571Y-122626380D01*
X167068476Y-122626380D01*
X169163714Y-122102571D02*
X169306571Y-122150190D01*
X169354190Y-122197809D01*
X169401809Y-122293047D01*
X169401809Y-122435904D01*
X169354190Y-122531142D01*
X169306571Y-122578761D01*
X169211333Y-122626380D01*
X168830380Y-122626380D01*
X168830380Y-121626380D01*
X169163714Y-121626380D01*
X169258952Y-121674000D01*
X169306571Y-121721619D01*
X169354190Y-121816857D01*
X169354190Y-121912095D01*
X169306571Y-122007333D01*
X169258952Y-122054952D01*
X169163714Y-122102571D01*
X168830380Y-122102571D01*
X169973238Y-122626380D02*
X169878000Y-122578761D01*
X169830380Y-122531142D01*
X169782761Y-122435904D01*
X169782761Y-122150190D01*
X169830380Y-122054952D01*
X169878000Y-122007333D01*
X169973238Y-121959714D01*
X170116095Y-121959714D01*
X170211333Y-122007333D01*
X170258952Y-122054952D01*
X170306571Y-122150190D01*
X170306571Y-122435904D01*
X170258952Y-122531142D01*
X170211333Y-122578761D01*
X170116095Y-122626380D01*
X169973238Y-122626380D01*
X171163714Y-122626380D02*
X171163714Y-122102571D01*
X171116095Y-122007333D01*
X171020857Y-121959714D01*
X170830380Y-121959714D01*
X170735142Y-122007333D01*
X171163714Y-122578761D02*
X171068476Y-122626380D01*
X170830380Y-122626380D01*
X170735142Y-122578761D01*
X170687523Y-122483523D01*
X170687523Y-122388285D01*
X170735142Y-122293047D01*
X170830380Y-122245428D01*
X171068476Y-122245428D01*
X171163714Y-122197809D01*
X171639904Y-122626380D02*
X171639904Y-121959714D01*
X171639904Y-122150190D02*
X171687523Y-122054952D01*
X171735142Y-122007333D01*
X171830380Y-121959714D01*
X171925619Y-121959714D01*
X172687523Y-122626380D02*
X172687523Y-121626380D01*
X172687523Y-122578761D02*
X172592285Y-122626380D01*
X172401809Y-122626380D01*
X172306571Y-122578761D01*
X172258952Y-122531142D01*
X172211333Y-122435904D01*
X172211333Y-122150190D01*
X172258952Y-122054952D01*
X172306571Y-122007333D01*
X172401809Y-121959714D01*
X172592285Y-121959714D01*
X172687523Y-122007333D01*
X173830380Y-121959714D02*
X174068476Y-122626380D01*
X174306571Y-121959714D01*
X174878000Y-121626380D02*
X174973238Y-121626380D01*
X175068476Y-121674000D01*
X175116095Y-121721619D01*
X175163714Y-121816857D01*
X175211333Y-122007333D01*
X175211333Y-122245428D01*
X175163714Y-122435904D01*
X175116095Y-122531142D01*
X175068476Y-122578761D01*
X174973238Y-122626380D01*
X174878000Y-122626380D01*
X174782761Y-122578761D01*
X174735142Y-122531142D01*
X174687523Y-122435904D01*
X174639904Y-122245428D01*
X174639904Y-122007333D01*
X174687523Y-121816857D01*
X174735142Y-121721619D01*
X174782761Y-121674000D01*
X174878000Y-121626380D01*
X175639904Y-122531142D02*
X175687523Y-122578761D01*
X175639904Y-122626380D01*
X175592285Y-122578761D01*
X175639904Y-122531142D01*
X175639904Y-122626380D01*
X176068476Y-121721619D02*
X176116095Y-121674000D01*
X176211333Y-121626380D01*
X176449428Y-121626380D01*
X176544666Y-121674000D01*
X176592285Y-121721619D01*
X176639904Y-121816857D01*
X176639904Y-121912095D01*
X176592285Y-122054952D01*
X176020857Y-122626380D01*
X176639904Y-122626380D01*
X157449619Y-123737714D02*
X157449619Y-124547238D01*
X157402000Y-124642476D01*
X157354380Y-124690095D01*
X157259142Y-124737714D01*
X157116285Y-124737714D01*
X157021047Y-124690095D01*
X157449619Y-124356761D02*
X157354380Y-124404380D01*
X157163904Y-124404380D01*
X157068666Y-124356761D01*
X157021047Y-124309142D01*
X156973428Y-124213904D01*
X156973428Y-123928190D01*
X157021047Y-123832952D01*
X157068666Y-123785333D01*
X157163904Y-123737714D01*
X157354380Y-123737714D01*
X157449619Y-123785333D01*
X157925809Y-124404380D02*
X157925809Y-123737714D01*
X157925809Y-123404380D02*
X157878190Y-123452000D01*
X157925809Y-123499619D01*
X157973428Y-123452000D01*
X157925809Y-123404380D01*
X157925809Y-123499619D01*
X158259142Y-123737714D02*
X158640095Y-123737714D01*
X158402000Y-123404380D02*
X158402000Y-124261523D01*
X158449619Y-124356761D01*
X158544857Y-124404380D01*
X158640095Y-124404380D01*
X158973428Y-124404380D02*
X158973428Y-123404380D01*
X159402000Y-124404380D02*
X159402000Y-123880571D01*
X159354380Y-123785333D01*
X159259142Y-123737714D01*
X159116285Y-123737714D01*
X159021047Y-123785333D01*
X158973428Y-123832952D01*
X160306761Y-123737714D02*
X160306761Y-124404380D01*
X159878190Y-123737714D02*
X159878190Y-124261523D01*
X159925809Y-124356761D01*
X160021047Y-124404380D01*
X160163904Y-124404380D01*
X160259142Y-124356761D01*
X160306761Y-124309142D01*
X160782952Y-124404380D02*
X160782952Y-123404380D01*
X160782952Y-123785333D02*
X160878190Y-123737714D01*
X161068666Y-123737714D01*
X161163904Y-123785333D01*
X161211523Y-123832952D01*
X161259142Y-123928190D01*
X161259142Y-124213904D01*
X161211523Y-124309142D01*
X161163904Y-124356761D01*
X161068666Y-124404380D01*
X160878190Y-124404380D01*
X160782952Y-124356761D01*
X161687714Y-124309142D02*
X161735333Y-124356761D01*
X161687714Y-124404380D01*
X161640095Y-124356761D01*
X161687714Y-124309142D01*
X161687714Y-124404380D01*
X162592476Y-124356761D02*
X162497238Y-124404380D01*
X162306761Y-124404380D01*
X162211523Y-124356761D01*
X162163904Y-124309142D01*
X162116285Y-124213904D01*
X162116285Y-123928190D01*
X162163904Y-123832952D01*
X162211523Y-123785333D01*
X162306761Y-123737714D01*
X162497238Y-123737714D01*
X162592476Y-123785333D01*
X163163904Y-124404380D02*
X163068666Y-124356761D01*
X163021047Y-124309142D01*
X162973428Y-124213904D01*
X162973428Y-123928190D01*
X163021047Y-123832952D01*
X163068666Y-123785333D01*
X163163904Y-123737714D01*
X163306761Y-123737714D01*
X163402000Y-123785333D01*
X163449619Y-123832952D01*
X163497238Y-123928190D01*
X163497238Y-124213904D01*
X163449619Y-124309142D01*
X163402000Y-124356761D01*
X163306761Y-124404380D01*
X163163904Y-124404380D01*
X163925809Y-124404380D02*
X163925809Y-123737714D01*
X163925809Y-123832952D02*
X163973428Y-123785333D01*
X164068666Y-123737714D01*
X164211523Y-123737714D01*
X164306761Y-123785333D01*
X164354380Y-123880571D01*
X164354380Y-124404380D01*
X164354380Y-123880571D02*
X164402000Y-123785333D01*
X164497238Y-123737714D01*
X164640095Y-123737714D01*
X164735333Y-123785333D01*
X164782952Y-123880571D01*
X164782952Y-124404380D01*
X165973428Y-123356761D02*
X165116285Y-124642476D01*
X166735333Y-123737714D02*
X166735333Y-124547238D01*
X166687714Y-124642476D01*
X166640095Y-124690095D01*
X166544857Y-124737714D01*
X166402000Y-124737714D01*
X166306761Y-124690095D01*
X166735333Y-124356761D02*
X166640095Y-124404380D01*
X166449619Y-124404380D01*
X166354380Y-124356761D01*
X166306761Y-124309142D01*
X166259142Y-124213904D01*
X166259142Y-123928190D01*
X166306761Y-123832952D01*
X166354380Y-123785333D01*
X166449619Y-123737714D01*
X166640095Y-123737714D01*
X166735333Y-123785333D01*
X167211523Y-124404380D02*
X167211523Y-123737714D01*
X167211523Y-123832952D02*
X167259142Y-123785333D01*
X167354380Y-123737714D01*
X167497238Y-123737714D01*
X167592476Y-123785333D01*
X167640095Y-123880571D01*
X167640095Y-124404380D01*
X167640095Y-123880571D02*
X167687714Y-123785333D01*
X167782952Y-123737714D01*
X167925809Y-123737714D01*
X168021047Y-123785333D01*
X168068666Y-123880571D01*
X168068666Y-124404380D01*
X168973428Y-124404380D02*
X168973428Y-123880571D01*
X168925809Y-123785333D01*
X168830571Y-123737714D01*
X168640095Y-123737714D01*
X168544857Y-123785333D01*
X168973428Y-124356761D02*
X168878190Y-124404380D01*
X168640095Y-124404380D01*
X168544857Y-124356761D01*
X168497238Y-124261523D01*
X168497238Y-124166285D01*
X168544857Y-124071047D01*
X168640095Y-124023428D01*
X168878190Y-124023428D01*
X168973428Y-123975809D01*
X169878190Y-124356761D02*
X169782952Y-124404380D01*
X169592476Y-124404380D01*
X169497238Y-124356761D01*
X169449619Y-124309142D01*
X169402000Y-124213904D01*
X169402000Y-123928190D01*
X169449619Y-123832952D01*
X169497238Y-123785333D01*
X169592476Y-123737714D01*
X169782952Y-123737714D01*
X169878190Y-123785333D01*
X170306761Y-124404380D02*
X170306761Y-123404380D01*
X170402000Y-124023428D02*
X170687714Y-124404380D01*
X170687714Y-123737714D02*
X170306761Y-124118666D01*
X171116285Y-124404380D02*
X171116285Y-123737714D01*
X171116285Y-123404380D02*
X171068666Y-123452000D01*
X171116285Y-123499619D01*
X171163904Y-123452000D01*
X171116285Y-123404380D01*
X171116285Y-123499619D01*
X171973428Y-124356761D02*
X171878190Y-124404380D01*
X171687714Y-124404380D01*
X171592476Y-124356761D01*
X171544857Y-124261523D01*
X171544857Y-123880571D01*
X171592476Y-123785333D01*
X171687714Y-123737714D01*
X171878190Y-123737714D01*
X171973428Y-123785333D01*
X172021047Y-123880571D01*
X172021047Y-123975809D01*
X171544857Y-124071047D01*
X173163904Y-123356761D02*
X172306761Y-124642476D01*
X173402000Y-123737714D02*
X173592476Y-124404380D01*
X173782952Y-123928190D01*
X173973428Y-124404380D01*
X174163904Y-123737714D01*
X174687714Y-124404380D02*
X174592476Y-124356761D01*
X174544857Y-124261523D01*
X174544857Y-123404380D01*
X175449619Y-124356761D02*
X175354380Y-124404380D01*
X175163904Y-124404380D01*
X175068666Y-124356761D01*
X175021047Y-124261523D01*
X175021047Y-123880571D01*
X175068666Y-123785333D01*
X175163904Y-123737714D01*
X175354380Y-123737714D01*
X175449619Y-123785333D01*
X175497238Y-123880571D01*
X175497238Y-123975809D01*
X175021047Y-124071047D01*
X176354380Y-124404380D02*
X176354380Y-123404380D01*
X176354380Y-124356761D02*
X176259142Y-124404380D01*
X176068666Y-124404380D01*
X175973428Y-124356761D01*
X175925809Y-124309142D01*
X175878190Y-124213904D01*
X175878190Y-123928190D01*
X175925809Y-123832952D01*
X175973428Y-123785333D01*
X176068666Y-123737714D01*
X176259142Y-123737714D01*
X176354380Y-123785333D01*
X176592476Y-124499619D02*
X177354380Y-124499619D01*
X177592476Y-123737714D02*
X177592476Y-124737714D01*
X177592476Y-123785333D02*
X177687714Y-123737714D01*
X177878190Y-123737714D01*
X177973428Y-123785333D01*
X178021047Y-123832952D01*
X178068666Y-123928190D01*
X178068666Y-124213904D01*
X178021047Y-124309142D01*
X177973428Y-124356761D01*
X177878190Y-124404380D01*
X177687714Y-124404380D01*
X177592476Y-124356761D01*
X178925809Y-124356761D02*
X178830571Y-124404380D01*
X178640095Y-124404380D01*
X178544857Y-124356761D01*
X178497238Y-124309142D01*
X178449619Y-124213904D01*
X178449619Y-123928190D01*
X178497238Y-123832952D01*
X178544857Y-123785333D01*
X178640095Y-123737714D01*
X178830571Y-123737714D01*
X178925809Y-123785333D01*
X179354380Y-124404380D02*
X179354380Y-123404380D01*
X179354380Y-123785333D02*
X179449619Y-123737714D01*
X179640095Y-123737714D01*
X179735333Y-123785333D01*
X179782952Y-123832952D01*
X179830571Y-123928190D01*
X179830571Y-124213904D01*
X179782952Y-124309142D01*
X179735333Y-124356761D01*
X179640095Y-124404380D01*
X179449619Y-124404380D01*
X179354380Y-124356761D01*
X155781523Y-103846380D02*
X156400571Y-103846380D01*
X156067238Y-104227333D01*
X156210095Y-104227333D01*
X156305333Y-104274952D01*
X156352952Y-104322571D01*
X156400571Y-104417809D01*
X156400571Y-104655904D01*
X156352952Y-104751142D01*
X156305333Y-104798761D01*
X156210095Y-104846380D01*
X155924380Y-104846380D01*
X155829142Y-104798761D01*
X155781523Y-104751142D01*
X156733904Y-104179714D02*
X156972000Y-104846380D01*
X157210095Y-104179714D01*
X157495809Y-103846380D02*
X158114857Y-103846380D01*
X157781523Y-104227333D01*
X157924380Y-104227333D01*
X158019619Y-104274952D01*
X158067238Y-104322571D01*
X158114857Y-104417809D01*
X158114857Y-104655904D01*
X158067238Y-104751142D01*
X158019619Y-104798761D01*
X157924380Y-104846380D01*
X157638666Y-104846380D01*
X157543428Y-104798761D01*
X157495809Y-104751142D01*
X170807142Y-103894000D02*
X170711904Y-103846380D01*
X170569047Y-103846380D01*
X170426190Y-103894000D01*
X170330952Y-103989238D01*
X170283333Y-104084476D01*
X170235714Y-104274952D01*
X170235714Y-104417809D01*
X170283333Y-104608285D01*
X170330952Y-104703523D01*
X170426190Y-104798761D01*
X170569047Y-104846380D01*
X170664285Y-104846380D01*
X170807142Y-104798761D01*
X170854761Y-104751142D01*
X170854761Y-104417809D01*
X170664285Y-104417809D01*
X171283333Y-104179714D02*
X171283333Y-104846380D01*
X171283333Y-104274952D02*
X171330952Y-104227333D01*
X171426190Y-104179714D01*
X171569047Y-104179714D01*
X171664285Y-104227333D01*
X171711904Y-104322571D01*
X171711904Y-104846380D01*
X172616666Y-104846380D02*
X172616666Y-103846380D01*
X172616666Y-104798761D02*
X172521428Y-104846380D01*
X172330952Y-104846380D01*
X172235714Y-104798761D01*
X172188095Y-104751142D01*
X172140476Y-104655904D01*
X172140476Y-104370190D01*
X172188095Y-104274952D01*
X172235714Y-104227333D01*
X172330952Y-104179714D01*
X172521428Y-104179714D01*
X172616666Y-104227333D01*
X182689523Y-114006380D02*
X182213333Y-114006380D01*
X182165714Y-114482571D01*
X182213333Y-114434952D01*
X182308571Y-114387333D01*
X182546666Y-114387333D01*
X182641904Y-114434952D01*
X182689523Y-114482571D01*
X182737142Y-114577809D01*
X182737142Y-114815904D01*
X182689523Y-114911142D01*
X182641904Y-114958761D01*
X182546666Y-115006380D01*
X182308571Y-115006380D01*
X182213333Y-114958761D01*
X182165714Y-114911142D01*
X183022857Y-114006380D02*
X183356190Y-115006380D01*
X183689523Y-114006380D01*
X182189619Y-117292380D02*
X182189619Y-116292380D01*
X182427714Y-116292380D01*
X182570571Y-116340000D01*
X182665809Y-116435238D01*
X182713428Y-116530476D01*
X182761047Y-116720952D01*
X182761047Y-116863809D01*
X182713428Y-117054285D01*
X182665809Y-117149523D01*
X182570571Y-117244761D01*
X182427714Y-117292380D01*
X182189619Y-117292380D01*
X183618190Y-117292380D02*
X183618190Y-116768571D01*
X183570571Y-116673333D01*
X183475333Y-116625714D01*
X183284857Y-116625714D01*
X183189619Y-116673333D01*
X183618190Y-117244761D02*
X183522952Y-117292380D01*
X183284857Y-117292380D01*
X183189619Y-117244761D01*
X183142000Y-117149523D01*
X183142000Y-117054285D01*
X183189619Y-116959047D01*
X183284857Y-116911428D01*
X183522952Y-116911428D01*
X183618190Y-116863809D01*
X183951523Y-116625714D02*
X184332476Y-116625714D01*
X184094380Y-116292380D02*
X184094380Y-117149523D01*
X184142000Y-117244761D01*
X184237238Y-117292380D01*
X184332476Y-117292380D01*
X185094380Y-117292380D02*
X185094380Y-116768571D01*
X185046761Y-116673333D01*
X184951523Y-116625714D01*
X184761047Y-116625714D01*
X184665809Y-116673333D01*
X185094380Y-117244761D02*
X184999142Y-117292380D01*
X184761047Y-117292380D01*
X184665809Y-117244761D01*
X184618190Y-117149523D01*
X184618190Y-117054285D01*
X184665809Y-116959047D01*
X184761047Y-116911428D01*
X184999142Y-116911428D01*
X185094380Y-116863809D01*
X179197047Y-97861428D02*
X179958952Y-97861428D01*
X176149047Y-97861428D02*
X176910952Y-97861428D01*
X176530000Y-98242380D02*
X176530000Y-97480476D01*
D11*
%TO.C,G\u002A\u002A\u002A*%
G36*
X133046173Y-109240232D02*
G01*
X133239980Y-109268877D01*
X133428622Y-109315918D01*
X133610994Y-109380741D01*
X133785988Y-109462733D01*
X133952499Y-109561280D01*
X134109420Y-109675768D01*
X134255643Y-109805584D01*
X134390063Y-109950115D01*
X134511572Y-110108746D01*
X134619064Y-110280865D01*
X134659168Y-110355856D01*
X134735328Y-110526726D01*
X134795249Y-110707333D01*
X134838281Y-110894387D01*
X134863777Y-111084596D01*
X134871088Y-111274667D01*
X134865292Y-111402774D01*
X134846829Y-111568494D01*
X134818692Y-111720738D01*
X134779527Y-111864570D01*
X134727984Y-112005051D01*
X134670861Y-112130840D01*
X134603222Y-112259237D01*
X134531954Y-112375357D01*
X134452971Y-112485061D01*
X134362183Y-112594213D01*
X134301013Y-112661164D01*
X134220576Y-112740233D01*
X134128141Y-112820280D01*
X134029100Y-112897193D01*
X133928844Y-112966857D01*
X133832766Y-113025162D01*
X133802606Y-113041358D01*
X133767359Y-113060696D01*
X133747050Y-113075528D01*
X133737913Y-113089293D01*
X133736117Y-113102085D01*
X133731240Y-113128934D01*
X133715007Y-113146996D01*
X133684882Y-113157568D01*
X133638325Y-113161950D01*
X133618439Y-113162259D01*
X133562333Y-113165084D01*
X133507688Y-113174384D01*
X133444949Y-113191794D01*
X133443725Y-113192180D01*
X133284980Y-113234591D01*
X133121422Y-113262555D01*
X133008013Y-113273683D01*
X132940052Y-113278285D01*
X132884917Y-113281049D01*
X132836059Y-113281967D01*
X132786930Y-113281031D01*
X132730981Y-113278235D01*
X132661665Y-113273571D01*
X132657848Y-113273297D01*
X132492026Y-113253615D01*
X132329806Y-113218243D01*
X132168722Y-113166359D01*
X132006304Y-113097141D01*
X131903008Y-113042842D01*
X132974227Y-113042842D01*
X132983947Y-113044653D01*
X133011573Y-113046149D01*
X133054692Y-113047291D01*
X133110893Y-113048041D01*
X133177763Y-113048362D01*
X133252890Y-113048215D01*
X133296660Y-113047922D01*
X133619240Y-113045240D01*
X133622015Y-112864671D01*
X133622401Y-112804404D01*
X133621724Y-112750746D01*
X133620108Y-112707289D01*
X133617676Y-112677624D01*
X133615175Y-112666138D01*
X133601696Y-112652889D01*
X133575263Y-112634916D01*
X133541401Y-112615942D01*
X133538758Y-112614604D01*
X133459453Y-112583793D01*
X133383962Y-112572905D01*
X133312398Y-112581882D01*
X133244870Y-112610668D01*
X133181489Y-112659205D01*
X133122366Y-112727437D01*
X133067611Y-112815306D01*
X133039563Y-112871628D01*
X133019231Y-112917466D01*
X133000771Y-112962377D01*
X132985967Y-113001684D01*
X132976604Y-113030708D01*
X132974227Y-113042842D01*
X131903008Y-113042842D01*
X131840086Y-113009767D01*
X131804239Y-112988900D01*
X131641293Y-112880843D01*
X131489469Y-112756591D01*
X131349976Y-112617684D01*
X131224020Y-112465662D01*
X131112811Y-112302069D01*
X131017556Y-112128443D01*
X130939463Y-111946327D01*
X130903012Y-111839055D01*
X130871651Y-111718102D01*
X130847219Y-111584157D01*
X130830292Y-111443443D01*
X130821448Y-111302183D01*
X130821381Y-111252000D01*
X130998298Y-111252000D01*
X130998399Y-111332061D01*
X130999126Y-111395723D01*
X131000736Y-111446903D01*
X131003484Y-111489520D01*
X131007628Y-111527489D01*
X131013422Y-111564730D01*
X131021124Y-111605160D01*
X131021524Y-111607136D01*
X131070559Y-111799972D01*
X131137414Y-111983340D01*
X131221585Y-112156557D01*
X131322569Y-112318940D01*
X131439861Y-112469806D01*
X131572959Y-112608471D01*
X131721359Y-112734255D01*
X131884558Y-112846472D01*
X131973231Y-112898207D01*
X132006830Y-112915613D01*
X132048647Y-112935678D01*
X132094315Y-112956501D01*
X132139464Y-112976180D01*
X132179726Y-112992816D01*
X132210734Y-113004506D01*
X132228118Y-113009349D01*
X132228681Y-113009382D01*
X132234525Y-113000426D01*
X132238652Y-112972788D01*
X132241135Y-112925834D01*
X132241776Y-112895380D01*
X132242331Y-112865731D01*
X132243415Y-112817773D01*
X132244975Y-112753506D01*
X132246960Y-112674932D01*
X132248950Y-112598200D01*
X133217920Y-112598200D01*
X133223000Y-112603280D01*
X133228080Y-112598200D01*
X133223000Y-112593120D01*
X133217920Y-112598200D01*
X132248950Y-112598200D01*
X132249317Y-112584053D01*
X132251994Y-112482870D01*
X132254939Y-112373385D01*
X132258100Y-112257599D01*
X132261424Y-112137515D01*
X132263174Y-112074960D01*
X132266498Y-111956146D01*
X132269650Y-111842656D01*
X132272583Y-111736225D01*
X132275251Y-111638588D01*
X132277606Y-111551481D01*
X132279603Y-111476640D01*
X132281194Y-111415798D01*
X132282333Y-111370692D01*
X132282973Y-111343057D01*
X132283099Y-111335358D01*
X132292973Y-111297005D01*
X132308346Y-111276729D01*
X132333493Y-111251582D01*
X133020369Y-111254331D01*
X133155259Y-111254886D01*
X133271285Y-111255426D01*
X133369904Y-111255996D01*
X133452571Y-111256642D01*
X133520743Y-111257413D01*
X133575875Y-111258353D01*
X133619423Y-111259511D01*
X133652845Y-111260932D01*
X133677595Y-111262664D01*
X133695130Y-111264752D01*
X133706906Y-111267244D01*
X133714379Y-111270186D01*
X133719005Y-111273625D01*
X133721662Y-111276801D01*
X133724368Y-111283045D01*
X133726725Y-111294725D01*
X133728755Y-111313123D01*
X133730481Y-111339517D01*
X133731925Y-111375190D01*
X133733110Y-111421421D01*
X133734059Y-111479491D01*
X133734795Y-111550680D01*
X133735340Y-111636269D01*
X133735718Y-111737539D01*
X133735951Y-111855770D01*
X133736062Y-111992242D01*
X133736080Y-112087061D01*
X133736126Y-112235284D01*
X133736279Y-112364419D01*
X133736561Y-112475696D01*
X133736993Y-112570346D01*
X133737597Y-112649602D01*
X133738396Y-112714694D01*
X133739409Y-112766854D01*
X133740660Y-112807313D01*
X133742170Y-112837301D01*
X133743960Y-112858051D01*
X133746053Y-112870793D01*
X133748469Y-112876759D01*
X133750016Y-112877600D01*
X133770773Y-112871167D01*
X133803984Y-112853200D01*
X133846940Y-112825692D01*
X133896933Y-112790638D01*
X133951256Y-112750032D01*
X134007200Y-112705868D01*
X134062058Y-112660140D01*
X134113121Y-112614843D01*
X134136040Y-112593310D01*
X134269142Y-112451629D01*
X134385396Y-112298660D01*
X134484600Y-112134769D01*
X134566552Y-111960324D01*
X134631048Y-111775692D01*
X134668326Y-111628512D01*
X134677095Y-111586263D01*
X134683767Y-111549488D01*
X134688624Y-111514323D01*
X134691952Y-111476907D01*
X134694035Y-111433376D01*
X134695156Y-111379869D01*
X134695600Y-111312521D01*
X134695661Y-111257080D01*
X134695514Y-111178163D01*
X134694882Y-111115702D01*
X134693482Y-111065835D01*
X134691028Y-111024699D01*
X134687238Y-110988431D01*
X134681827Y-110953169D01*
X134674509Y-110915050D01*
X134668326Y-110885647D01*
X134617574Y-110695454D01*
X134549294Y-110514637D01*
X134464385Y-110344071D01*
X134363745Y-110184633D01*
X134248272Y-110037198D01*
X134118864Y-109902643D01*
X133976420Y-109781843D01*
X133821838Y-109675674D01*
X133656017Y-109585012D01*
X133479855Y-109510732D01*
X133294250Y-109453712D01*
X133172200Y-109426918D01*
X133102044Y-109417102D01*
X133017112Y-109410415D01*
X132922549Y-109406824D01*
X132823498Y-109406295D01*
X132725103Y-109408793D01*
X132632509Y-109414284D01*
X132550861Y-109422735D01*
X132497966Y-109431382D01*
X132305369Y-109480089D01*
X132122733Y-109546214D01*
X131950533Y-109629542D01*
X131789241Y-109729854D01*
X131699000Y-109797227D01*
X131550609Y-109928134D01*
X131418365Y-110071227D01*
X131302687Y-110225828D01*
X131203995Y-110391257D01*
X131122711Y-110566835D01*
X131059255Y-110751883D01*
X131026158Y-110884383D01*
X131017219Y-110927630D01*
X131010439Y-110965262D01*
X131005518Y-111001249D01*
X131002154Y-111039563D01*
X131000047Y-111084176D01*
X130998895Y-111139057D01*
X130998399Y-111208180D01*
X130998298Y-111252000D01*
X130821381Y-111252000D01*
X130821266Y-111166600D01*
X130829634Y-111048800D01*
X130861676Y-110850809D01*
X130911333Y-110658632D01*
X130977848Y-110473974D01*
X131060463Y-110298540D01*
X131158419Y-110134035D01*
X131270959Y-109982164D01*
X131337720Y-109905800D01*
X131488920Y-109756406D01*
X131648421Y-109625466D01*
X131816065Y-109513060D01*
X131991696Y-109419268D01*
X132175154Y-109344170D01*
X132366282Y-109287846D01*
X132564923Y-109250377D01*
X132647496Y-109240582D01*
X132848310Y-109230596D01*
X133046173Y-109240232D01*
G37*
X133046173Y-109240232D02*
X133239980Y-109268877D01*
X133428622Y-109315918D01*
X133610994Y-109380741D01*
X133785988Y-109462733D01*
X133952499Y-109561280D01*
X134109420Y-109675768D01*
X134255643Y-109805584D01*
X134390063Y-109950115D01*
X134511572Y-110108746D01*
X134619064Y-110280865D01*
X134659168Y-110355856D01*
X134735328Y-110526726D01*
X134795249Y-110707333D01*
X134838281Y-110894387D01*
X134863777Y-111084596D01*
X134871088Y-111274667D01*
X134865292Y-111402774D01*
X134846829Y-111568494D01*
X134818692Y-111720738D01*
X134779527Y-111864570D01*
X134727984Y-112005051D01*
X134670861Y-112130840D01*
X134603222Y-112259237D01*
X134531954Y-112375357D01*
X134452971Y-112485061D01*
X134362183Y-112594213D01*
X134301013Y-112661164D01*
X134220576Y-112740233D01*
X134128141Y-112820280D01*
X134029100Y-112897193D01*
X133928844Y-112966857D01*
X133832766Y-113025162D01*
X133802606Y-113041358D01*
X133767359Y-113060696D01*
X133747050Y-113075528D01*
X133737913Y-113089293D01*
X133736117Y-113102085D01*
X133731240Y-113128934D01*
X133715007Y-113146996D01*
X133684882Y-113157568D01*
X133638325Y-113161950D01*
X133618439Y-113162259D01*
X133562333Y-113165084D01*
X133507688Y-113174384D01*
X133444949Y-113191794D01*
X133443725Y-113192180D01*
X133284980Y-113234591D01*
X133121422Y-113262555D01*
X133008013Y-113273683D01*
X132940052Y-113278285D01*
X132884917Y-113281049D01*
X132836059Y-113281967D01*
X132786930Y-113281031D01*
X132730981Y-113278235D01*
X132661665Y-113273571D01*
X132657848Y-113273297D01*
X132492026Y-113253615D01*
X132329806Y-113218243D01*
X132168722Y-113166359D01*
X132006304Y-113097141D01*
X131903008Y-113042842D01*
X132974227Y-113042842D01*
X132983947Y-113044653D01*
X133011573Y-113046149D01*
X133054692Y-113047291D01*
X133110893Y-113048041D01*
X133177763Y-113048362D01*
X133252890Y-113048215D01*
X133296660Y-113047922D01*
X133619240Y-113045240D01*
X133622015Y-112864671D01*
X133622401Y-112804404D01*
X133621724Y-112750746D01*
X133620108Y-112707289D01*
X133617676Y-112677624D01*
X133615175Y-112666138D01*
X133601696Y-112652889D01*
X133575263Y-112634916D01*
X133541401Y-112615942D01*
X133538758Y-112614604D01*
X133459453Y-112583793D01*
X133383962Y-112572905D01*
X133312398Y-112581882D01*
X133244870Y-112610668D01*
X133181489Y-112659205D01*
X133122366Y-112727437D01*
X133067611Y-112815306D01*
X133039563Y-112871628D01*
X133019231Y-112917466D01*
X133000771Y-112962377D01*
X132985967Y-113001684D01*
X132976604Y-113030708D01*
X132974227Y-113042842D01*
X131903008Y-113042842D01*
X131840086Y-113009767D01*
X131804239Y-112988900D01*
X131641293Y-112880843D01*
X131489469Y-112756591D01*
X131349976Y-112617684D01*
X131224020Y-112465662D01*
X131112811Y-112302069D01*
X131017556Y-112128443D01*
X130939463Y-111946327D01*
X130903012Y-111839055D01*
X130871651Y-111718102D01*
X130847219Y-111584157D01*
X130830292Y-111443443D01*
X130821448Y-111302183D01*
X130821381Y-111252000D01*
X130998298Y-111252000D01*
X130998399Y-111332061D01*
X130999126Y-111395723D01*
X131000736Y-111446903D01*
X131003484Y-111489520D01*
X131007628Y-111527489D01*
X131013422Y-111564730D01*
X131021124Y-111605160D01*
X131021524Y-111607136D01*
X131070559Y-111799972D01*
X131137414Y-111983340D01*
X131221585Y-112156557D01*
X131322569Y-112318940D01*
X131439861Y-112469806D01*
X131572959Y-112608471D01*
X131721359Y-112734255D01*
X131884558Y-112846472D01*
X131973231Y-112898207D01*
X132006830Y-112915613D01*
X132048647Y-112935678D01*
X132094315Y-112956501D01*
X132139464Y-112976180D01*
X132179726Y-112992816D01*
X132210734Y-113004506D01*
X132228118Y-113009349D01*
X132228681Y-113009382D01*
X132234525Y-113000426D01*
X132238652Y-112972788D01*
X132241135Y-112925834D01*
X132241776Y-112895380D01*
X132242331Y-112865731D01*
X132243415Y-112817773D01*
X132244975Y-112753506D01*
X132246960Y-112674932D01*
X132248950Y-112598200D01*
X133217920Y-112598200D01*
X133223000Y-112603280D01*
X133228080Y-112598200D01*
X133223000Y-112593120D01*
X133217920Y-112598200D01*
X132248950Y-112598200D01*
X132249317Y-112584053D01*
X132251994Y-112482870D01*
X132254939Y-112373385D01*
X132258100Y-112257599D01*
X132261424Y-112137515D01*
X132263174Y-112074960D01*
X132266498Y-111956146D01*
X132269650Y-111842656D01*
X132272583Y-111736225D01*
X132275251Y-111638588D01*
X132277606Y-111551481D01*
X132279603Y-111476640D01*
X132281194Y-111415798D01*
X132282333Y-111370692D01*
X132282973Y-111343057D01*
X132283099Y-111335358D01*
X132292973Y-111297005D01*
X132308346Y-111276729D01*
X132333493Y-111251582D01*
X133020369Y-111254331D01*
X133155259Y-111254886D01*
X133271285Y-111255426D01*
X133369904Y-111255996D01*
X133452571Y-111256642D01*
X133520743Y-111257413D01*
X133575875Y-111258353D01*
X133619423Y-111259511D01*
X133652845Y-111260932D01*
X133677595Y-111262664D01*
X133695130Y-111264752D01*
X133706906Y-111267244D01*
X133714379Y-111270186D01*
X133719005Y-111273625D01*
X133721662Y-111276801D01*
X133724368Y-111283045D01*
X133726725Y-111294725D01*
X133728755Y-111313123D01*
X133730481Y-111339517D01*
X133731925Y-111375190D01*
X133733110Y-111421421D01*
X133734059Y-111479491D01*
X133734795Y-111550680D01*
X133735340Y-111636269D01*
X133735718Y-111737539D01*
X133735951Y-111855770D01*
X133736062Y-111992242D01*
X133736080Y-112087061D01*
X133736126Y-112235284D01*
X133736279Y-112364419D01*
X133736561Y-112475696D01*
X133736993Y-112570346D01*
X133737597Y-112649602D01*
X133738396Y-112714694D01*
X133739409Y-112766854D01*
X133740660Y-112807313D01*
X133742170Y-112837301D01*
X133743960Y-112858051D01*
X133746053Y-112870793D01*
X133748469Y-112876759D01*
X133750016Y-112877600D01*
X133770773Y-112871167D01*
X133803984Y-112853200D01*
X133846940Y-112825692D01*
X133896933Y-112790638D01*
X133951256Y-112750032D01*
X134007200Y-112705868D01*
X134062058Y-112660140D01*
X134113121Y-112614843D01*
X134136040Y-112593310D01*
X134269142Y-112451629D01*
X134385396Y-112298660D01*
X134484600Y-112134769D01*
X134566552Y-111960324D01*
X134631048Y-111775692D01*
X134668326Y-111628512D01*
X134677095Y-111586263D01*
X134683767Y-111549488D01*
X134688624Y-111514323D01*
X134691952Y-111476907D01*
X134694035Y-111433376D01*
X134695156Y-111379869D01*
X134695600Y-111312521D01*
X134695661Y-111257080D01*
X134695514Y-111178163D01*
X134694882Y-111115702D01*
X134693482Y-111065835D01*
X134691028Y-111024699D01*
X134687238Y-110988431D01*
X134681827Y-110953169D01*
X134674509Y-110915050D01*
X134668326Y-110885647D01*
X134617574Y-110695454D01*
X134549294Y-110514637D01*
X134464385Y-110344071D01*
X134363745Y-110184633D01*
X134248272Y-110037198D01*
X134118864Y-109902643D01*
X133976420Y-109781843D01*
X133821838Y-109675674D01*
X133656017Y-109585012D01*
X133479855Y-109510732D01*
X133294250Y-109453712D01*
X133172200Y-109426918D01*
X133102044Y-109417102D01*
X133017112Y-109410415D01*
X132922549Y-109406824D01*
X132823498Y-109406295D01*
X132725103Y-109408793D01*
X132632509Y-109414284D01*
X132550861Y-109422735D01*
X132497966Y-109431382D01*
X132305369Y-109480089D01*
X132122733Y-109546214D01*
X131950533Y-109629542D01*
X131789241Y-109729854D01*
X131699000Y-109797227D01*
X131550609Y-109928134D01*
X131418365Y-110071227D01*
X131302687Y-110225828D01*
X131203995Y-110391257D01*
X131122711Y-110566835D01*
X131059255Y-110751883D01*
X131026158Y-110884383D01*
X131017219Y-110927630D01*
X131010439Y-110965262D01*
X131005518Y-111001249D01*
X131002154Y-111039563D01*
X131000047Y-111084176D01*
X130998895Y-111139057D01*
X130998399Y-111208180D01*
X130998298Y-111252000D01*
X130821381Y-111252000D01*
X130821266Y-111166600D01*
X130829634Y-111048800D01*
X130861676Y-110850809D01*
X130911333Y-110658632D01*
X130977848Y-110473974D01*
X131060463Y-110298540D01*
X131158419Y-110134035D01*
X131270959Y-109982164D01*
X131337720Y-109905800D01*
X131488920Y-109756406D01*
X131648421Y-109625466D01*
X131816065Y-109513060D01*
X131991696Y-109419268D01*
X132175154Y-109344170D01*
X132366282Y-109287846D01*
X132564923Y-109250377D01*
X132647496Y-109240582D01*
X132848310Y-109230596D01*
X133046173Y-109240232D01*
G36*
X131852289Y-110169713D02*
G01*
X131953289Y-110198322D01*
X132046532Y-110244959D01*
X132130830Y-110308841D01*
X132204997Y-110389185D01*
X132267847Y-110485207D01*
X132283553Y-110515400D01*
X132313377Y-110581131D01*
X132333836Y-110640898D01*
X132346373Y-110701392D01*
X132352429Y-110769304D01*
X132353547Y-110840114D01*
X132349995Y-110926247D01*
X132339349Y-111001539D01*
X132319847Y-111072816D01*
X132289725Y-111146908D01*
X132257800Y-111210901D01*
X132197014Y-111307116D01*
X132124265Y-111389912D01*
X132041538Y-111457659D01*
X131950816Y-111508730D01*
X131855432Y-111541179D01*
X131801110Y-111550523D01*
X131742746Y-111554995D01*
X131688998Y-111554198D01*
X131658360Y-111550210D01*
X131573711Y-111528588D01*
X131501611Y-111500385D01*
X131434542Y-111462224D01*
X131387563Y-111428548D01*
X131320547Y-111366156D01*
X131259578Y-111288214D01*
X131207439Y-111199225D01*
X131166918Y-111103696D01*
X131148533Y-111041881D01*
X131137682Y-110979003D01*
X131132007Y-110904244D01*
X131131666Y-110851586D01*
X131257389Y-110851586D01*
X131257963Y-110914779D01*
X131260308Y-110971948D01*
X131264476Y-111017838D01*
X131268006Y-111038357D01*
X131294162Y-111115662D01*
X131335005Y-111190908D01*
X131387530Y-111260975D01*
X131448734Y-111322747D01*
X131515612Y-111373104D01*
X131585161Y-111408929D01*
X131640502Y-111424994D01*
X131695074Y-111430198D01*
X131758626Y-111429153D01*
X131822035Y-111422477D01*
X131876179Y-111410792D01*
X131883439Y-111408477D01*
X131931543Y-111387742D01*
X131983859Y-111358063D01*
X132034061Y-111323659D01*
X132075824Y-111288747D01*
X132096662Y-111266252D01*
X132151575Y-111185373D01*
X132190510Y-111102067D01*
X132214805Y-111012158D01*
X132225802Y-110911472D01*
X132226766Y-110860840D01*
X132225899Y-110804299D01*
X132223279Y-110761550D01*
X132217988Y-110726083D01*
X132209105Y-110691388D01*
X132198078Y-110657737D01*
X132179792Y-110610501D01*
X132158009Y-110562200D01*
X132137196Y-110522683D01*
X132135616Y-110520046D01*
X132089980Y-110458155D01*
X132031506Y-110398382D01*
X131966918Y-110346975D01*
X131916827Y-110316808D01*
X131885744Y-110301737D01*
X131860003Y-110292066D01*
X131833415Y-110286593D01*
X131799786Y-110284115D01*
X131752925Y-110283433D01*
X131744720Y-110283412D01*
X131677630Y-110285237D01*
X131623273Y-110292317D01*
X131574329Y-110306624D01*
X131523477Y-110330130D01*
X131480223Y-110354661D01*
X131408135Y-110409204D01*
X131347742Y-110479086D01*
X131300735Y-110561961D01*
X131271798Y-110643735D01*
X131265791Y-110678446D01*
X131261353Y-110728163D01*
X131258536Y-110787629D01*
X131257389Y-110851586D01*
X131131666Y-110851586D01*
X131131493Y-110825002D01*
X131136123Y-110748671D01*
X131145883Y-110682649D01*
X131149331Y-110667800D01*
X131182140Y-110569396D01*
X131227991Y-110475582D01*
X131284276Y-110390388D01*
X131348392Y-110317846D01*
X131406813Y-110269345D01*
X131479984Y-110222724D01*
X131547464Y-110190537D01*
X131615490Y-110170766D01*
X131690296Y-110161391D01*
X131744720Y-110159915D01*
X131852289Y-110169713D01*
G37*
X131852289Y-110169713D02*
X131953289Y-110198322D01*
X132046532Y-110244959D01*
X132130830Y-110308841D01*
X132204997Y-110389185D01*
X132267847Y-110485207D01*
X132283553Y-110515400D01*
X132313377Y-110581131D01*
X132333836Y-110640898D01*
X132346373Y-110701392D01*
X132352429Y-110769304D01*
X132353547Y-110840114D01*
X132349995Y-110926247D01*
X132339349Y-111001539D01*
X132319847Y-111072816D01*
X132289725Y-111146908D01*
X132257800Y-111210901D01*
X132197014Y-111307116D01*
X132124265Y-111389912D01*
X132041538Y-111457659D01*
X131950816Y-111508730D01*
X131855432Y-111541179D01*
X131801110Y-111550523D01*
X131742746Y-111554995D01*
X131688998Y-111554198D01*
X131658360Y-111550210D01*
X131573711Y-111528588D01*
X131501611Y-111500385D01*
X131434542Y-111462224D01*
X131387563Y-111428548D01*
X131320547Y-111366156D01*
X131259578Y-111288214D01*
X131207439Y-111199225D01*
X131166918Y-111103696D01*
X131148533Y-111041881D01*
X131137682Y-110979003D01*
X131132007Y-110904244D01*
X131131666Y-110851586D01*
X131257389Y-110851586D01*
X131257963Y-110914779D01*
X131260308Y-110971948D01*
X131264476Y-111017838D01*
X131268006Y-111038357D01*
X131294162Y-111115662D01*
X131335005Y-111190908D01*
X131387530Y-111260975D01*
X131448734Y-111322747D01*
X131515612Y-111373104D01*
X131585161Y-111408929D01*
X131640502Y-111424994D01*
X131695074Y-111430198D01*
X131758626Y-111429153D01*
X131822035Y-111422477D01*
X131876179Y-111410792D01*
X131883439Y-111408477D01*
X131931543Y-111387742D01*
X131983859Y-111358063D01*
X132034061Y-111323659D01*
X132075824Y-111288747D01*
X132096662Y-111266252D01*
X132151575Y-111185373D01*
X132190510Y-111102067D01*
X132214805Y-111012158D01*
X132225802Y-110911472D01*
X132226766Y-110860840D01*
X132225899Y-110804299D01*
X132223279Y-110761550D01*
X132217988Y-110726083D01*
X132209105Y-110691388D01*
X132198078Y-110657737D01*
X132179792Y-110610501D01*
X132158009Y-110562200D01*
X132137196Y-110522683D01*
X132135616Y-110520046D01*
X132089980Y-110458155D01*
X132031506Y-110398382D01*
X131966918Y-110346975D01*
X131916827Y-110316808D01*
X131885744Y-110301737D01*
X131860003Y-110292066D01*
X131833415Y-110286593D01*
X131799786Y-110284115D01*
X131752925Y-110283433D01*
X131744720Y-110283412D01*
X131677630Y-110285237D01*
X131623273Y-110292317D01*
X131574329Y-110306624D01*
X131523477Y-110330130D01*
X131480223Y-110354661D01*
X131408135Y-110409204D01*
X131347742Y-110479086D01*
X131300735Y-110561961D01*
X131271798Y-110643735D01*
X131265791Y-110678446D01*
X131261353Y-110728163D01*
X131258536Y-110787629D01*
X131257389Y-110851586D01*
X131131666Y-110851586D01*
X131131493Y-110825002D01*
X131136123Y-110748671D01*
X131145883Y-110682649D01*
X131149331Y-110667800D01*
X131182140Y-110569396D01*
X131227991Y-110475582D01*
X131284276Y-110390388D01*
X131348392Y-110317846D01*
X131406813Y-110269345D01*
X131479984Y-110222724D01*
X131547464Y-110190537D01*
X131615490Y-110170766D01*
X131690296Y-110161391D01*
X131744720Y-110159915D01*
X131852289Y-110169713D01*
G36*
X133574474Y-110164319D02*
G01*
X133672153Y-110191364D01*
X133765269Y-110238016D01*
X133853328Y-110304113D01*
X133889550Y-110338509D01*
X133964791Y-110428786D01*
X134022846Y-110528794D01*
X134063286Y-110636769D01*
X134085684Y-110750951D01*
X134089612Y-110869576D01*
X134074642Y-110990883D01*
X134061521Y-111046260D01*
X134038653Y-111130080D01*
X132925957Y-111130080D01*
X132909288Y-111070670D01*
X132885259Y-110953836D01*
X132878161Y-110838359D01*
X132879060Y-110827013D01*
X132996033Y-110827013D01*
X132997475Y-110896400D01*
X132999593Y-110935697D01*
X133001861Y-110965564D01*
X133006786Y-110987284D01*
X133016874Y-111002139D01*
X133034633Y-111011411D01*
X133062568Y-111016382D01*
X133103186Y-111018336D01*
X133158994Y-111018555D01*
X133232498Y-111018320D01*
X133454648Y-111018320D01*
X133414202Y-110989020D01*
X133372142Y-110947096D01*
X133345753Y-110896237D01*
X133334914Y-110840302D01*
X133339506Y-110783145D01*
X133359409Y-110728622D01*
X133394503Y-110680589D01*
X133424583Y-110655239D01*
X133449860Y-110639788D01*
X133474410Y-110631253D01*
X133505961Y-110627707D01*
X133537091Y-110627160D01*
X133578567Y-110628351D01*
X133607629Y-110633220D01*
X133632112Y-110643708D01*
X133650489Y-110655278D01*
X133695252Y-110696701D01*
X133724860Y-110747338D01*
X133739237Y-110803306D01*
X133738303Y-110860724D01*
X133721980Y-110915711D01*
X133690191Y-110964384D01*
X133657309Y-110993602D01*
X133619240Y-111020376D01*
X133781800Y-111013750D01*
X133837632Y-111010900D01*
X133886473Y-111007325D01*
X133924640Y-111003380D01*
X133948448Y-110999418D01*
X133954370Y-110997122D01*
X133959778Y-110981747D01*
X133963943Y-110950656D01*
X133966775Y-110908424D01*
X133968187Y-110859623D01*
X133968090Y-110808826D01*
X133966398Y-110760605D01*
X133963021Y-110719533D01*
X133960099Y-110699963D01*
X133945197Y-110646080D01*
X133920782Y-110583690D01*
X133890138Y-110519553D01*
X133856552Y-110460428D01*
X133823309Y-110413073D01*
X133817069Y-110405699D01*
X133758384Y-110353057D01*
X133687696Y-110315250D01*
X133604089Y-110291943D01*
X133506647Y-110282798D01*
X133482080Y-110282663D01*
X133402087Y-110288024D01*
X133333714Y-110304032D01*
X133270028Y-110333039D01*
X133205000Y-110376712D01*
X133133930Y-110443211D01*
X133076759Y-110523342D01*
X133034226Y-110615253D01*
X133007071Y-110717094D01*
X132996033Y-110827013D01*
X132879060Y-110827013D01*
X132887066Y-110726060D01*
X132911049Y-110618763D01*
X132949182Y-110518288D01*
X133000539Y-110426457D01*
X133064195Y-110345093D01*
X133139222Y-110276017D01*
X133224695Y-110221052D01*
X133319687Y-110182018D01*
X133367405Y-110169684D01*
X133472727Y-110157038D01*
X133574474Y-110164319D01*
G37*
X133574474Y-110164319D02*
X133672153Y-110191364D01*
X133765269Y-110238016D01*
X133853328Y-110304113D01*
X133889550Y-110338509D01*
X133964791Y-110428786D01*
X134022846Y-110528794D01*
X134063286Y-110636769D01*
X134085684Y-110750951D01*
X134089612Y-110869576D01*
X134074642Y-110990883D01*
X134061521Y-111046260D01*
X134038653Y-111130080D01*
X132925957Y-111130080D01*
X132909288Y-111070670D01*
X132885259Y-110953836D01*
X132878161Y-110838359D01*
X132879060Y-110827013D01*
X132996033Y-110827013D01*
X132997475Y-110896400D01*
X132999593Y-110935697D01*
X133001861Y-110965564D01*
X133006786Y-110987284D01*
X133016874Y-111002139D01*
X133034633Y-111011411D01*
X133062568Y-111016382D01*
X133103186Y-111018336D01*
X133158994Y-111018555D01*
X133232498Y-111018320D01*
X133454648Y-111018320D01*
X133414202Y-110989020D01*
X133372142Y-110947096D01*
X133345753Y-110896237D01*
X133334914Y-110840302D01*
X133339506Y-110783145D01*
X133359409Y-110728622D01*
X133394503Y-110680589D01*
X133424583Y-110655239D01*
X133449860Y-110639788D01*
X133474410Y-110631253D01*
X133505961Y-110627707D01*
X133537091Y-110627160D01*
X133578567Y-110628351D01*
X133607629Y-110633220D01*
X133632112Y-110643708D01*
X133650489Y-110655278D01*
X133695252Y-110696701D01*
X133724860Y-110747338D01*
X133739237Y-110803306D01*
X133738303Y-110860724D01*
X133721980Y-110915711D01*
X133690191Y-110964384D01*
X133657309Y-110993602D01*
X133619240Y-111020376D01*
X133781800Y-111013750D01*
X133837632Y-111010900D01*
X133886473Y-111007325D01*
X133924640Y-111003380D01*
X133948448Y-110999418D01*
X133954370Y-110997122D01*
X133959778Y-110981747D01*
X133963943Y-110950656D01*
X133966775Y-110908424D01*
X133968187Y-110859623D01*
X133968090Y-110808826D01*
X133966398Y-110760605D01*
X133963021Y-110719533D01*
X133960099Y-110699963D01*
X133945197Y-110646080D01*
X133920782Y-110583690D01*
X133890138Y-110519553D01*
X133856552Y-110460428D01*
X133823309Y-110413073D01*
X133817069Y-110405699D01*
X133758384Y-110353057D01*
X133687696Y-110315250D01*
X133604089Y-110291943D01*
X133506647Y-110282798D01*
X133482080Y-110282663D01*
X133402087Y-110288024D01*
X133333714Y-110304032D01*
X133270028Y-110333039D01*
X133205000Y-110376712D01*
X133133930Y-110443211D01*
X133076759Y-110523342D01*
X133034226Y-110615253D01*
X133007071Y-110717094D01*
X132996033Y-110827013D01*
X132879060Y-110827013D01*
X132887066Y-110726060D01*
X132911049Y-110618763D01*
X132949182Y-110518288D01*
X133000539Y-110426457D01*
X133064195Y-110345093D01*
X133139222Y-110276017D01*
X133224695Y-110221052D01*
X133319687Y-110182018D01*
X133367405Y-110169684D01*
X133472727Y-110157038D01*
X133574474Y-110164319D01*
G36*
X131835821Y-110635899D02*
G01*
X131873932Y-110655652D01*
X131919345Y-110697644D01*
X131948335Y-110746770D01*
X131961855Y-110799910D01*
X131960859Y-110853941D01*
X131946303Y-110905741D01*
X131919140Y-110952187D01*
X131880325Y-110990158D01*
X131830812Y-111016532D01*
X131771556Y-111028186D01*
X131759960Y-111028480D01*
X131697031Y-111019262D01*
X131662498Y-111004831D01*
X131614342Y-110969102D01*
X131580818Y-110922973D01*
X131561916Y-110870133D01*
X131557628Y-110814269D01*
X131567942Y-110759073D01*
X131592850Y-110708232D01*
X131632342Y-110665436D01*
X131663440Y-110644937D01*
X131718482Y-110626042D01*
X131778154Y-110623142D01*
X131835821Y-110635899D01*
G37*
X131835821Y-110635899D02*
X131873932Y-110655652D01*
X131919345Y-110697644D01*
X131948335Y-110746770D01*
X131961855Y-110799910D01*
X131960859Y-110853941D01*
X131946303Y-110905741D01*
X131919140Y-110952187D01*
X131880325Y-110990158D01*
X131830812Y-111016532D01*
X131771556Y-111028186D01*
X131759960Y-111028480D01*
X131697031Y-111019262D01*
X131662498Y-111004831D01*
X131614342Y-110969102D01*
X131580818Y-110922973D01*
X131561916Y-110870133D01*
X131557628Y-110814269D01*
X131567942Y-110759073D01*
X131592850Y-110708232D01*
X131632342Y-110665436D01*
X131663440Y-110644937D01*
X131718482Y-110626042D01*
X131778154Y-110623142D01*
X131835821Y-110635899D01*
D12*
%TO.C,FLASH*%
X172822000Y-116556000D02*
X172822000Y-119156000D01*
X166522000Y-121306000D02*
X166522000Y-121056000D01*
X172822000Y-121306000D02*
X166522000Y-121306000D01*
X172822000Y-121056000D02*
X172822000Y-121306000D01*
X166522000Y-119156000D02*
X166522000Y-116556000D01*
X172822000Y-114406000D02*
X172822000Y-114656000D01*
X166522000Y-114406000D02*
X172822000Y-114406000D01*
X166522000Y-114656000D02*
X166522000Y-114406000D01*
%TO.C,J3*%
X186897000Y-112076000D02*
X184397000Y-112076000D01*
X184397000Y-112076000D02*
X184397000Y-111026000D01*
X184397000Y-111026000D02*
X183407000Y-111026000D01*
X186897000Y-105856000D02*
X184397000Y-105856000D01*
X184397000Y-105856000D02*
X184397000Y-106906000D01*
X188867000Y-110906000D02*
X188867000Y-107026000D01*
%TO.C,U2*%
X163800000Y-104540000D02*
X163800000Y-105800000D01*
X163800000Y-111360000D02*
X163800000Y-110100000D01*
X167560000Y-104540000D02*
X163800000Y-104540000D01*
X169810000Y-111360000D02*
X163800000Y-111360000D01*
%TO.C,U1*%
X137676000Y-97608000D02*
X153916000Y-97608000D01*
X153916000Y-97608000D02*
X153916000Y-105228000D01*
X153916000Y-121228000D02*
X153916000Y-121848000D01*
X153916000Y-121848000D02*
X151796000Y-121848000D01*
X139796000Y-121848000D02*
X137676000Y-121848000D01*
X137676000Y-121848000D02*
X137676000Y-121228000D01*
X137676000Y-105228000D02*
X137676000Y-97608000D01*
X137676000Y-105228000D02*
X137066000Y-105228000D01*
%TO.C,PWR*%
X176339500Y-104929000D02*
X174054500Y-104929000D01*
X174054500Y-104929000D02*
X174054500Y-106399000D01*
X174054500Y-106399000D02*
X176339500Y-106399000D01*
%TO.C,C2*%
X158369580Y-111762000D02*
X158088420Y-111762000D01*
X158369580Y-110742000D02*
X158088420Y-110742000D01*
%TO.C,C1*%
X158369580Y-106936000D02*
X158088420Y-106936000D01*
X158369580Y-105916000D02*
X158088420Y-105916000D01*
%TO.C,J2*%
X178756000Y-120837000D02*
X181416000Y-120837000D01*
X178756000Y-115697000D02*
X178756000Y-120837000D01*
X181416000Y-115697000D02*
X181416000Y-120837000D01*
X178756000Y-115697000D02*
X181416000Y-115697000D01*
X178756000Y-114427000D02*
X178756000Y-113097000D01*
X178756000Y-113097000D02*
X180086000Y-113097000D01*
%TO.C,TXD*%
X174003500Y-109447000D02*
X176288500Y-109447000D01*
X174003500Y-107977000D02*
X174003500Y-109447000D01*
X176288500Y-107977000D02*
X174003500Y-107977000D01*
%TO.C,RXD*%
X176288500Y-111025000D02*
X174003500Y-111025000D01*
X174003500Y-111025000D02*
X174003500Y-112495000D01*
X174003500Y-112495000D02*
X176288500Y-112495000D01*
%TO.C,R1*%
X159257276Y-115330500D02*
X159766724Y-115330500D01*
X159257276Y-114285500D02*
X159766724Y-114285500D01*
%TO.C,R2*%
X159153776Y-117587500D02*
X159663224Y-117587500D01*
X159153776Y-118632500D02*
X159663224Y-118632500D01*
%TO.C,D1*%
X178586000Y-107862000D02*
X178586000Y-109562000D01*
X178586000Y-109562000D02*
X181136000Y-109562000D01*
X178586000Y-107862000D02*
X181136000Y-107862000D01*
%TO.C,J1*%
X155936000Y-97362000D02*
X155936000Y-103332000D01*
X155936000Y-103332000D02*
X173556000Y-103332000D01*
X173556000Y-103332000D02*
X173556000Y-97362000D01*
X173556000Y-97362000D02*
X155936000Y-97362000D01*
X159246000Y-97372000D02*
X159246000Y-98122000D01*
X159246000Y-98122000D02*
X170246000Y-98122000D01*
X170246000Y-98122000D02*
X170246000Y-97372000D01*
X170246000Y-97372000D02*
X159246000Y-97372000D01*
X155946000Y-97372000D02*
X155946000Y-98122000D01*
X155946000Y-98122000D02*
X157746000Y-98122000D01*
X157746000Y-98122000D02*
X157746000Y-97372000D01*
X157746000Y-97372000D02*
X155946000Y-97372000D01*
X171746000Y-97372000D02*
X171746000Y-98122000D01*
X171746000Y-98122000D02*
X173546000Y-98122000D01*
X173546000Y-98122000D02*
X173546000Y-97372000D01*
X173546000Y-97372000D02*
X171746000Y-97372000D01*
X155946000Y-99622000D02*
X156696000Y-99622000D01*
X156696000Y-99622000D02*
X156696000Y-102572000D01*
X156696000Y-102572000D02*
X164746000Y-102572000D01*
X173546000Y-99622000D02*
X172796000Y-99622000D01*
X172796000Y-99622000D02*
X172796000Y-102572000D01*
X172796000Y-102572000D02*
X164746000Y-102572000D01*
X156896000Y-97072000D02*
X155646000Y-97072000D01*
X155646000Y-97072000D02*
X155646000Y-98322000D01*
%TO.C,J4*%
X174391000Y-97362000D02*
X174391000Y-103332000D01*
X174391000Y-103332000D02*
X182011000Y-103332000D01*
X182011000Y-103332000D02*
X182011000Y-97362000D01*
X182011000Y-97362000D02*
X174391000Y-97362000D01*
X177701000Y-97372000D02*
X177701000Y-98122000D01*
X177701000Y-98122000D02*
X178701000Y-98122000D01*
X178701000Y-98122000D02*
X178701000Y-97372000D01*
X178701000Y-97372000D02*
X177701000Y-97372000D01*
X174401000Y-97372000D02*
X174401000Y-98122000D01*
X174401000Y-98122000D02*
X176201000Y-98122000D01*
X176201000Y-98122000D02*
X176201000Y-97372000D01*
X176201000Y-97372000D02*
X174401000Y-97372000D01*
X180201000Y-97372000D02*
X180201000Y-98122000D01*
X180201000Y-98122000D02*
X182001000Y-98122000D01*
X182001000Y-98122000D02*
X182001000Y-97372000D01*
X182001000Y-97372000D02*
X180201000Y-97372000D01*
X174401000Y-99622000D02*
X175151000Y-99622000D01*
X175151000Y-99622000D02*
X175151000Y-102572000D01*
X175151000Y-102572000D02*
X178201000Y-102572000D01*
X182001000Y-99622000D02*
X181251000Y-99622000D01*
X181251000Y-99622000D02*
X181251000Y-102572000D01*
X181251000Y-102572000D02*
X178201000Y-102572000D01*
X175351000Y-97072000D02*
X174101000Y-97072000D01*
X174101000Y-97072000D02*
X174101000Y-98322000D01*
%TO.C,FLASH*%
D10*
X167981523Y-113284571D02*
X167648190Y-113284571D01*
X167648190Y-113808380D02*
X167648190Y-112808380D01*
X168124380Y-112808380D01*
X168981523Y-113808380D02*
X168505333Y-113808380D01*
X168505333Y-112808380D01*
X169267238Y-113522666D02*
X169743428Y-113522666D01*
X169172000Y-113808380D02*
X169505333Y-112808380D01*
X169838666Y-113808380D01*
X170124380Y-113760761D02*
X170267238Y-113808380D01*
X170505333Y-113808380D01*
X170600571Y-113760761D01*
X170648190Y-113713142D01*
X170695809Y-113617904D01*
X170695809Y-113522666D01*
X170648190Y-113427428D01*
X170600571Y-113379809D01*
X170505333Y-113332190D01*
X170314857Y-113284571D01*
X170219619Y-113236952D01*
X170172000Y-113189333D01*
X170124380Y-113094095D01*
X170124380Y-112998857D01*
X170172000Y-112903619D01*
X170219619Y-112856000D01*
X170314857Y-112808380D01*
X170552952Y-112808380D01*
X170695809Y-112856000D01*
X171124380Y-113808380D02*
X171124380Y-112808380D01*
X171124380Y-113284571D02*
X171695809Y-113284571D01*
X171695809Y-113808380D02*
X171695809Y-112808380D01*
%TO.C,J3*%
X183054666Y-104862380D02*
X183054666Y-105576666D01*
X183007047Y-105719523D01*
X182911809Y-105814761D01*
X182768952Y-105862380D01*
X182673714Y-105862380D01*
X183435619Y-104862380D02*
X184054666Y-104862380D01*
X183721333Y-105243333D01*
X183864190Y-105243333D01*
X183959428Y-105290952D01*
X184007047Y-105338571D01*
X184054666Y-105433809D01*
X184054666Y-105671904D01*
X184007047Y-105767142D01*
X183959428Y-105814761D01*
X183864190Y-105862380D01*
X183578476Y-105862380D01*
X183483238Y-105814761D01*
X183435619Y-105767142D01*
%TO.C,U2*%
X164948095Y-111902380D02*
X164948095Y-112711904D01*
X164995714Y-112807142D01*
X165043333Y-112854761D01*
X165138571Y-112902380D01*
X165329047Y-112902380D01*
X165424285Y-112854761D01*
X165471904Y-112807142D01*
X165519523Y-112711904D01*
X165519523Y-111902380D01*
X165948095Y-111997619D02*
X165995714Y-111950000D01*
X166090952Y-111902380D01*
X166329047Y-111902380D01*
X166424285Y-111950000D01*
X166471904Y-111997619D01*
X166519523Y-112092857D01*
X166519523Y-112188095D01*
X166471904Y-112330952D01*
X165900476Y-112902380D01*
X166519523Y-112902380D01*
%TO.C,PWR*%
X174206166Y-104686380D02*
X174206166Y-103686380D01*
X174587119Y-103686380D01*
X174682357Y-103734000D01*
X174729976Y-103781619D01*
X174777595Y-103876857D01*
X174777595Y-104019714D01*
X174729976Y-104114952D01*
X174682357Y-104162571D01*
X174587119Y-104210190D01*
X174206166Y-104210190D01*
X175110928Y-103686380D02*
X175349023Y-104686380D01*
X175539500Y-103972095D01*
X175729976Y-104686380D01*
X175968071Y-103686380D01*
X176920452Y-104686380D02*
X176587119Y-104210190D01*
X176349023Y-104686380D02*
X176349023Y-103686380D01*
X176729976Y-103686380D01*
X176825214Y-103734000D01*
X176872833Y-103781619D01*
X176920452Y-103876857D01*
X176920452Y-104019714D01*
X176872833Y-104114952D01*
X176825214Y-104162571D01*
X176729976Y-104210190D01*
X176349023Y-104210190D01*
%TO.C,C2*%
X158062333Y-113039142D02*
X158014714Y-113086761D01*
X157871857Y-113134380D01*
X157776619Y-113134380D01*
X157633761Y-113086761D01*
X157538523Y-112991523D01*
X157490904Y-112896285D01*
X157443285Y-112705809D01*
X157443285Y-112562952D01*
X157490904Y-112372476D01*
X157538523Y-112277238D01*
X157633761Y-112182000D01*
X157776619Y-112134380D01*
X157871857Y-112134380D01*
X158014714Y-112182000D01*
X158062333Y-112229619D01*
X158443285Y-112229619D02*
X158490904Y-112182000D01*
X158586142Y-112134380D01*
X158824238Y-112134380D01*
X158919476Y-112182000D01*
X158967095Y-112229619D01*
X159014714Y-112324857D01*
X159014714Y-112420095D01*
X158967095Y-112562952D01*
X158395666Y-113134380D01*
X159014714Y-113134380D01*
%TO.C,C1*%
X158062333Y-108213142D02*
X158014714Y-108260761D01*
X157871857Y-108308380D01*
X157776619Y-108308380D01*
X157633761Y-108260761D01*
X157538523Y-108165523D01*
X157490904Y-108070285D01*
X157443285Y-107879809D01*
X157443285Y-107736952D01*
X157490904Y-107546476D01*
X157538523Y-107451238D01*
X157633761Y-107356000D01*
X157776619Y-107308380D01*
X157871857Y-107308380D01*
X158014714Y-107356000D01*
X158062333Y-107403619D01*
X159014714Y-108308380D02*
X158443285Y-108308380D01*
X158729000Y-108308380D02*
X158729000Y-107308380D01*
X158633761Y-107451238D01*
X158538523Y-107546476D01*
X158443285Y-107594095D01*
%TO.C,J2*%
X179752666Y-111549380D02*
X179752666Y-112263666D01*
X179705047Y-112406523D01*
X179609809Y-112501761D01*
X179466952Y-112549380D01*
X179371714Y-112549380D01*
X180181238Y-111644619D02*
X180228857Y-111597000D01*
X180324095Y-111549380D01*
X180562190Y-111549380D01*
X180657428Y-111597000D01*
X180705047Y-111644619D01*
X180752666Y-111739857D01*
X180752666Y-111835095D01*
X180705047Y-111977952D01*
X180133619Y-112549380D01*
X180752666Y-112549380D01*
%TO.C,TXD*%
X174226595Y-106734380D02*
X174798023Y-106734380D01*
X174512309Y-107734380D02*
X174512309Y-106734380D01*
X175036119Y-106734380D02*
X175702785Y-107734380D01*
X175702785Y-106734380D02*
X175036119Y-107734380D01*
X176083738Y-107734380D02*
X176083738Y-106734380D01*
X176321833Y-106734380D01*
X176464690Y-106782000D01*
X176559928Y-106877238D01*
X176607547Y-106972476D01*
X176655166Y-107162952D01*
X176655166Y-107305809D01*
X176607547Y-107496285D01*
X176559928Y-107591523D01*
X176464690Y-107686761D01*
X176321833Y-107734380D01*
X176083738Y-107734380D01*
%TO.C,RXD*%
X174821833Y-110782380D02*
X174488500Y-110306190D01*
X174250404Y-110782380D02*
X174250404Y-109782380D01*
X174631357Y-109782380D01*
X174726595Y-109830000D01*
X174774214Y-109877619D01*
X174821833Y-109972857D01*
X174821833Y-110115714D01*
X174774214Y-110210952D01*
X174726595Y-110258571D01*
X174631357Y-110306190D01*
X174250404Y-110306190D01*
X175155166Y-109782380D02*
X175821833Y-110782380D01*
X175821833Y-109782380D02*
X175155166Y-110782380D01*
X176202785Y-110782380D02*
X176202785Y-109782380D01*
X176440880Y-109782380D01*
X176583738Y-109830000D01*
X176678976Y-109925238D01*
X176726595Y-110020476D01*
X176774214Y-110210952D01*
X176774214Y-110353809D01*
X176726595Y-110544285D01*
X176678976Y-110639523D01*
X176583738Y-110734761D01*
X176440880Y-110782380D01*
X176202785Y-110782380D01*
%TO.C,R1*%
X156701833Y-115260380D02*
X156368500Y-114784190D01*
X156130404Y-115260380D02*
X156130404Y-114260380D01*
X156511357Y-114260380D01*
X156606595Y-114308000D01*
X156654214Y-114355619D01*
X156701833Y-114450857D01*
X156701833Y-114593714D01*
X156654214Y-114688952D01*
X156606595Y-114736571D01*
X156511357Y-114784190D01*
X156130404Y-114784190D01*
X157654214Y-115260380D02*
X157082785Y-115260380D01*
X157368500Y-115260380D02*
X157368500Y-114260380D01*
X157273261Y-114403238D01*
X157178023Y-114498476D01*
X157082785Y-114546095D01*
%TO.C,R2*%
X156598333Y-118562380D02*
X156265000Y-118086190D01*
X156026904Y-118562380D02*
X156026904Y-117562380D01*
X156407857Y-117562380D01*
X156503095Y-117610000D01*
X156550714Y-117657619D01*
X156598333Y-117752857D01*
X156598333Y-117895714D01*
X156550714Y-117990952D01*
X156503095Y-118038571D01*
X156407857Y-118086190D01*
X156026904Y-118086190D01*
X156979285Y-117657619D02*
X157026904Y-117610000D01*
X157122142Y-117562380D01*
X157360238Y-117562380D01*
X157455476Y-117610000D01*
X157503095Y-117657619D01*
X157550714Y-117752857D01*
X157550714Y-117848095D01*
X157503095Y-117990952D01*
X156931666Y-118562380D01*
X157550714Y-118562380D01*
%TO.C,D1*%
X179381904Y-107386380D02*
X179381904Y-106386380D01*
X179620000Y-106386380D01*
X179762857Y-106434000D01*
X179858095Y-106529238D01*
X179905714Y-106624476D01*
X179953333Y-106814952D01*
X179953333Y-106957809D01*
X179905714Y-107148285D01*
X179858095Y-107243523D01*
X179762857Y-107338761D01*
X179620000Y-107386380D01*
X179381904Y-107386380D01*
X180905714Y-107386380D02*
X180334285Y-107386380D01*
X180620000Y-107386380D02*
X180620000Y-106386380D01*
X180524761Y-106529238D01*
X180429523Y-106624476D01*
X180334285Y-106672095D01*
%TD*%
M02*
