%TF.GenerationSoftware,KiCad,Pcbnew,(5.1.9)-1*%
%TF.CreationDate,2021-06-08T21:04:25-04:00*%
%TF.ProjectId,wled,776c6564-2e6b-4696-9361-645f70636258,rev?*%
%TF.SameCoordinates,Original*%
%TF.FileFunction,Copper,L2,Bot*%
%TF.FilePolarity,Positive*%
%FSLAX46Y46*%
G04 Gerber Fmt 4.6, Leading zero omitted, Abs format (unit mm)*
G04 Created by KiCad (PCBNEW (5.1.9)-1) date 2021-06-08 21:04:25*
%MOMM*%
%LPD*%
G01*
G04 APERTURE LIST*
%TA.AperFunction,ComponentPad*%
%ADD10O,1.700000X2.000000*%
%TD*%
%TA.AperFunction,ComponentPad*%
%ADD11C,5.600000*%
%TD*%
%TA.AperFunction,ComponentPad*%
%ADD12R,1.700000X1.700000*%
%TD*%
%TA.AperFunction,ComponentPad*%
%ADD13O,1.700000X1.700000*%
%TD*%
%TA.AperFunction,ComponentPad*%
%ADD14O,1.700000X1.950000*%
%TD*%
%TA.AperFunction,ViaPad*%
%ADD15C,0.800000*%
%TD*%
%TA.AperFunction,Conductor*%
%ADD16C,0.254000*%
%TD*%
G04 APERTURE END LIST*
%TO.P,J4,1*%
%TO.N,VIN*%
%TA.AperFunction,ComponentPad*%
G36*
G01*
X180428000Y-100088000D02*
X180428000Y-101588000D01*
G75*
G02*
X180178000Y-101838000I-250000J0D01*
G01*
X178978000Y-101838000D01*
G75*
G02*
X178728000Y-101588000I0J250000D01*
G01*
X178728000Y-100088000D01*
G75*
G02*
X178978000Y-99838000I250000J0D01*
G01*
X180178000Y-99838000D01*
G75*
G02*
X180428000Y-100088000I0J-250000D01*
G01*
G37*
%TD.AperFunction*%
D10*
%TO.P,J4,2*%
%TO.N,GND*%
X177078000Y-100838000D03*
%TD*%
D11*
%TO.P,H4,1*%
%TO.N,N/C*%
X185928000Y-120650000D03*
%TD*%
%TO.P,H3,1*%
%TO.N,N/C*%
X185928000Y-101092000D03*
%TD*%
%TO.P,H2,1*%
%TO.N,N/C*%
X132842000Y-101092000D03*
%TD*%
%TO.P,H1,1*%
%TO.N,N/C*%
X132842000Y-120650000D03*
%TD*%
D12*
%TO.P,J2,1*%
%TO.N,VDD5V*%
X181610000Y-114808000D03*
D13*
%TO.P,J2,2*%
%TO.N,DATA*%
X184150000Y-114808000D03*
%TO.P,J2,3*%
%TO.N,GND*%
X186690000Y-114808000D03*
%TD*%
%TO.P,J1,1*%
%TO.N,VDD3V3*%
%TA.AperFunction,ComponentPad*%
G36*
G01*
X157512000Y-100547000D02*
X157512000Y-99097000D01*
G75*
G02*
X157762000Y-98847000I250000J0D01*
G01*
X158962000Y-98847000D01*
G75*
G02*
X159212000Y-99097000I0J-250000D01*
G01*
X159212000Y-100547000D01*
G75*
G02*
X158962000Y-100797000I-250000J0D01*
G01*
X157762000Y-100797000D01*
G75*
G02*
X157512000Y-100547000I0J250000D01*
G01*
G37*
%TD.AperFunction*%
D14*
%TO.P,J1,2*%
%TO.N,TXD*%
X160862000Y-99822000D03*
%TO.P,J1,3*%
%TO.N,RXD*%
X163362000Y-99822000D03*
%TO.P,J1,4*%
%TO.N,N/C*%
X165862000Y-99822000D03*
%TO.P,J1,5*%
X168362000Y-99822000D03*
%TO.P,J1,6*%
%TO.N,GND*%
X170862000Y-99822000D03*
%TD*%
D15*
%TO.N,VDD5V*%
X177800000Y-104394000D03*
X170688000Y-104902000D03*
%TO.N,GND*%
X179324000Y-111252000D03*
X181610000Y-111252000D03*
X157480000Y-118364000D03*
X157480000Y-113792000D03*
%TO.N,VDD3V3*%
X151130000Y-115570000D03*
X159258000Y-111252000D03*
X181610000Y-108966000D03*
X171196000Y-107442000D03*
%TO.N,TXD*%
X170434000Y-109220000D03*
X164084000Y-104140000D03*
X160862000Y-101680000D03*
X155448000Y-105410000D03*
%TO.N,RXD*%
X170180000Y-111760000D03*
X163322000Y-101600000D03*
X155448000Y-107442000D03*
%TO.N,SCL*%
X155956000Y-112268000D03*
X182880000Y-106426000D03*
%TO.N,SDA*%
X181610000Y-104648000D03*
X165608000Y-103632000D03*
X160528000Y-108966000D03*
X155956000Y-109982000D03*
%TO.N,Net-(R1-Pad1)*%
X156210000Y-106426000D03*
X135382000Y-106426000D03*
%TO.N,Net-(R2-Pad1)*%
X156210000Y-108204000D03*
X135382000Y-110236000D03*
%TD*%
D16*
%TO.N,VDD5V*%
X177800000Y-104394000D02*
X171196000Y-104394000D01*
X171196000Y-104394000D02*
X170688000Y-104902000D01*
%TO.N,GND*%
X157480000Y-118364000D02*
X157480000Y-113792000D01*
X179324000Y-111252000D02*
X181610000Y-111252000D01*
%TO.N,VDD3V3*%
X151130000Y-115570000D02*
X155448000Y-111252000D01*
X155448000Y-111252000D02*
X159258000Y-111252000D01*
X180086000Y-107442000D02*
X171196000Y-107442000D01*
X181610000Y-108966000D02*
X180086000Y-107442000D01*
%TO.N,TXD*%
X169164000Y-109220000D02*
X164084000Y-104140000D01*
X170434000Y-109220000D02*
X169164000Y-109220000D01*
X159178000Y-101680000D02*
X155448000Y-105410000D01*
X160862000Y-101680000D02*
X159178000Y-101680000D01*
%TO.N,RXD*%
X163322000Y-104902000D02*
X163322000Y-101600000D01*
X170180000Y-111760000D02*
X163322000Y-104902000D01*
X160782000Y-107442000D02*
X155448000Y-107442000D01*
X163322000Y-104902000D02*
X160782000Y-107442000D01*
%TO.N,SCL*%
X182880000Y-108663922D02*
X182880000Y-106426000D01*
X181923921Y-109620001D02*
X182880000Y-108663922D01*
X173287921Y-109620001D02*
X181923921Y-109620001D01*
X170239923Y-112667999D02*
X173287921Y-109620001D01*
X156355999Y-112667999D02*
X170239923Y-112667999D01*
X155956000Y-112268000D02*
X156355999Y-112667999D01*
%TO.N,SDA*%
X178005922Y-103632000D02*
X165608000Y-103632000D01*
X179021922Y-104648000D02*
X178005922Y-103632000D01*
X181610000Y-104648000D02*
X179021922Y-104648000D01*
X156972000Y-108966000D02*
X155956000Y-109982000D01*
X160528000Y-108966000D02*
X156972000Y-108966000D01*
%TO.N,Net-(R1-Pad1)*%
X156210000Y-106426000D02*
X135382000Y-106426000D01*
%TO.N,Net-(R2-Pad1)*%
X156210000Y-108204000D02*
X144526000Y-108204000D01*
X144526000Y-108204000D02*
X142494000Y-110236000D01*
X142494000Y-110236000D02*
X135382000Y-110236000D01*
%TD*%
M02*
