M48
; DRILL file {KiCad (5.1.9)-1} date 06/08/21 20:53:03
; FORMAT={-:-/ absolute / inch / decimal}
; #@! TF.CreationDate,2021-06-08T20:53:03-04:00
; #@! TF.GenerationSoftware,Kicad,Pcbnew,(5.1.9)-1
FMAT,2
INCH
T1C0.0079
T2C0.0374
T3C0.0394
T4C0.1260
%
G90
G05
T1
X5.33Y-4.19
X5.33Y-4.34
X5.95Y-4.55
X6.12Y-4.15
X6.12Y-4.23
X6.14Y-4.33
X6.14Y-4.42
X6.15Y-4.19
X6.15Y-4.26
X6.2Y-4.48
X6.2Y-4.66
X6.27Y-4.38
X6.32Y-4.29
X6.3331Y-4.0031
X6.43Y-4.0
X6.46Y-4.1
X6.52Y-4.08
X6.7Y-4.4
X6.71Y-4.3
X6.72Y-4.13
X6.74Y-4.23
X7.0Y-4.11
X7.06Y-4.38
X7.15Y-4.12
X7.15Y-4.29
X7.15Y-4.38
X7.2Y-4.19
T2
X6.2347Y-3.93
X6.3331Y-3.93
X6.4316Y-3.93
X6.53Y-3.93
X6.6284Y-3.93
X6.7269Y-3.93
T3
X6.9716Y-3.97
X7.07Y-3.97
X7.15Y-4.52
X7.25Y-4.52
X7.35Y-4.52
T4
X5.23Y-3.98
X5.23Y-4.75
X7.32Y-3.98
X7.32Y-4.75
T0
M30
