%TF.GenerationSoftware,KiCad,Pcbnew,(5.1.9)-1*%
%TF.CreationDate,2021-05-29T10:09:57-04:00*%
%TF.ProjectId,wled,776c6564-2e6b-4696-9361-645f70636258,rev?*%
%TF.SameCoordinates,Original*%
%TF.FileFunction,Copper,L2,Bot*%
%TF.FilePolarity,Positive*%
%FSLAX46Y46*%
G04 Gerber Fmt 4.6, Leading zero omitted, Abs format (unit mm)*
G04 Created by KiCad (PCBNEW (5.1.9)-1) date 2021-05-29 10:09:57*
%MOMM*%
%LPD*%
G01*
G04 APERTURE LIST*
%TA.AperFunction,ComponentPad*%
%ADD10C,5.600000*%
%TD*%
%TA.AperFunction,ComponentPad*%
%ADD11R,1.700000X1.700000*%
%TD*%
%TA.AperFunction,ComponentPad*%
%ADD12O,1.700000X1.700000*%
%TD*%
%TA.AperFunction,ComponentPad*%
%ADD13O,1.700000X1.950000*%
%TD*%
%TA.AperFunction,ComponentPad*%
%ADD14O,1.700000X2.000000*%
%TD*%
%TA.AperFunction,ViaPad*%
%ADD15C,0.800000*%
%TD*%
%TA.AperFunction,Conductor*%
%ADD16C,0.254000*%
%TD*%
G04 APERTURE END LIST*
D10*
%TO.P,H4,1*%
%TO.N,N/C*%
X185166000Y-120650000D03*
%TD*%
%TO.P,H3,1*%
%TO.N,N/C*%
X185166000Y-101092000D03*
%TD*%
%TO.P,H2,1*%
%TO.N,N/C*%
X132842000Y-101092000D03*
%TD*%
%TO.P,H1,1*%
%TO.N,N/C*%
X132842000Y-120650000D03*
%TD*%
D11*
%TO.P,J2,1*%
%TO.N,VDD5V*%
X180086000Y-114427000D03*
D12*
%TO.P,J2,2*%
%TO.N,DATA*%
X180086000Y-116967000D03*
%TO.P,J2,3*%
%TO.N,GND*%
X180086000Y-119507000D03*
%TD*%
%TO.P,J1,1*%
%TO.N,VDD3V3*%
%TA.AperFunction,ComponentPad*%
G36*
G01*
X157646000Y-100547000D02*
X157646000Y-99097000D01*
G75*
G02*
X157896000Y-98847000I250000J0D01*
G01*
X159096000Y-98847000D01*
G75*
G02*
X159346000Y-99097000I0J-250000D01*
G01*
X159346000Y-100547000D01*
G75*
G02*
X159096000Y-100797000I-250000J0D01*
G01*
X157896000Y-100797000D01*
G75*
G02*
X157646000Y-100547000I0J250000D01*
G01*
G37*
%TD.AperFunction*%
D13*
%TO.P,J1,2*%
%TO.N,TXD*%
X160996000Y-99822000D03*
%TO.P,J1,3*%
%TO.N,RXD*%
X163496000Y-99822000D03*
%TO.P,J1,4*%
%TO.N,N/C*%
X165996000Y-99822000D03*
%TO.P,J1,5*%
X168496000Y-99822000D03*
%TO.P,J1,6*%
%TO.N,GND*%
X170996000Y-99822000D03*
%TD*%
%TO.P,J4,1*%
%TO.N,VIN*%
%TA.AperFunction,ComponentPad*%
G36*
G01*
X176101000Y-100572000D02*
X176101000Y-99072000D01*
G75*
G02*
X176351000Y-98822000I250000J0D01*
G01*
X177551000Y-98822000D01*
G75*
G02*
X177801000Y-99072000I0J-250000D01*
G01*
X177801000Y-100572000D01*
G75*
G02*
X177551000Y-100822000I-250000J0D01*
G01*
X176351000Y-100822000D01*
G75*
G02*
X176101000Y-100572000I0J250000D01*
G01*
G37*
%TD.AperFunction*%
D14*
%TO.P,J4,2*%
%TO.N,GND*%
X179451000Y-99822000D03*
%TD*%
D15*
%TO.N,VDD5V*%
X177800000Y-105664000D03*
X170942000Y-106426000D03*
X163576000Y-103632000D03*
X159004000Y-103632000D03*
%TO.N,GND*%
X171704000Y-120142000D03*
X171704000Y-110236000D03*
X156210000Y-108204000D03*
X156210000Y-106426000D03*
X156042000Y-120228000D03*
X156210000Y-111252000D03*
%TO.N,VDD3V3*%
X182372000Y-110236000D03*
X171196000Y-108204000D03*
X162052000Y-118110000D03*
X162052000Y-114554000D03*
X162052000Y-110744000D03*
X160528000Y-108204000D03*
%TO.N,SCL*%
X182118000Y-107442000D03*
X157226000Y-112522000D03*
%TO.N,SDA*%
X182372000Y-108712000D03*
X155956000Y-109728000D03*
%TO.N,Net-(D3-Pad2)*%
X155956000Y-105156000D03*
X168656000Y-104140000D03*
%TD*%
D16*
%TO.N,VDD5V*%
X171704000Y-105664000D02*
X170942000Y-106426000D01*
X177800000Y-105664000D02*
X171704000Y-105664000D01*
X163576000Y-103632000D02*
X159004000Y-103632000D01*
%TO.N,GND*%
X171704000Y-120142000D02*
X171704000Y-110236000D01*
X156210000Y-108204000D02*
X156210000Y-106426000D01*
X156042000Y-111420000D02*
X156210000Y-111252000D01*
X156042000Y-120228000D02*
X156042000Y-111420000D01*
%TO.N,VDD3V3*%
X172573999Y-109581999D02*
X171196000Y-108204000D01*
X181717999Y-109581999D02*
X172573999Y-109581999D01*
X182372000Y-110236000D02*
X181717999Y-109581999D01*
X162052000Y-118110000D02*
X162052000Y-114554000D01*
X162052000Y-114554000D02*
X162052000Y-110744000D01*
X171196000Y-108204000D02*
X160528000Y-108204000D01*
%TO.N,SCL*%
X172017921Y-109581999D02*
X160166001Y-109581999D01*
X173325923Y-110890001D02*
X172017921Y-109581999D01*
X182685921Y-110890001D02*
X173325923Y-110890001D01*
X183026001Y-110549921D02*
X182685921Y-110890001D01*
X183026001Y-108350001D02*
X183026001Y-110549921D01*
X182118000Y-107442000D02*
X183026001Y-108350001D01*
X160166001Y-109581999D02*
X157226000Y-112522000D01*
%TO.N,SDA*%
X158134001Y-107549999D02*
X155956000Y-109728000D01*
X181209999Y-107549999D02*
X158134001Y-107549999D01*
X182372000Y-108712000D02*
X181209999Y-107549999D01*
%TO.N,Net-(D3-Pad2)*%
X164846000Y-104140000D02*
X163830000Y-105156000D01*
X168656000Y-104140000D02*
X164846000Y-104140000D01*
X163830000Y-105156000D02*
X155956000Y-105156000D01*
%TD*%
M02*
