%TF.GenerationSoftware,KiCad,Pcbnew,(5.1.9)-1*%
%TF.CreationDate,2021-03-28T13:23:05-04:00*%
%TF.ProjectId,wled,776c6564-2e6b-4696-9361-645f70636258,rev?*%
%TF.SameCoordinates,Original*%
%TF.FileFunction,Copper,L1,Top*%
%TF.FilePolarity,Positive*%
%FSLAX46Y46*%
G04 Gerber Fmt 4.6, Leading zero omitted, Abs format (unit mm)*
G04 Created by KiCad (PCBNEW (5.1.9)-1) date 2021-03-28 13:23:05*
%MOMM*%
%LPD*%
G01*
G04 APERTURE LIST*
%TA.AperFunction,SMDPad,CuDef*%
%ADD10R,0.450000X0.600000*%
%TD*%
%TA.AperFunction,ComponentPad*%
%ADD11C,5.600000*%
%TD*%
%TA.AperFunction,SMDPad,CuDef*%
%ADD12R,2.000000X3.800000*%
%TD*%
%TA.AperFunction,SMDPad,CuDef*%
%ADD13R,2.000000X1.500000*%
%TD*%
%TA.AperFunction,SMDPad,CuDef*%
%ADD14R,0.900000X0.800000*%
%TD*%
%TA.AperFunction,ComponentPad*%
%ADD15R,1.700000X1.700000*%
%TD*%
%TA.AperFunction,ComponentPad*%
%ADD16O,1.700000X1.700000*%
%TD*%
%TA.AperFunction,ComponentPad*%
%ADD17O,1.200000X1.750000*%
%TD*%
%TA.AperFunction,SMDPad,CuDef*%
%ADD18R,2.500000X1.000000*%
%TD*%
%TA.AperFunction,SMDPad,CuDef*%
%ADD19R,1.000000X1.800000*%
%TD*%
%TA.AperFunction,ViaPad*%
%ADD20C,0.800000*%
%TD*%
%TA.AperFunction,Conductor*%
%ADD21C,0.254000*%
%TD*%
G04 APERTURE END LIST*
D10*
%TO.P,D1,2*%
%TO.N,VIN*%
X50292000Y-31462000D03*
%TO.P,D1,1*%
%TO.N,VDD5V*%
X50292000Y-33562000D03*
%TD*%
D11*
%TO.P,H4,1*%
%TO.N,N/C*%
X76200000Y-46228000D03*
%TD*%
%TO.P,H3,1*%
%TO.N,N/C*%
X76200000Y-26670000D03*
%TD*%
%TO.P,H2,1*%
%TO.N,N/C*%
X23876000Y-26670000D03*
%TD*%
%TO.P,H1,1*%
%TO.N,N/C*%
X23876000Y-46228000D03*
%TD*%
D12*
%TO.P,U2,2*%
%TO.N,VDD3V3*%
X56540000Y-39370000D03*
D13*
X62840000Y-39370000D03*
%TO.P,U2,3*%
%TO.N,VDD5V*%
X62840000Y-37070000D03*
%TO.P,U2,1*%
%TO.N,GND*%
X62840000Y-41670000D03*
%TD*%
%TO.P,D2,1*%
%TO.N,GND*%
%TA.AperFunction,SMDPad,CuDef*%
G36*
G01*
X53890000Y-31650000D02*
X53890000Y-31850000D01*
G75*
G02*
X53790000Y-31950000I-100000J0D01*
G01*
X53530000Y-31950000D01*
G75*
G02*
X53430000Y-31850000I0J100000D01*
G01*
X53430000Y-31650000D01*
G75*
G02*
X53530000Y-31550000I100000J0D01*
G01*
X53790000Y-31550000D01*
G75*
G02*
X53890000Y-31650000I0J-100000D01*
G01*
G37*
%TD.AperFunction*%
%TO.P,D2,2*%
%TO.N,VDD5V*%
%TA.AperFunction,SMDPad,CuDef*%
G36*
G01*
X53250000Y-31650000D02*
X53250000Y-31850000D01*
G75*
G02*
X53150000Y-31950000I-100000J0D01*
G01*
X52890000Y-31950000D01*
G75*
G02*
X52790000Y-31850000I0J100000D01*
G01*
X52790000Y-31650000D01*
G75*
G02*
X52890000Y-31550000I100000J0D01*
G01*
X53150000Y-31550000D01*
G75*
G02*
X53250000Y-31650000I0J-100000D01*
G01*
G37*
%TD.AperFunction*%
%TD*%
%TO.P,J3,MP*%
%TO.N,N/C*%
%TA.AperFunction,SMDPad,CuDef*%
G36*
G01*
X79741001Y-32344000D02*
X78440999Y-32344000D01*
G75*
G02*
X78191000Y-32094001I0J249999D01*
G01*
X78191000Y-31393999D01*
G75*
G02*
X78440999Y-31144000I249999J0D01*
G01*
X79741001Y-31144000D01*
G75*
G02*
X79991000Y-31393999I0J-249999D01*
G01*
X79991000Y-32094001D01*
G75*
G02*
X79741001Y-32344000I-249999J0D01*
G01*
G37*
%TD.AperFunction*%
%TA.AperFunction,SMDPad,CuDef*%
G36*
G01*
X79741001Y-37944000D02*
X78440999Y-37944000D01*
G75*
G02*
X78191000Y-37694001I0J249999D01*
G01*
X78191000Y-36993999D01*
G75*
G02*
X78440999Y-36744000I249999J0D01*
G01*
X79741001Y-36744000D01*
G75*
G02*
X79991000Y-36993999I0J-249999D01*
G01*
X79991000Y-37694001D01*
G75*
G02*
X79741001Y-37944000I-249999J0D01*
G01*
G37*
%TD.AperFunction*%
%TO.P,J3,4*%
%TO.N,SCL*%
%TA.AperFunction,SMDPad,CuDef*%
G36*
G01*
X75841000Y-33344000D02*
X74591000Y-33344000D01*
G75*
G02*
X74441000Y-33194000I0J150000D01*
G01*
X74441000Y-32894000D01*
G75*
G02*
X74591000Y-32744000I150000J0D01*
G01*
X75841000Y-32744000D01*
G75*
G02*
X75991000Y-32894000I0J-150000D01*
G01*
X75991000Y-33194000D01*
G75*
G02*
X75841000Y-33344000I-150000J0D01*
G01*
G37*
%TD.AperFunction*%
%TO.P,J3,3*%
%TO.N,SDA*%
%TA.AperFunction,SMDPad,CuDef*%
G36*
G01*
X75841000Y-34344000D02*
X74591000Y-34344000D01*
G75*
G02*
X74441000Y-34194000I0J150000D01*
G01*
X74441000Y-33894000D01*
G75*
G02*
X74591000Y-33744000I150000J0D01*
G01*
X75841000Y-33744000D01*
G75*
G02*
X75991000Y-33894000I0J-150000D01*
G01*
X75991000Y-34194000D01*
G75*
G02*
X75841000Y-34344000I-150000J0D01*
G01*
G37*
%TD.AperFunction*%
%TO.P,J3,2*%
%TO.N,VDD3V3*%
%TA.AperFunction,SMDPad,CuDef*%
G36*
G01*
X75841000Y-35344000D02*
X74591000Y-35344000D01*
G75*
G02*
X74441000Y-35194000I0J150000D01*
G01*
X74441000Y-34894000D01*
G75*
G02*
X74591000Y-34744000I150000J0D01*
G01*
X75841000Y-34744000D01*
G75*
G02*
X75991000Y-34894000I0J-150000D01*
G01*
X75991000Y-35194000D01*
G75*
G02*
X75841000Y-35344000I-150000J0D01*
G01*
G37*
%TD.AperFunction*%
%TO.P,J3,1*%
%TO.N,GND*%
%TA.AperFunction,SMDPad,CuDef*%
G36*
G01*
X75841000Y-36344000D02*
X74591000Y-36344000D01*
G75*
G02*
X74441000Y-36194000I0J150000D01*
G01*
X74441000Y-35894000D01*
G75*
G02*
X74591000Y-35744000I150000J0D01*
G01*
X75841000Y-35744000D01*
G75*
G02*
X75991000Y-35894000I0J-150000D01*
G01*
X75991000Y-36194000D01*
G75*
G02*
X75841000Y-36344000I-150000J0D01*
G01*
G37*
%TD.AperFunction*%
%TD*%
D14*
%TO.P,Q2,3*%
%TO.N,GPIO0*%
X65675000Y-33020000D03*
%TO.P,Q2,2*%
%TO.N,Net-(Q2-Pad2)*%
X63675000Y-33970000D03*
%TO.P,Q2,1*%
%TO.N,DTR*%
X63675000Y-32070000D03*
%TD*%
%TO.P,Q1,3*%
%TO.N,RTS*%
X58150000Y-33020000D03*
%TO.P,Q1,2*%
%TO.N,Net-(Q1-Pad2)*%
X56150000Y-33970000D03*
%TO.P,Q1,1*%
%TO.N,EN*%
X56150000Y-32070000D03*
%TD*%
%TO.P,C1,1*%
%TO.N,VDD5V*%
%TA.AperFunction,SMDPad,CuDef*%
G36*
G01*
X53890000Y-36730000D02*
X53890000Y-36930000D01*
G75*
G02*
X53790000Y-37030000I-100000J0D01*
G01*
X53530000Y-37030000D01*
G75*
G02*
X53430000Y-36930000I0J100000D01*
G01*
X53430000Y-36730000D01*
G75*
G02*
X53530000Y-36630000I100000J0D01*
G01*
X53790000Y-36630000D01*
G75*
G02*
X53890000Y-36730000I0J-100000D01*
G01*
G37*
%TD.AperFunction*%
%TO.P,C1,2*%
%TO.N,GND*%
%TA.AperFunction,SMDPad,CuDef*%
G36*
G01*
X53250000Y-36730000D02*
X53250000Y-36930000D01*
G75*
G02*
X53150000Y-37030000I-100000J0D01*
G01*
X52890000Y-37030000D01*
G75*
G02*
X52790000Y-36930000I0J100000D01*
G01*
X52790000Y-36730000D01*
G75*
G02*
X52890000Y-36630000I100000J0D01*
G01*
X53150000Y-36630000D01*
G75*
G02*
X53250000Y-36730000I0J-100000D01*
G01*
G37*
%TD.AperFunction*%
%TD*%
%TO.P,C2,2*%
%TO.N,GND*%
%TA.AperFunction,SMDPad,CuDef*%
G36*
G01*
X53250000Y-34190000D02*
X53250000Y-34390000D01*
G75*
G02*
X53150000Y-34490000I-100000J0D01*
G01*
X52890000Y-34490000D01*
G75*
G02*
X52790000Y-34390000I0J100000D01*
G01*
X52790000Y-34190000D01*
G75*
G02*
X52890000Y-34090000I100000J0D01*
G01*
X53150000Y-34090000D01*
G75*
G02*
X53250000Y-34190000I0J-100000D01*
G01*
G37*
%TD.AperFunction*%
%TO.P,C2,1*%
%TO.N,VDD3V3*%
%TA.AperFunction,SMDPad,CuDef*%
G36*
G01*
X53890000Y-34190000D02*
X53890000Y-34390000D01*
G75*
G02*
X53790000Y-34490000I-100000J0D01*
G01*
X53530000Y-34490000D01*
G75*
G02*
X53430000Y-34390000I0J100000D01*
G01*
X53430000Y-34190000D01*
G75*
G02*
X53530000Y-34090000I100000J0D01*
G01*
X53790000Y-34090000D01*
G75*
G02*
X53890000Y-34190000I0J-100000D01*
G01*
G37*
%TD.AperFunction*%
%TD*%
D15*
%TO.P,J1,1*%
%TO.N,VDD3V3*%
X49530000Y-26670000D03*
D16*
%TO.P,J1,2*%
%TO.N,TXD*%
X52070000Y-26670000D03*
%TO.P,J1,3*%
%TO.N,RXD*%
X54610000Y-26670000D03*
%TO.P,J1,4*%
%TO.N,DTR*%
X57150000Y-26670000D03*
%TO.P,J1,5*%
%TO.N,RTS*%
X59690000Y-26670000D03*
%TO.P,J1,6*%
%TO.N,GND*%
X62230000Y-26670000D03*
%TD*%
D15*
%TO.P,J2,1*%
%TO.N,VDD5V*%
X72390000Y-40640000D03*
D16*
%TO.P,J2,2*%
%TO.N,DATA*%
X69850000Y-40640000D03*
%TO.P,J2,3*%
%TO.N,GND*%
X67310000Y-40640000D03*
%TD*%
%TO.P,J4,1*%
%TO.N,VIN*%
%TA.AperFunction,ComponentPad*%
G36*
G01*
X67475000Y-26980001D02*
X67475000Y-25729999D01*
G75*
G02*
X67724999Y-25480000I249999J0D01*
G01*
X68425001Y-25480000D01*
G75*
G02*
X68675000Y-25729999I0J-249999D01*
G01*
X68675000Y-26980001D01*
G75*
G02*
X68425001Y-27230000I-249999J0D01*
G01*
X67724999Y-27230000D01*
G75*
G02*
X67475000Y-26980001I0J249999D01*
G01*
G37*
%TD.AperFunction*%
D17*
%TO.P,J4,2*%
%TO.N,GND*%
X70075000Y-26355000D03*
%TD*%
%TO.P,R1,1*%
%TO.N,DTR*%
%TA.AperFunction,SMDPad,CuDef*%
G36*
G01*
X60410000Y-31850000D02*
X60410000Y-31650000D01*
G75*
G02*
X60510000Y-31550000I100000J0D01*
G01*
X60770000Y-31550000D01*
G75*
G02*
X60870000Y-31650000I0J-100000D01*
G01*
X60870000Y-31850000D01*
G75*
G02*
X60770000Y-31950000I-100000J0D01*
G01*
X60510000Y-31950000D01*
G75*
G02*
X60410000Y-31850000I0J100000D01*
G01*
G37*
%TD.AperFunction*%
%TO.P,R1,2*%
%TO.N,Net-(Q1-Pad2)*%
%TA.AperFunction,SMDPad,CuDef*%
G36*
G01*
X61050000Y-31850000D02*
X61050000Y-31650000D01*
G75*
G02*
X61150000Y-31550000I100000J0D01*
G01*
X61410000Y-31550000D01*
G75*
G02*
X61510000Y-31650000I0J-100000D01*
G01*
X61510000Y-31850000D01*
G75*
G02*
X61410000Y-31950000I-100000J0D01*
G01*
X61150000Y-31950000D01*
G75*
G02*
X61050000Y-31850000I0J100000D01*
G01*
G37*
%TD.AperFunction*%
%TD*%
%TO.P,R2,2*%
%TO.N,Net-(Q2-Pad2)*%
%TA.AperFunction,SMDPad,CuDef*%
G36*
G01*
X61050000Y-34390000D02*
X61050000Y-34190000D01*
G75*
G02*
X61150000Y-34090000I100000J0D01*
G01*
X61410000Y-34090000D01*
G75*
G02*
X61510000Y-34190000I0J-100000D01*
G01*
X61510000Y-34390000D01*
G75*
G02*
X61410000Y-34490000I-100000J0D01*
G01*
X61150000Y-34490000D01*
G75*
G02*
X61050000Y-34390000I0J100000D01*
G01*
G37*
%TD.AperFunction*%
%TO.P,R2,1*%
%TO.N,RTS*%
%TA.AperFunction,SMDPad,CuDef*%
G36*
G01*
X60410000Y-34390000D02*
X60410000Y-34190000D01*
G75*
G02*
X60510000Y-34090000I100000J0D01*
G01*
X60770000Y-34090000D01*
G75*
G02*
X60870000Y-34190000I0J-100000D01*
G01*
X60870000Y-34390000D01*
G75*
G02*
X60770000Y-34490000I-100000J0D01*
G01*
X60510000Y-34490000D01*
G75*
G02*
X60410000Y-34390000I0J100000D01*
G01*
G37*
%TD.AperFunction*%
%TD*%
D18*
%TO.P,U1,1*%
%TO.N,Net-(U1-Pad1)*%
X29738000Y-31806000D03*
%TO.P,U1,2*%
%TO.N,Net-(U1-Pad2)*%
X29738000Y-33806000D03*
%TO.P,U1,3*%
%TO.N,EN*%
X29738000Y-35806000D03*
%TO.P,U1,4*%
%TO.N,Net-(U1-Pad4)*%
X29738000Y-37806000D03*
%TO.P,U1,5*%
%TO.N,Net-(U1-Pad5)*%
X29738000Y-39806000D03*
%TO.P,U1,6*%
%TO.N,Net-(U1-Pad6)*%
X29738000Y-41806000D03*
%TO.P,U1,7*%
%TO.N,Net-(U1-Pad7)*%
X29738000Y-43806000D03*
%TO.P,U1,8*%
%TO.N,VDD3V3*%
X29738000Y-45806000D03*
D19*
%TO.P,U1,9*%
%TO.N,Net-(U1-Pad9)*%
X32338000Y-47306000D03*
%TO.P,U1,10*%
%TO.N,Net-(U1-Pad10)*%
X34338000Y-47306000D03*
%TO.P,U1,11*%
%TO.N,Net-(U1-Pad11)*%
X36338000Y-47306000D03*
%TO.P,U1,12*%
%TO.N,Net-(U1-Pad12)*%
X38338000Y-47306000D03*
%TO.P,U1,13*%
%TO.N,Net-(U1-Pad13)*%
X40338000Y-47306000D03*
%TO.P,U1,14*%
%TO.N,Net-(U1-Pad14)*%
X42338000Y-47306000D03*
D18*
%TO.P,U1,15*%
%TO.N,GND*%
X44938000Y-45806000D03*
%TO.P,U1,16*%
%TO.N,Net-(U1-Pad16)*%
X44938000Y-43806000D03*
%TO.P,U1,17*%
%TO.N,DATA*%
X44938000Y-41806000D03*
%TO.P,U1,18*%
%TO.N,GPIO0*%
X44938000Y-39806000D03*
%TO.P,U1,19*%
%TO.N,SCL*%
X44938000Y-37806000D03*
%TO.P,U1,20*%
%TO.N,SDA*%
X44938000Y-35806000D03*
%TO.P,U1,21*%
%TO.N,RXD*%
X44938000Y-33806000D03*
%TO.P,U1,22*%
%TO.N,TXD*%
X44938000Y-31806000D03*
%TD*%
D20*
%TO.N,VDD5V*%
X51775200Y-33613900D03*
X53594000Y-38862000D03*
%TO.N,VDD3V3*%
X54872800Y-38520500D03*
X53519900Y-33394100D03*
X34290000Y-44450000D03*
%TO.N,VIN*%
X50292000Y-30480000D03*
%TO.N,SDA*%
X41510600Y-45357400D03*
X66775100Y-45439100D03*
%TD*%
D21*
%TO.N,VDD5V*%
X53020000Y-31750000D02*
X51775200Y-32994800D01*
X51775200Y-32994800D02*
X51775200Y-33613900D01*
X62600000Y-36830000D02*
X62840000Y-37070000D01*
X53660000Y-36830000D02*
X62600000Y-36830000D01*
X50343900Y-33613900D02*
X50292000Y-33562000D01*
X51775200Y-33613900D02*
X50343900Y-33613900D01*
X53660000Y-38796000D02*
X53594000Y-38862000D01*
X53660000Y-36830000D02*
X53660000Y-38796000D01*
%TO.N,GND*%
X53660000Y-31750000D02*
X53660000Y-32225500D01*
X53660000Y-32225500D02*
X52792600Y-33092900D01*
X52792600Y-33092900D02*
X52792600Y-34062600D01*
X52792600Y-34062600D02*
X53020000Y-34290000D01*
X68487300Y-40272100D02*
X72715400Y-36044000D01*
X72715400Y-36044000D02*
X75216000Y-36044000D01*
X67310000Y-40640000D02*
X65197300Y-40640000D01*
X65197300Y-40640000D02*
X64167300Y-41670000D01*
X50931900Y-36830000D02*
X53020000Y-36830000D01*
X62840000Y-41670000D02*
X64167300Y-41670000D01*
X56642000Y-24892000D02*
X60198000Y-24892000D01*
X60198000Y-24892000D02*
X61052700Y-25746700D01*
X55972600Y-25561400D02*
X56642000Y-24892000D01*
X55972600Y-29437400D02*
X55972600Y-25561400D01*
X53660000Y-31750000D02*
X55972600Y-29437400D01*
X61052700Y-26508700D02*
X61214000Y-26670000D01*
X61052700Y-25746700D02*
X61052700Y-26508700D01*
X61214000Y-26670000D02*
X62230000Y-26670000D01*
X67677900Y-40272100D02*
X67310000Y-40640000D01*
X68487300Y-40272100D02*
X67677900Y-40272100D01*
X50931900Y-36830000D02*
X47026246Y-40735654D01*
X47021341Y-40862659D02*
X48237400Y-42078800D01*
X48237400Y-42078800D02*
X62431200Y-42078800D01*
X43687500Y-40834700D02*
X46993382Y-40834700D01*
X43360700Y-41161500D02*
X43687500Y-40834700D01*
X62431200Y-42078800D02*
X62840000Y-41670000D01*
X43360700Y-45806000D02*
X43360700Y-41161500D01*
X46993382Y-40834700D02*
X47021341Y-40862659D01*
X44938000Y-45806000D02*
X43360700Y-45806000D01*
%TO.N,VDD3V3*%
X62840000Y-39370000D02*
X62840000Y-39282500D01*
X62840000Y-39282500D02*
X66896100Y-39282500D01*
X66896100Y-39282500D02*
X71134600Y-35044000D01*
X71134600Y-35044000D02*
X75216000Y-35044000D01*
X56540000Y-39370000D02*
X62752500Y-39370000D01*
X62752500Y-39370000D02*
X62840000Y-39282500D01*
X54872800Y-38520500D02*
X55690500Y-38520500D01*
X55690500Y-38520500D02*
X56540000Y-39370000D01*
X53519900Y-33394100D02*
X53660000Y-33534200D01*
X53660000Y-33534200D02*
X53660000Y-34290000D01*
X29738000Y-45806000D02*
X32934000Y-45806000D01*
X32934000Y-45806000D02*
X34290000Y-44450000D01*
X34290000Y-44450000D02*
X34290000Y-44450000D01*
X34290000Y-44450000D02*
X34290000Y-44450000D01*
%TO.N,VIN*%
X50292000Y-31462000D02*
X50292000Y-30480000D01*
%TO.N,TXD*%
X44938000Y-31770000D02*
X44958000Y-31750000D01*
X44938000Y-31806000D02*
X44938000Y-31770000D01*
X50892700Y-27502600D02*
X50892700Y-26670000D01*
X50106100Y-28289200D02*
X50892700Y-27502600D01*
X50892700Y-26670000D02*
X52070000Y-26670000D01*
X44938000Y-31806000D02*
X46680000Y-31806000D01*
X46680000Y-31806000D02*
X47752000Y-30734000D01*
X47752000Y-30734000D02*
X47752000Y-29972000D01*
X49434800Y-28289200D02*
X50106100Y-28289200D01*
X47752000Y-29972000D02*
X49434800Y-28289200D01*
%TO.N,RXD*%
X48651300Y-33806000D02*
X44938000Y-33806000D01*
X49945300Y-32512000D02*
X48651300Y-33806000D01*
X51308000Y-32512000D02*
X49945300Y-32512000D01*
X54610000Y-29210000D02*
X51308000Y-32512000D01*
X54610000Y-26670000D02*
X54610000Y-29210000D01*
%TO.N,DTR*%
X60640000Y-31210600D02*
X60640000Y-31750000D01*
X57150000Y-27847300D02*
X60513300Y-31210600D01*
X60513300Y-31210600D02*
X60640000Y-31210600D01*
X62815600Y-31210600D02*
X63675000Y-32070000D01*
X57150000Y-26670000D02*
X57150000Y-27847300D01*
X60979400Y-31210600D02*
X61245400Y-31210600D01*
X60640000Y-31550000D02*
X60979400Y-31210600D01*
X60640000Y-31750000D02*
X60640000Y-31550000D01*
X61245400Y-31210600D02*
X62815600Y-31210600D01*
X60640000Y-31210600D02*
X61245400Y-31210600D01*
%TO.N,RTS*%
X59690000Y-27940000D02*
X59690000Y-26670000D01*
X61214000Y-28194000D02*
X59944000Y-28194000D01*
X64452300Y-31432300D02*
X61214000Y-28194000D01*
X64452300Y-32605600D02*
X64452300Y-31432300D01*
X59944000Y-28194000D02*
X59690000Y-27940000D01*
X64093200Y-32964700D02*
X64452300Y-32605600D01*
X61269300Y-32964700D02*
X64093200Y-32964700D01*
X60640000Y-33594000D02*
X61269300Y-32964700D01*
X60640000Y-34290000D02*
X60640000Y-33594000D01*
X58150000Y-33747300D02*
X58150000Y-33020000D01*
X58692700Y-34290000D02*
X58150000Y-33747300D01*
X60640000Y-34290000D02*
X58692700Y-34290000D01*
%TO.N,DATA*%
X44938000Y-41806000D02*
X46515300Y-41806000D01*
X46515300Y-41806000D02*
X47456700Y-42747400D01*
X47456700Y-42747400D02*
X67742600Y-42747400D01*
X67742600Y-42747400D02*
X69850000Y-40640000D01*
%TO.N,Net-(Q1-Pad2)*%
X61280000Y-31750000D02*
X61280000Y-31965500D01*
X61280000Y-31965500D02*
X60952900Y-32292600D01*
X60952900Y-32292600D02*
X57511300Y-32292600D01*
X57511300Y-32292600D02*
X56561200Y-33242700D01*
X56561200Y-33558800D02*
X56150000Y-33970000D01*
X56561200Y-33242700D02*
X56561200Y-33558800D01*
%TO.N,EN*%
X55431700Y-32788300D02*
X56150000Y-32070000D01*
X55372999Y-32847001D02*
X55431700Y-32788300D01*
X55372999Y-33781001D02*
X55372999Y-32847001D01*
X54175300Y-34978700D02*
X55372999Y-33781001D01*
X32142600Y-34978700D02*
X54175300Y-34978700D01*
X31315300Y-35806000D02*
X32142600Y-34978700D01*
X29738000Y-35806000D02*
X31315300Y-35806000D01*
X55431700Y-33358000D02*
X55431700Y-32788300D01*
%TO.N,GPIO0*%
X65675000Y-33020000D02*
X65675000Y-33747300D01*
X44938000Y-39806000D02*
X43360700Y-39806000D01*
X43360700Y-39806000D02*
X43360700Y-37161600D01*
X43360700Y-37161600D02*
X43858100Y-36664200D01*
X43858100Y-36664200D02*
X49491500Y-36664200D01*
X49491500Y-36664200D02*
X50633700Y-35522000D01*
X50633700Y-35522000D02*
X63900300Y-35522000D01*
X63900300Y-35522000D02*
X65675000Y-33747300D01*
%TO.N,Net-(Q2-Pad2)*%
X63675000Y-33970000D02*
X62897700Y-33970000D01*
X61280000Y-34290000D02*
X62577700Y-34290000D01*
X62577700Y-34290000D02*
X62897700Y-33970000D01*
%TO.N,SCL*%
X44938000Y-37806000D02*
X46515300Y-37806000D01*
X46515300Y-37806000D02*
X47042300Y-37279000D01*
X47042300Y-37279000D02*
X49840300Y-37279000D01*
X49840300Y-37279000D02*
X51142900Y-35976400D01*
X51142900Y-35976400D02*
X64851200Y-35976400D01*
X64851200Y-35976400D02*
X67783600Y-33044000D01*
X67783600Y-33044000D02*
X75216000Y-33044000D01*
%TO.N,SDA*%
X44938000Y-35806000D02*
X43360700Y-35806000D01*
X43360700Y-35806000D02*
X41510600Y-37656100D01*
X41510600Y-37656100D02*
X41510600Y-45357400D01*
X71212600Y-41001600D02*
X71212600Y-39649000D01*
X71212600Y-39649000D02*
X73669200Y-37192400D01*
X73669200Y-37192400D02*
X75593600Y-37192400D01*
X75593600Y-37192400D02*
X76370500Y-36415500D01*
X76370500Y-36415500D02*
X76370500Y-34694900D01*
X76370500Y-34694900D02*
X75719600Y-34044000D01*
X75719600Y-34044000D02*
X75216000Y-34044000D01*
X66775100Y-45439100D02*
X71212600Y-41001600D01*
%TD*%
M02*
